<svg xmlns="http://www.w3.org/2000/svg" viewBox="0 0 240 168"><rect width="240" height="168" fill="#f3f3ec"/><ellipse cx="120" cy="148" rx="77" ry="8" fill="#24352e" opacity=".07"/><polygon points="123.09,134.56 119.16,134.40 120.00,140.13" fill="#cacac4" stroke="#cacac4" stroke-width="0.3"/><polygon points="119.16,134.40 115.32,134.80 120.00,140.13" fill="#cacac4" stroke="#cacac4" stroke-width="0.3"/><polygon points="126.71,135.27 123.09,134.56 120.00,140.13" fill="#cacac4" stroke="#cacac4" stroke-width="0.3"/><polygon points="115.32,134.80 111.93,135.72 120.00,140.13" fill="#cacac4" stroke="#cacac4" stroke-width="0.3"/><polygon points="129.68,136.45 126.71,135.27 120.00,140.13" fill="#cacac4" stroke="#cacac4" stroke-width="0.3"/><polygon points="111.93,135.72 109.34,137.07 120.00,140.13" fill="#cacac4" stroke="#cacac4" stroke-width="0.3"/><polygon points="131.70,138.00 129.68,136.45 120.00,140.13" fill="#cacac4" stroke="#cacac4" stroke-width="0.3"/><polygon points="109.34,137.07 107.79,138.72 120.00,140.13" fill="#cacac4" stroke="#cacac4" stroke-width="0.3"/><polygon points="132.57,139.75 131.70,138.00 120.00,140.13" fill="#cacac4" stroke="#cacac4" stroke-width="0.3"/><polygon points="107.79,138.72 107.43,140.51 120.00,140.13" fill="#cacac4" stroke="#cacac4" stroke-width="0.3"/><polygon points="132.21,144.68 132.57,142.89 132.57,139.75" fill="#c1c1bb" stroke="#c1c1bb" stroke-width="0.3"/><polygon points="132.21,141.54 132.57,139.75 120.00,140.13" fill="#cacac4" stroke="#cacac4" stroke-width="0.3"/><polygon points="132.21,141.54 132.21,144.68 132.57,139.75" fill="#c1c1bb" stroke="#c1c1bb" stroke-width="0.3"/><polygon points="107.43,140.51 107.43,143.65 108.30,142.26" fill="#a8a8a3" stroke="#a8a8a3" stroke-width="0.3"/><polygon points="107.43,140.51 108.30,142.26 120.00,140.13" fill="#cacac4" stroke="#cacac4" stroke-width="0.3"/><polygon points="107.43,143.65 108.30,145.40 108.30,142.26" fill="#a8a8a3" stroke="#a8a8a3" stroke-width="0.3"/><polygon points="130.66,146.33 132.21,144.68 132.21,141.54" fill="#c1c1bc" stroke="#c1c1bc" stroke-width="0.3"/><polygon points="130.66,143.19 132.21,141.54 120.00,140.13" fill="#cacac4" stroke="#cacac4" stroke-width="0.3"/><polygon points="108.30,142.26 110.32,143.81 120.00,140.13" fill="#cacac4" stroke="#cacac4" stroke-width="0.3"/><polygon points="130.66,143.19 130.66,146.33 132.21,141.54" fill="#c1c1bc" stroke="#c1c1bc" stroke-width="0.3"/><polygon points="108.30,142.26 108.30,145.40 110.32,143.81" fill="#a8a8a3" stroke="#a8a8a3" stroke-width="0.3"/><polygon points="128.07,144.54 130.66,143.19 120.00,140.13" fill="#cacac4" stroke="#cacac4" stroke-width="0.3"/><polygon points="108.30,145.40 110.32,146.95 110.32,143.81" fill="#a8a8a3" stroke="#a8a8a3" stroke-width="0.3"/><polygon points="110.32,143.81 113.29,144.99 120.00,140.13" fill="#cacac4" stroke="#cacac4" stroke-width="0.3"/><polygon points="128.07,147.68 130.66,146.33 130.66,143.19" fill="#c0c0ba" stroke="#c0c0ba" stroke-width="0.3"/><polygon points="124.68,145.46 128.07,144.54 120.00,140.13" fill="#cacac4" stroke="#cacac4" stroke-width="0.3"/><polygon points="113.29,144.99 116.91,145.70 120.00,140.13" fill="#cacac4" stroke="#cacac4" stroke-width="0.3"/><polygon points="128.07,144.54 128.07,147.68 130.66,143.19" fill="#c0c0ba" stroke="#c0c0ba" stroke-width="0.3"/><polygon points="120.84,145.86 124.68,145.46 120.00,140.13" fill="#cacac4" stroke="#cacac4" stroke-width="0.3"/><polygon points="116.91,145.70 120.84,145.86 120.00,140.13" fill="#cacac4" stroke="#cacac4" stroke-width="0.3"/><polygon points="110.32,143.81 110.32,146.95 113.29,144.99" fill="#a8a8a3" stroke="#a8a8a3" stroke-width="0.3"/><polygon points="110.32,146.95 113.29,148.13 113.29,144.99" fill="#a8a8a3" stroke="#a8a8a3" stroke-width="0.3"/><polygon points="124.68,148.60 128.07,147.68 128.07,144.54" fill="#bcbcb6" stroke="#bcbcb6" stroke-width="0.3"/><polygon points="124.68,145.46 124.68,148.60 128.07,144.54" fill="#bcbcb6" stroke="#bcbcb6" stroke-width="0.3"/><polygon points="113.29,148.13 116.91,148.84 116.91,145.70" fill="#a8a8a3" stroke="#a8a8a3" stroke-width="0.3"/><polygon points="113.29,144.99 113.29,148.13 116.91,145.70" fill="#a8a8a3" stroke="#a8a8a3" stroke-width="0.3"/><polygon points="120.84,149.00 124.68,148.60 124.68,145.46" fill="#b6b6b1" stroke="#b6b6b1" stroke-width="0.3"/><polygon points="116.91,148.84 120.84,149.00 120.84,145.86" fill="#afafa9" stroke="#afafa9" stroke-width="0.3"/><polygon points="120.84,145.86 120.84,149.00 124.68,145.46" fill="#b6b6b1" stroke="#b6b6b1" stroke-width="0.3"/><polygon points="116.91,145.70 116.91,148.84 120.84,145.86" fill="#afafa9" stroke="#afafa9" stroke-width="0.3"/><polygon points="121.32,140.35 121.39,140.02 121.39,39.99" fill="#c1c1bb" stroke="#c1c1bb" stroke-width="0.3"/><polygon points="118.61,140.24 118.92,140.54 118.92,40.51" fill="#a8a8a3" stroke="#a8a8a3" stroke-width="0.3"/><polygon points="120.90,140.62 121.32,140.35 121.32,40.32" fill="#c0c0bb" stroke="#c0c0bb" stroke-width="0.3"/><polygon points="118.92,140.54 119.51,140.73 119.51,40.70" fill="#a8a8a3" stroke="#a8a8a3" stroke-width="0.3"/><polygon points="120.24,140.76 120.90,140.62 120.90,40.59" fill="#babab5" stroke="#babab5" stroke-width="0.3"/><polygon points="119.51,140.73 120.24,140.76 120.24,40.73" fill="#afafa9" stroke="#afafa9" stroke-width="0.3"/><polygon points="121.32,40.32 121.32,140.35 121.39,39.99" fill="#c1c1bb" stroke="#c1c1bb" stroke-width="0.3"/><polygon points="118.61,40.21 118.61,140.24 118.92,40.51" fill="#a8a8a3" stroke="#a8a8a3" stroke-width="0.3"/><polygon points="120.90,40.59 120.90,140.62 121.32,40.32" fill="#c0c0bb" stroke="#c0c0bb" stroke-width="0.3"/><polygon points="118.92,40.51 118.92,140.54 119.51,40.70" fill="#a8a8a3" stroke="#a8a8a3" stroke-width="0.3"/><polygon points="120.24,40.73 120.24,140.76 120.90,40.59" fill="#babab5" stroke="#babab5" stroke-width="0.3"/><polygon points="119.51,40.70 119.51,140.73 120.24,40.73" fill="#afafa9" stroke="#afafa9" stroke-width="0.3"/><polygon points="120.49,39.50 119.76,39.47 120.00,40.10" fill="#cacac4" stroke="#cacac4" stroke-width="0.3"/><polygon points="119.76,39.47 119.10,39.61 120.00,40.10" fill="#cacac4" stroke="#cacac4" stroke-width="0.3"/><polygon points="121.08,39.69 120.49,39.50 120.00,40.10" fill="#cacac4" stroke="#cacac4" stroke-width="0.3"/><polygon points="119.10,39.61 118.68,39.88 120.00,40.10" fill="#cacac4" stroke="#cacac4" stroke-width="0.3"/><polygon points="121.39,39.99 121.08,39.69 120.00,40.10" fill="#cacac4" stroke="#cacac4" stroke-width="0.3"/><polygon points="118.68,39.88 118.61,40.21 120.00,40.10" fill="#cacac4" stroke="#cacac4" stroke-width="0.3"/><polygon points="121.32,40.32 121.39,39.99 120.00,40.10" fill="#cacac4" stroke="#cacac4" stroke-width="0.3"/><polygon points="117.91,40.11 117.81,40.60 120.84,42.75" fill="#a8a8a3" stroke="#a8a8a3" stroke-width="0.3"/><polygon points="120.15,37.91 119.66,38.09 122.59,40.74" fill="#cdcdc7" stroke="#cdcdc7" stroke-width="0.3"/><polygon points="118.61,40.21 118.92,40.51 120.00,40.10" fill="#cacac4" stroke="#cacac4" stroke-width="0.3"/><polygon points="120.90,40.59 121.32,40.32 120.00,40.10" fill="#cacac4" stroke="#cacac4" stroke-width="0.3"/><polygon points="118.01,39.62 117.91,40.11 120.94,42.27" fill="#a8a8a3" stroke="#a8a8a3" stroke-width="0.3"/><polygon points="119.66,38.09 119.18,38.28 122.11,40.92" fill="#cdcdc7" stroke="#cdcdc7" stroke-width="0.3"/><polygon points="118.92,40.51 119.51,40.70 120.00,40.10" fill="#cacac4" stroke="#cacac4" stroke-width="0.3"/><polygon points="120.24,40.73 120.90,40.59 120.00,40.10" fill="#cacac4" stroke="#cacac4" stroke-width="0.3"/><polygon points="119.51,40.70 120.24,40.73 120.00,40.10" fill="#cacac4" stroke="#cacac4" stroke-width="0.3"/><polygon points="117.81,40.60 120.74,43.24 120.84,42.75" fill="#a8a8a3" stroke="#a8a8a3" stroke-width="0.3"/><polygon points="118.11,39.13 118.01,39.62 121.04,41.78" fill="#a8a8a3" stroke="#a8a8a3" stroke-width="0.3"/><polygon points="119.18,38.28 118.69,38.46 121.62,41.10" fill="#cdcdc7" stroke="#cdcdc7" stroke-width="0.3"/><polygon points="123.08,40.55 120.15,37.91 122.59,40.74" fill="#cdcdc7" stroke="#cdcdc7" stroke-width="0.3"/><polygon points="117.91,40.11 120.84,42.75 120.94,42.27" fill="#a8a8a3" stroke="#a8a8a3" stroke-width="0.3"/><polygon points="118.21,38.64 118.11,39.13 121.14,41.29" fill="#a8a8a3" stroke="#a8a8a3" stroke-width="0.3"/><polygon points="118.69,38.46 118.21,38.64 121.14,41.29" fill="#cdcdc7" stroke="#cdcdc7" stroke-width="0.3"/><polygon points="122.59,40.74 119.66,38.09 122.11,40.92" fill="#cdcdc7" stroke="#cdcdc7" stroke-width="0.3"/><polygon points="118.01,39.62 120.94,42.27 121.04,41.78" fill="#a8a8a3" stroke="#a8a8a3" stroke-width="0.3"/><polygon points="122.11,40.92 119.18,38.28 121.62,41.10" fill="#cdcdc7" stroke="#cdcdc7" stroke-width="0.3"/><polygon points="127.53,40.41 127.45,39.51 125.96,25.28" fill="#ebeae3" stroke="#ebeae3" stroke-width="0.3"/><polygon points="118.11,39.13 121.04,41.78 121.14,41.29" fill="#a8a8a3" stroke="#a8a8a3" stroke-width="0.3"/><polygon points="121.62,41.10 118.69,38.46 121.14,41.29" fill="#cdcdc7" stroke="#cdcdc7" stroke-width="0.3"/><polygon points="120.84,42.75 120.74,43.24 123.77,45.40" fill="#a8a8a3" stroke="#a8a8a3" stroke-width="0.3"/><polygon points="123.08,40.55 122.59,40.74 125.52,43.38" fill="#cdcdc7" stroke="#cdcdc7" stroke-width="0.3"/><polygon points="117.59,37.27 117.69,37.70 117.69,31.10" fill="#cdb278" stroke="#cdb278" stroke-width="0.3"/><polygon points="112.47,39.79 112.55,40.69 114.04,26.21" fill="#cbcac4" stroke="#cbcac4" stroke-width="0.3"/><polygon points="122.14,37.88 122.41,37.47 122.41,30.87" fill="#ebcc8a" stroke="#ebcc8a" stroke-width="0.3"/><polygon points="120.94,42.27 120.84,42.75 123.87,44.91" fill="#a8a8a3" stroke="#a8a8a3" stroke-width="0.3"/><polygon points="122.59,40.74 122.11,40.92 125.04,43.56" fill="#cdcdc7" stroke="#cdcdc7" stroke-width="0.3"/><polygon points="120.22,29.67 119.28,29.72 120.00,30.77" fill="#f5d590" stroke="#f5d590" stroke-width="0.3"/><polygon points="121.12,29.79 120.22,29.67 120.00,30.77" fill="#f5d590" stroke="#f5d590" stroke-width="0.3"/><polygon points="120.74,43.24 123.67,45.89 123.77,45.40" fill="#a8a8a3" stroke="#a8a8a3" stroke-width="0.3"/><polygon points="121.04,41.78 120.94,42.27 123.97,44.42" fill="#a8a8a3" stroke="#a8a8a3" stroke-width="0.3"/><polygon points="122.11,40.92 121.62,41.10 124.56,43.75" fill="#cdcdc7" stroke="#cdcdc7" stroke-width="0.3"/><polygon points="119.28,29.72 118.45,29.92 120.00,30.77" fill="#f5d590" stroke="#f5d590" stroke-width="0.3"/><polygon points="126.01,43.20 123.08,40.55 125.52,43.38" fill="#cdcdc7" stroke="#cdcdc7" stroke-width="0.3"/><polygon points="127.09,41.29 127.53,40.41 126.02,26.00" fill="#ecebe4" stroke="#ecebe4" stroke-width="0.3"/><polygon points="117.69,37.70 118.14,38.08 118.14,31.48" fill="#cdb278" stroke="#cdb278" stroke-width="0.3"/><polygon points="121.86,30.06 121.12,29.79 120.00,30.77" fill="#f5d590" stroke="#f5d590" stroke-width="0.3"/><polygon points="117.59,30.67 117.59,37.27 117.69,31.10" fill="#cdb278" stroke="#cdb278" stroke-width="0.3"/><polygon points="121.55,38.22 122.14,37.88 122.14,31.28" fill="#e9cb89" stroke="#e9cb89" stroke-width="0.3"/><polygon points="120.55,23.00 118.97,23.03 120.00,25.75" fill="#f3f2eb" stroke="#f3f2eb" stroke-width="0.3"/><polygon points="120.84,42.75 123.77,45.40 123.87,44.91" fill="#a8a8a3" stroke="#a8a8a3" stroke-width="0.3"/><polygon points="121.14,41.29 121.04,41.78 124.07,43.93" fill="#a8a8a3" stroke="#a8a8a3" stroke-width="0.3"/><polygon points="122.09,23.16 120.55,23.00 120.00,25.75" fill="#f3f2eb" stroke="#f3f2eb" stroke-width="0.3"/><polygon points="121.62,41.10 121.14,41.29 124.07,43.93" fill="#cdcdc7" stroke="#cdcdc7" stroke-width="0.3"/><polygon points="118.45,29.92 117.86,30.26 120.00,30.77" fill="#f5d590" stroke="#f5d590" stroke-width="0.3"/><polygon points="125.52,43.38 122.59,40.74 125.04,43.56" fill="#cdcdc7" stroke="#cdcdc7" stroke-width="0.3"/><polygon points="118.97,23.03 117.46,23.24 120.00,25.75" fill="#f3f2eb" stroke="#f3f2eb" stroke-width="0.3"/><polygon points="122.31,30.44 121.86,30.06 120.00,30.77" fill="#f5d590" stroke="#f5d590" stroke-width="0.3"/><polygon points="123.49,23.49 122.09,23.16 120.00,25.75" fill="#f3f2eb" stroke="#f3f2eb" stroke-width="0.3"/><polygon points="120.94,42.27 123.87,44.91 123.97,44.42" fill="#a8a8a3" stroke="#a8a8a3" stroke-width="0.3"/><polygon points="118.14,38.08 118.88,38.35 118.88,31.75" fill="#cdb278" stroke="#cdb278" stroke-width="0.3"/><polygon points="125.04,43.56 122.11,40.92 124.56,43.75" fill="#cdcdc7" stroke="#cdcdc7" stroke-width="0.3"/><polygon points="120.72,38.43 121.55,38.22 121.55,31.62" fill="#e4c686" stroke="#e4c686" stroke-width="0.3"/><polygon points="117.46,23.24 116.13,23.63 120.00,25.75" fill="#f3f2eb" stroke="#f3f2eb" stroke-width="0.3"/><polygon points="117.86,30.26 117.59,30.67 120.00,30.77" fill="#f5d590" stroke="#f5d590" stroke-width="0.3"/><polygon points="122.14,31.28 122.14,37.88 122.41,30.87" fill="#ebcc8a" stroke="#ebcc8a" stroke-width="0.3"/><polygon points="112.55,40.69 113.14,41.55 114.51,26.90" fill="#cbcac4" stroke="#cbcac4" stroke-width="0.3"/><polygon points="117.69,31.10 117.69,37.70 118.14,31.48" fill="#cdb278" stroke="#cdb278" stroke-width="0.3"/><polygon points="118.88,38.35 119.78,38.47 119.78,31.87" fill="#ceb379" stroke="#ceb379" stroke-width="0.3"/><polygon points="119.78,38.47 120.72,38.43 120.72,31.82" fill="#dabd80" stroke="#dabd80" stroke-width="0.3"/><polygon points="121.04,41.78 123.97,44.42 124.07,43.93" fill="#a8a8a3" stroke="#a8a8a3" stroke-width="0.3"/><polygon points="122.41,30.87 122.31,30.44 120.00,30.77" fill="#f5d590" stroke="#f5d590" stroke-width="0.3"/><polygon points="124.56,43.75 121.62,41.10 124.07,43.93" fill="#cdcdc7" stroke="#cdcdc7" stroke-width="0.3"/><polygon points="124.65,23.98 123.49,23.49 120.00,25.75" fill="#f3f2eb" stroke="#f3f2eb" stroke-width="0.3"/><polygon points="113.98,25.50 112.47,39.79 114.04,26.21" fill="#cbcac4" stroke="#cbcac4" stroke-width="0.3"/><polygon points="117.59,30.67 117.69,31.10 120.00,30.77" fill="#f5d590" stroke="#f5d590" stroke-width="0.3"/><polygon points="116.13,23.63 115.06,24.16 120.00,25.75" fill="#f3f2eb" stroke="#f3f2eb" stroke-width="0.3"/><polygon points="126.02,26.00 127.53,40.41 125.96,25.28" fill="#ebeae3" stroke="#ebeae3" stroke-width="0.3"/><polygon points="121.55,31.62 121.55,38.22 122.14,31.28" fill="#e9cb89" stroke="#e9cb89" stroke-width="0.3"/><polygon points="126.18,42.09 127.09,41.29 125.68,26.70" fill="#ecebe4" stroke="#ecebe4" stroke-width="0.3"/><polygon points="122.14,31.28 122.41,30.87 120.00,30.77" fill="#f5d590" stroke="#f5d590" stroke-width="0.3"/><polygon points="118.14,31.48 118.14,38.08 118.88,31.75" fill="#cdb278" stroke="#cdb278" stroke-width="0.3"/><polygon points="123.77,45.40 123.67,45.89 126.70,48.04" fill="#a8a8a3" stroke="#a8a8a3" stroke-width="0.3"/><polygon points="126.01,43.20 125.52,43.38 128.45,46.02" fill="#cdcdc7" stroke="#cdcdc7" stroke-width="0.3"/><polygon points="125.49,24.59 124.65,23.98 120.00,25.75" fill="#f3f2eb" stroke="#f3f2eb" stroke-width="0.3"/><polygon points="117.69,31.10 118.14,31.48 120.00,30.77" fill="#f5d590" stroke="#f5d590" stroke-width="0.3"/><polygon points="120.72,31.82 120.72,38.43 121.55,31.62" fill="#e4c686" stroke="#e4c686" stroke-width="0.3"/><polygon points="118.88,31.75 118.88,38.35 119.78,31.87" fill="#ceb379" stroke="#ceb379" stroke-width="0.3"/><polygon points="121.55,31.62 122.14,31.28 120.00,30.77" fill="#f5d590" stroke="#f5d590" stroke-width="0.3"/><polygon points="115.06,24.16 114.32,24.79 120.00,25.75" fill="#f3f2eb" stroke="#f3f2eb" stroke-width="0.3"/><polygon points="123.87,44.91 123.77,45.40 126.80,47.55" fill="#a8a8a3" stroke="#a8a8a3" stroke-width="0.3"/><polygon points="125.52,43.38 125.04,43.56 127.97,46.21" fill="#cdcdc7" stroke="#cdcdc7" stroke-width="0.3"/><polygon points="119.78,31.87 119.78,38.47 120.72,31.82" fill="#dabd80" stroke="#dabd80" stroke-width="0.3"/><polygon points="118.14,31.48 118.88,31.75 120.00,30.77" fill="#f5d590" stroke="#f5d590" stroke-width="0.3"/><polygon points="113.14,41.55 114.19,42.31 115.35,27.51" fill="#cbcac4" stroke="#cbcac4" stroke-width="0.3"/><polygon points="120.72,31.82 121.55,31.62 120.00,30.77" fill="#f5d590" stroke="#f5d590" stroke-width="0.3"/><polygon points="123.67,45.89 126.60,48.53 126.70,48.04" fill="#a8a8a3" stroke="#a8a8a3" stroke-width="0.3"/><polygon points="123.97,44.42 123.87,44.91 126.90,47.06" fill="#a8a8a3" stroke="#a8a8a3" stroke-width="0.3"/><polygon points="125.04,43.56 124.56,43.75 127.49,46.39" fill="#cdcdc7" stroke="#cdcdc7" stroke-width="0.3"/><polygon points="118.88,31.75 119.78,31.87 120.00,30.77" fill="#f5d590" stroke="#f5d590" stroke-width="0.3"/><polygon points="128.94,45.84 126.01,43.20 128.45,46.02" fill="#cdcdc7" stroke="#cdcdc7" stroke-width="0.3"/><polygon points="119.78,31.87 120.72,31.82 120.00,30.77" fill="#f5d590" stroke="#f5d590" stroke-width="0.3"/><polygon points="125.96,25.28 125.49,24.59 120.00,25.75" fill="#f3f2eb" stroke="#f3f2eb" stroke-width="0.3"/><polygon points="114.04,26.21 112.55,40.69 114.51,26.90" fill="#cbcac4" stroke="#cbcac4" stroke-width="0.3"/><polygon points="123.77,45.40 126.70,48.04 126.80,47.55" fill="#a8a8a3" stroke="#a8a8a3" stroke-width="0.3"/><polygon points="125.68,26.70 127.09,41.29 126.02,26.00" fill="#ecebe4" stroke="#ecebe4" stroke-width="0.3"/><polygon points="124.07,43.93 123.97,44.42 127.00,46.57" fill="#a8a8a3" stroke="#a8a8a3" stroke-width="0.3"/><polygon points="124.56,43.75 124.07,43.93 127.00,46.57" fill="#cdcdc7" stroke="#cdcdc7" stroke-width="0.3"/><polygon points="124.84,42.75 126.18,42.09 124.94,27.33" fill="#eae9e2" stroke="#eae9e2" stroke-width="0.3"/><polygon points="128.45,46.02 125.52,43.38 127.97,46.21" fill="#cdcdc7" stroke="#cdcdc7" stroke-width="0.3"/><polygon points="114.32,24.79 113.98,25.50 120.00,25.75" fill="#f3f2eb" stroke="#f3f2eb" stroke-width="0.3"/><polygon points="123.87,44.91 126.80,47.55 126.90,47.06" fill="#a8a8a3" stroke="#a8a8a3" stroke-width="0.3"/><polygon points="127.97,46.21 125.04,43.56 127.49,46.39" fill="#cdcdc7" stroke="#cdcdc7" stroke-width="0.3"/><polygon points="114.19,42.31 115.64,42.92 116.51,28.00" fill="#cbcac4" stroke="#cbcac4" stroke-width="0.3"/><polygon points="126.02,26.00 125.96,25.28 120.00,25.75" fill="#f3f2eb" stroke="#f3f2eb" stroke-width="0.3"/><polygon points="123.97,44.42 126.90,47.06 127.00,46.57" fill="#a8a8a3" stroke="#a8a8a3" stroke-width="0.3"/><polygon points="127.49,46.39 124.56,43.75 127.00,46.57" fill="#cdcdc7" stroke="#cdcdc7" stroke-width="0.3"/><polygon points="113.98,25.50 114.04,26.21 120.00,25.75" fill="#f3f2eb" stroke="#f3f2eb" stroke-width="0.3"/><polygon points="123.17,43.23 124.84,42.75 123.87,27.86" fill="#e7e6df" stroke="#e7e6df" stroke-width="0.3"/><polygon points="114.51,26.90 113.14,41.55 115.35,27.51" fill="#cbcac4" stroke="#cbcac4" stroke-width="0.3"/><polygon points="124.94,27.33 126.18,42.09 125.68,26.70" fill="#ecebe4" stroke="#ecebe4" stroke-width="0.3"/><polygon points="126.70,48.04 126.60,48.53 129.63,50.68" fill="#a8a8a3" stroke="#a8a8a3" stroke-width="0.3"/><polygon points="128.94,45.84 128.45,46.02 131.38,48.67" fill="#cdcdc7" stroke="#cdcdc7" stroke-width="0.3"/><polygon points="115.64,42.92 117.39,43.33 117.91,28.33" fill="#cbcac4" stroke="#cbcac4" stroke-width="0.3"/><polygon points="125.68,26.70 126.02,26.00 120.00,25.75" fill="#f3f2eb" stroke="#f3f2eb" stroke-width="0.3"/><polygon points="130.99,50.62 131.47,50.44 131.57,49.95" fill="#b5b5b0" stroke="#b5b5b0" stroke-width="0.3"/><polygon points="126.80,47.55 126.70,48.04 129.73,50.20" fill="#a8a8a3" stroke="#a8a8a3" stroke-width="0.3"/><polygon points="121.29,43.50 123.17,43.23 122.54,28.25" fill="#e1e0da" stroke="#e1e0da" stroke-width="0.3"/><polygon points="128.45,46.02 127.97,46.21 130.90,48.85" fill="#cdcdc7" stroke="#cdcdc7" stroke-width="0.3"/><polygon points="114.04,26.21 114.51,26.90 120.00,25.75" fill="#f3f2eb" stroke="#f3f2eb" stroke-width="0.3"/><polygon points="131.09,50.13 130.99,50.62 131.57,49.95" fill="#b5b5b0" stroke="#b5b5b0" stroke-width="0.3"/><polygon points="130.50,50.81 130.99,50.62 131.09,50.13" fill="#b5b5b0" stroke="#b5b5b0" stroke-width="0.3"/><polygon points="117.39,43.33 119.32,43.53 119.45,28.49" fill="#d3d2cc" stroke="#d3d2cc" stroke-width="0.3"/><polygon points="131.09,50.13 131.57,49.95 131.67,49.46" fill="#b5b5b0" stroke="#b5b5b0" stroke-width="0.3"/><polygon points="126.60,48.53 129.53,51.17 129.63,50.68" fill="#a8a8a3" stroke="#a8a8a3" stroke-width="0.3"/><polygon points="119.32,43.53 121.29,43.50 121.03,28.46" fill="#dbdad3" stroke="#dbdad3" stroke-width="0.3"/><polygon points="126.90,47.06 126.80,47.55 129.83,49.71" fill="#a8a8a3" stroke="#a8a8a3" stroke-width="0.3"/><polygon points="127.97,46.21 127.49,46.39 130.42,49.03" fill="#cdcdc7" stroke="#cdcdc7" stroke-width="0.3"/><polygon points="131.87,48.48 128.94,45.84 131.38,48.67" fill="#cdcdc7" stroke="#cdcdc7" stroke-width="0.3"/><polygon points="130.60,50.32 130.50,50.81 131.09,50.13" fill="#b5b5b0" stroke="#b5b5b0" stroke-width="0.3"/><polygon points="131.18,49.64 131.09,50.13 131.67,49.46" fill="#b5b5b0" stroke="#b5b5b0" stroke-width="0.3"/><polygon points="130.02,50.99 130.50,50.81 130.60,50.32" fill="#b5b5b0" stroke="#b5b5b0" stroke-width="0.3"/><polygon points="130.60,50.32 131.09,50.13 131.18,49.64" fill="#b5b5b0" stroke="#b5b5b0" stroke-width="0.3"/><polygon points="115.35,27.51 114.19,42.31 116.51,28.00" fill="#cbcac4" stroke="#cbcac4" stroke-width="0.3"/><polygon points="131.18,49.64 131.67,49.46 131.77,48.97" fill="#b5b5b0" stroke="#b5b5b0" stroke-width="0.3"/><polygon points="124.94,27.33 125.68,26.70 120.00,25.75" fill="#f3f2eb" stroke="#f3f2eb" stroke-width="0.3"/><polygon points="123.87,27.86 124.84,42.75 124.94,27.33" fill="#eae9e2" stroke="#eae9e2" stroke-width="0.3"/><polygon points="126.70,48.04 129.63,50.68 129.73,50.20" fill="#a8a8a3" stroke="#a8a8a3" stroke-width="0.3"/><polygon points="127.00,46.57 126.90,47.06 129.93,49.22" fill="#a8a8a3" stroke="#a8a8a3" stroke-width="0.3"/><polygon points="127.49,46.39 127.00,46.57 129.93,49.22" fill="#cdcdc7" stroke="#cdcdc7" stroke-width="0.3"/><polygon points="131.38,48.67 128.45,46.02 130.90,48.85" fill="#cdcdc7" stroke="#cdcdc7" stroke-width="0.3"/><polygon points="130.12,50.50 130.02,50.99 130.60,50.32" fill="#b5b5b0" stroke="#b5b5b0" stroke-width="0.3"/><polygon points="130.70,49.83 130.60,50.32 131.18,49.64" fill="#b5b5b0" stroke="#b5b5b0" stroke-width="0.3"/><polygon points="131.28,49.16 131.18,49.64 131.77,48.97" fill="#b5b5b0" stroke="#b5b5b0" stroke-width="0.3"/><polygon points="114.51,26.90 115.35,27.51 120.00,25.75" fill="#f3f2eb" stroke="#f3f2eb" stroke-width="0.3"/><polygon points="129.53,51.17 130.02,50.99 130.12,50.50" fill="#b5b5b0" stroke="#b5b5b0" stroke-width="0.3"/><polygon points="130.12,50.50 130.60,50.32 130.70,49.83" fill="#b5b5b0" stroke="#b5b5b0" stroke-width="0.3"/><polygon points="130.70,49.83 131.18,49.64 131.28,49.16" fill="#b5b5b0" stroke="#b5b5b0" stroke-width="0.3"/><polygon points="131.28,49.16 131.77,48.97 131.87,48.48" fill="#b5b5b0" stroke="#b5b5b0" stroke-width="0.3"/><polygon points="126.80,47.55 129.73,50.20 129.83,49.71" fill="#a8a8a3" stroke="#a8a8a3" stroke-width="0.3"/><polygon points="130.90,48.85 127.97,46.21 130.42,49.03" fill="#cdcdc7" stroke="#cdcdc7" stroke-width="0.3"/><polygon points="129.63,50.68 129.53,51.17 130.12,50.50" fill="#b5b5b0" stroke="#b5b5b0" stroke-width="0.3"/><polygon points="130.22,50.01 130.12,50.50 130.70,49.83" fill="#b5b5b0" stroke="#b5b5b0" stroke-width="0.3"/><polygon points="130.80,49.34 130.70,49.83 131.28,49.16" fill="#b5b5b0" stroke="#b5b5b0" stroke-width="0.3"/><polygon points="131.38,48.67 131.28,49.16 131.87,48.48" fill="#b5b5b0" stroke="#b5b5b0" stroke-width="0.3"/><polygon points="129.63,50.68 130.12,50.50 130.22,50.01" fill="#b5b5b0" stroke="#b5b5b0" stroke-width="0.3"/><polygon points="130.22,50.01 130.70,49.83 130.80,49.34" fill="#b5b5b0" stroke="#b5b5b0" stroke-width="0.3"/><polygon points="130.80,49.34 131.28,49.16 131.38,48.67" fill="#b5b5b0" stroke="#b5b5b0" stroke-width="0.3"/><polygon points="123.87,27.86 124.94,27.33 120.00,25.75" fill="#f3f2eb" stroke="#f3f2eb" stroke-width="0.3"/><polygon points="126.90,47.06 129.83,49.71 129.93,49.22" fill="#a8a8a3" stroke="#a8a8a3" stroke-width="0.3"/><polygon points="130.42,49.03 127.49,46.39 129.93,49.22" fill="#cdcdc7" stroke="#cdcdc7" stroke-width="0.3"/><polygon points="116.51,28.00 115.64,42.92 117.91,28.33" fill="#cbcac4" stroke="#cbcac4" stroke-width="0.3"/><polygon points="129.73,50.20 129.63,50.68 130.22,50.01" fill="#b5b5b0" stroke="#b5b5b0" stroke-width="0.3"/><polygon points="130.32,49.52 130.22,50.01 130.80,49.34" fill="#b5b5b0" stroke="#b5b5b0" stroke-width="0.3"/><polygon points="122.54,28.25 123.17,43.23 123.87,27.86" fill="#e7e6df" stroke="#e7e6df" stroke-width="0.3"/><polygon points="115.35,27.51 116.51,28.00 120.00,25.75" fill="#f3f2eb" stroke="#f3f2eb" stroke-width="0.3"/><polygon points="130.90,48.85 130.80,49.34 131.38,48.67" fill="#b5b5b0" stroke="#b5b5b0" stroke-width="0.3"/><polygon points="129.73,50.20 130.22,50.01 130.32,49.52" fill="#b5b5b0" stroke="#b5b5b0" stroke-width="0.3"/><polygon points="130.32,49.52 130.80,49.34 130.90,48.85" fill="#b5b5b0" stroke="#b5b5b0" stroke-width="0.3"/><polygon points="129.83,49.71 129.73,50.20 130.32,49.52" fill="#b5b5b0" stroke="#b5b5b0" stroke-width="0.3"/><polygon points="130.42,49.03 130.32,49.52 130.90,48.85" fill="#b5b5b0" stroke="#b5b5b0" stroke-width="0.3"/><polygon points="122.54,28.25 123.87,27.86 120.00,25.75" fill="#f3f2eb" stroke="#f3f2eb" stroke-width="0.3"/><polygon points="129.83,49.71 130.32,49.52 130.42,49.03" fill="#b5b5b0" stroke="#b5b5b0" stroke-width="0.3"/><polygon points="117.91,28.33 117.39,43.33 119.45,28.49" fill="#d3d2cc" stroke="#d3d2cc" stroke-width="0.3"/><polygon points="116.51,28.00 117.91,28.33 120.00,25.75" fill="#f3f2eb" stroke="#f3f2eb" stroke-width="0.3"/><polygon points="121.03,28.46 121.29,43.50 122.54,28.25" fill="#e1e0da" stroke="#e1e0da" stroke-width="0.3"/><polygon points="129.93,49.22 129.83,49.71 130.42,49.03" fill="#b5b5b0" stroke="#b5b5b0" stroke-width="0.3"/><polygon points="119.45,28.49 119.32,43.53 121.03,28.46" fill="#dbdad3" stroke="#dbdad3" stroke-width="0.3"/><polygon points="121.03,28.46 122.54,28.25 120.00,25.75" fill="#f3f2eb" stroke="#f3f2eb" stroke-width="0.3"/><polygon points="117.91,28.33 119.45,28.49 120.00,25.75" fill="#f3f2eb" stroke="#f3f2eb" stroke-width="0.3"/><polygon points="119.45,28.49 121.03,28.46 120.00,25.75" fill="#f3f2eb" stroke="#f3f2eb" stroke-width="0.3"/></svg>
