<svg xmlns="http://www.w3.org/2000/svg" viewBox="0 0 240 168"><rect width="240" height="168" fill="#f3f3ec"/><ellipse cx="120" cy="148" rx="77" ry="8" fill="#24352e" opacity=".07"/><polygon points="82.39,68.80 98.63,62.63 98.63,53.41" fill="#e2ded4" stroke="#e2ded4" stroke-width="0.3"/><polygon points="82.39,59.58 98.63,53.41 98.63,44.20" fill="#e2ded4" stroke="#e2ded4" stroke-width="0.3"/><polygon points="82.39,59.58 82.39,68.80 98.63,53.41" fill="#e2ded4" stroke="#e2ded4" stroke-width="0.3"/><polygon points="82.39,50.37 98.63,44.20 98.63,34.99" fill="#e2ded4" stroke="#e2ded4" stroke-width="0.3"/><polygon points="82.39,50.37 82.39,59.58 98.63,44.20" fill="#e2ded4" stroke="#e2ded4" stroke-width="0.3"/><polygon points="66.14,74.97 82.39,68.80 82.39,59.58" fill="#e2ded4" stroke="#e2ded4" stroke-width="0.3"/><polygon points="94.82,23.69 93.55,23.00 78.58,29.86" fill="#f0ebe1" stroke="#f0ebe1" stroke-width="0.3"/><polygon points="96.09,24.39 94.82,23.69 79.85,30.56" fill="#f0ebe1" stroke="#f0ebe1" stroke-width="0.3"/><polygon points="82.39,41.16 98.63,34.99 98.63,25.78" fill="#e2ded4" stroke="#e2ded4" stroke-width="0.3"/><polygon points="82.39,41.16 82.39,50.37 98.63,34.99" fill="#e2ded4" stroke="#e2ded4" stroke-width="0.3"/><polygon points="97.36,25.08 96.09,24.39 81.12,31.25" fill="#f0ebe1" stroke="#f0ebe1" stroke-width="0.3"/><polygon points="93.55,42.90 77.31,49.07 106.78,65.19" fill="#d4d0c7" stroke="#d4d0c7" stroke-width="0.3"/><polygon points="93.55,23.00 77.31,29.17 78.58,29.86" fill="#f0ebe1" stroke="#f0ebe1" stroke-width="0.3"/><polygon points="66.14,65.75 82.39,59.58 82.39,50.37" fill="#e2ded4" stroke="#e2ded4" stroke-width="0.3"/><polygon points="98.63,25.78 97.36,25.08 82.39,31.95" fill="#f0ebe1" stroke="#f0ebe1" stroke-width="0.3"/><polygon points="66.14,65.75 66.14,74.97 82.39,59.58" fill="#e2ded4" stroke="#e2ded4" stroke-width="0.3"/><polygon points="94.82,23.69 78.58,29.86 79.85,30.56" fill="#f0ebe1" stroke="#f0ebe1" stroke-width="0.3"/><polygon points="96.09,24.39 79.85,30.56 81.12,31.25" fill="#f0ebe1" stroke="#f0ebe1" stroke-width="0.3"/><polygon points="82.39,31.95 82.39,41.16 98.63,25.78" fill="#e2ded4" stroke="#e2ded4" stroke-width="0.3"/><polygon points="97.36,25.08 81.12,31.25 82.39,31.95" fill="#f0ebe1" stroke="#f0ebe1" stroke-width="0.3"/><polygon points="66.14,56.54 82.39,50.37 82.39,41.16" fill="#e2ded4" stroke="#e2ded4" stroke-width="0.3"/><polygon points="66.14,56.54 66.14,65.75 82.39,50.37" fill="#e2ded4" stroke="#e2ded4" stroke-width="0.3"/><polygon points="123.02,59.02 93.55,42.90 106.78,65.19" fill="#d4d0c7" stroke="#d4d0c7" stroke-width="0.3"/><polygon points="49.90,81.14 66.14,74.97 66.14,65.75" fill="#e2ded4" stroke="#e2ded4" stroke-width="0.3"/><polygon points="78.58,29.86 77.31,29.17 62.34,36.03" fill="#f0ebe1" stroke="#f0ebe1" stroke-width="0.3"/><polygon points="79.85,30.56 78.58,29.86 63.61,36.73" fill="#f0ebe1" stroke="#f0ebe1" stroke-width="0.3"/><polygon points="66.14,47.33 82.39,41.16 82.39,31.95" fill="#e2ded4" stroke="#e2ded4" stroke-width="0.3"/><polygon points="66.14,47.33 66.14,56.54 82.39,41.16" fill="#e2ded4" stroke="#e2ded4" stroke-width="0.3"/><polygon points="81.12,31.25 79.85,30.56 64.88,37.42" fill="#f0ebe1" stroke="#f0ebe1" stroke-width="0.3"/><polygon points="77.31,49.07 61.07,55.24 90.53,71.36" fill="#d4d0c7" stroke="#d4d0c7" stroke-width="0.3"/><polygon points="77.31,29.17 61.07,35.34 62.34,36.03" fill="#f0ebe1" stroke="#f0ebe1" stroke-width="0.3"/><polygon points="49.90,71.92 66.14,65.75 66.14,56.54" fill="#e2ded4" stroke="#e2ded4" stroke-width="0.3"/><polygon points="82.39,31.95 81.12,31.25 66.14,38.12" fill="#f0ebe1" stroke="#f0ebe1" stroke-width="0.3"/><polygon points="49.90,71.92 49.90,81.14 66.14,65.75" fill="#e2ded4" stroke="#e2ded4" stroke-width="0.3"/><polygon points="78.58,29.86 62.34,36.03 63.61,36.73" fill="#f0ebe1" stroke="#f0ebe1" stroke-width="0.3"/><polygon points="94.45,33.67 80.58,38.94 107.79,53.82" fill="#f2f0e8" stroke="#f2f0e8" stroke-width="0.3"/><polygon points="79.85,30.56 63.61,36.73 64.88,37.42" fill="#f0ebe1" stroke="#f0ebe1" stroke-width="0.3"/><polygon points="66.14,38.12 66.14,47.33 82.39,31.95" fill="#e2ded4" stroke="#e2ded4" stroke-width="0.3"/><polygon points="81.12,31.25 64.88,37.42 66.14,38.12" fill="#f0ebe1" stroke="#f0ebe1" stroke-width="0.3"/><polygon points="49.90,62.71 66.14,56.54 66.14,47.33" fill="#e2ded4" stroke="#e2ded4" stroke-width="0.3"/><polygon points="49.90,62.71 49.90,71.92 66.14,56.54" fill="#e2ded4" stroke="#e2ded4" stroke-width="0.3"/><polygon points="106.78,65.19 77.31,49.07 90.53,71.36" fill="#d4d0c7" stroke="#d4d0c7" stroke-width="0.3"/><polygon points="33.66,87.30 49.90,81.14 49.90,71.92" fill="#e2ded4" stroke="#e2ded4" stroke-width="0.3"/><polygon points="62.34,36.03 61.07,35.34 46.10,42.20" fill="#f0ebe1" stroke="#f0ebe1" stroke-width="0.3"/><polygon points="121.66,48.55 94.45,33.67 107.79,53.82" fill="#f2f0e8" stroke="#f2f0e8" stroke-width="0.3"/><polygon points="63.61,36.73 62.34,36.03 47.37,42.90" fill="#f0ebe1" stroke="#f0ebe1" stroke-width="0.3"/><polygon points="49.90,53.50 66.14,47.33 66.14,38.12" fill="#e2ded4" stroke="#e2ded4" stroke-width="0.3"/><polygon points="49.90,53.50 49.90,62.71 66.14,47.33" fill="#e2ded4" stroke="#e2ded4" stroke-width="0.3"/><polygon points="64.88,37.42 63.61,36.73 48.63,43.59" fill="#f0ebe1" stroke="#f0ebe1" stroke-width="0.3"/><polygon points="28.59,84.53 29.86,85.22 29.86,76.01" fill="#c9c4bc" stroke="#c9c4bc" stroke-width="0.3"/><polygon points="61.07,55.24 44.83,61.41 74.29,77.53" fill="#d4d0c7" stroke="#d4d0c7" stroke-width="0.3"/><polygon points="61.07,35.34 44.83,41.51 46.10,42.20" fill="#f0ebe1" stroke="#f0ebe1" stroke-width="0.3"/><polygon points="28.59,75.32 28.59,84.53 29.86,76.01" fill="#c9c4bc" stroke="#c9c4bc" stroke-width="0.3"/><polygon points="33.66,78.09 49.90,71.92 49.90,62.71" fill="#e2ded4" stroke="#e2ded4" stroke-width="0.3"/><polygon points="66.14,38.12 64.88,37.42 49.90,44.28" fill="#f0ebe1" stroke="#f0ebe1" stroke-width="0.3"/><polygon points="29.86,85.22 31.12,85.92 31.12,76.70" fill="#c9c4bc" stroke="#c9c4bc" stroke-width="0.3"/><polygon points="80.58,38.94 66.71,44.21 93.92,59.09" fill="#f2f0e8" stroke="#f2f0e8" stroke-width="0.3"/><polygon points="33.66,78.09 33.66,87.30 49.90,71.92" fill="#e2ded4" stroke="#e2ded4" stroke-width="0.3"/><polygon points="62.34,36.03 46.10,42.20 47.37,42.90" fill="#f0ebe1" stroke="#f0ebe1" stroke-width="0.3"/><polygon points="29.86,76.01 29.86,85.22 31.12,76.70" fill="#c9c4bc" stroke="#c9c4bc" stroke-width="0.3"/><polygon points="31.12,85.92 32.39,86.61 32.39,77.40" fill="#c9c4bc" stroke="#c9c4bc" stroke-width="0.3"/><polygon points="102.80,36.81 97.44,33.88 92.81,40.60" fill="#dbd6cb" stroke="#dbd6cb" stroke-width="0.3"/><polygon points="97.44,33.88 87.45,37.67 92.81,40.60" fill="#dbd6cb" stroke="#dbd6cb" stroke-width="0.3"/><polygon points="63.61,36.73 47.37,42.90 48.63,43.59" fill="#f0ebe1" stroke="#f0ebe1" stroke-width="0.3"/><polygon points="31.12,76.70 31.12,85.92 32.39,77.40" fill="#c9c4bc" stroke="#c9c4bc" stroke-width="0.3"/><polygon points="32.39,86.61 33.66,87.30 33.66,78.09" fill="#c9c4bc" stroke="#c9c4bc" stroke-width="0.3"/><polygon points="49.90,44.28 49.90,53.50 66.14,38.12" fill="#e2ded4" stroke="#e2ded4" stroke-width="0.3"/><polygon points="28.59,75.32 29.86,76.01 29.86,66.80" fill="#c9c4bc" stroke="#c9c4bc" stroke-width="0.3"/><polygon points="64.88,37.42 48.63,43.59 49.90,44.28" fill="#f0ebe1" stroke="#f0ebe1" stroke-width="0.3"/><polygon points="32.39,77.40 32.39,86.61 33.66,78.09" fill="#c9c4bc" stroke="#c9c4bc" stroke-width="0.3"/><polygon points="28.59,66.10 28.59,75.32 29.86,66.80" fill="#c9c4bc" stroke="#c9c4bc" stroke-width="0.3"/><polygon points="33.66,68.88 49.90,62.71 49.90,53.50" fill="#e2ded4" stroke="#e2ded4" stroke-width="0.3"/><polygon points="29.86,76.01 31.12,76.70 31.12,67.49" fill="#c9c4bc" stroke="#c9c4bc" stroke-width="0.3"/><polygon points="33.66,68.88 33.66,78.09 49.90,62.71" fill="#e2ded4" stroke="#e2ded4" stroke-width="0.3"/><polygon points="90.53,71.36 61.07,55.24 74.29,77.53" fill="#d4d0c7" stroke="#d4d0c7" stroke-width="0.3"/><polygon points="29.86,66.80 29.86,76.01 31.12,67.49" fill="#c9c4bc" stroke="#c9c4bc" stroke-width="0.3"/><polygon points="31.12,76.70 32.39,77.40 32.39,68.19" fill="#c9c4bc" stroke="#c9c4bc" stroke-width="0.3"/><polygon points="107.79,53.82 80.58,38.94 93.92,59.09" fill="#f2f0e8" stroke="#f2f0e8" stroke-width="0.3"/><polygon points="123.02,59.02 106.78,65.19 136.24,81.30" fill="#d4d0c7" stroke="#d4d0c7" stroke-width="0.3"/><polygon points="108.15,39.74 102.80,36.81 98.17,43.54" fill="#dbd6cb" stroke="#dbd6cb" stroke-width="0.3"/><polygon points="31.12,67.49 31.12,76.70 32.39,68.19" fill="#c9c4bc" stroke="#c9c4bc" stroke-width="0.3"/><polygon points="32.39,77.40 33.66,78.09 33.66,68.88" fill="#c9c4bc" stroke="#c9c4bc" stroke-width="0.3"/><polygon points="102.80,36.81 92.81,40.60 98.17,43.54" fill="#dbd6cb" stroke="#dbd6cb" stroke-width="0.3"/><polygon points="46.10,42.20 44.83,41.51 29.86,48.37" fill="#f0ebe1" stroke="#f0ebe1" stroke-width="0.3"/><polygon points="28.59,66.10 29.86,66.80 29.86,57.58" fill="#c9c4bc" stroke="#c9c4bc" stroke-width="0.3"/><polygon points="28.59,80.29 28.59,84.53 58.05,96.41" fill="#b1ada6" stroke="#b1ada6" stroke-width="0.3"/><polygon points="32.39,68.19 32.39,77.40 33.66,68.88" fill="#c9c4bc" stroke="#c9c4bc" stroke-width="0.3"/><polygon points="92.81,40.60 87.45,37.67 82.82,44.40" fill="#dbd6cb" stroke="#dbd6cb" stroke-width="0.3"/><polygon points="28.59,56.89 28.59,66.10 29.86,57.58" fill="#c9c4bc" stroke="#c9c4bc" stroke-width="0.3"/><polygon points="47.37,42.90 46.10,42.20 31.12,49.07" fill="#f0ebe1" stroke="#f0ebe1" stroke-width="0.3"/><polygon points="33.66,59.67 49.90,53.50 49.90,44.28" fill="#e2ded4" stroke="#e2ded4" stroke-width="0.3"/><polygon points="87.45,37.67 77.46,41.47 82.82,44.40" fill="#dbd6cb" stroke="#dbd6cb" stroke-width="0.3"/><polygon points="29.86,66.80 31.12,67.49 31.12,58.28" fill="#c9c4bc" stroke="#c9c4bc" stroke-width="0.3"/><polygon points="33.66,59.67 33.66,68.88 49.90,53.50" fill="#e2ded4" stroke="#e2ded4" stroke-width="0.3"/><polygon points="28.59,76.05 28.59,80.29 58.05,92.17" fill="#b1ada6" stroke="#b1ada6" stroke-width="0.3"/><polygon points="66.71,44.21 52.84,49.48 80.05,64.36" fill="#f2f0e8" stroke="#f2f0e8" stroke-width="0.3"/><polygon points="29.86,57.58 29.86,66.80 31.12,58.28" fill="#c9c4bc" stroke="#c9c4bc" stroke-width="0.3"/><polygon points="48.63,43.59 47.37,42.90 32.39,49.76" fill="#f0ebe1" stroke="#f0ebe1" stroke-width="0.3"/><polygon points="31.12,67.49 32.39,68.19 32.39,58.97" fill="#c9c4bc" stroke="#c9c4bc" stroke-width="0.3"/><polygon points="44.83,61.41 28.59,67.58 58.05,83.70" fill="#d4d0c7" stroke="#d4d0c7" stroke-width="0.3"/><polygon points="44.83,41.51 28.59,47.68 29.86,48.37" fill="#f0ebe1" stroke="#f0ebe1" stroke-width="0.3"/><polygon points="31.12,58.28 31.12,67.49 32.39,58.97" fill="#c9c4bc" stroke="#c9c4bc" stroke-width="0.3"/><polygon points="49.90,44.28 48.63,43.59 33.66,50.45" fill="#f0ebe1" stroke="#f0ebe1" stroke-width="0.3"/><polygon points="32.39,68.19 33.66,68.88 33.66,59.67" fill="#c9c4bc" stroke="#c9c4bc" stroke-width="0.3"/><polygon points="28.59,71.82 28.59,76.05 58.05,87.93" fill="#b1ada6" stroke="#b1ada6" stroke-width="0.3"/><polygon points="28.59,56.89 29.86,57.58 29.86,48.37" fill="#c9c4bc" stroke="#c9c4bc" stroke-width="0.3"/><polygon points="113.51,42.67 108.15,39.74 103.52,46.47" fill="#dbd6cb" stroke="#dbd6cb" stroke-width="0.3"/><polygon points="46.10,42.20 29.86,48.37 31.12,49.07" fill="#f0ebe1" stroke="#f0ebe1" stroke-width="0.3"/><polygon points="152.48,75.13 123.02,59.02 136.24,81.30" fill="#d4d0c7" stroke="#d4d0c7" stroke-width="0.3"/><polygon points="32.39,58.97 32.39,68.19 33.66,59.67" fill="#c9c4bc" stroke="#c9c4bc" stroke-width="0.3"/><polygon points="108.15,39.74 98.17,43.54 103.52,46.47" fill="#dbd6cb" stroke="#dbd6cb" stroke-width="0.3"/><polygon points="28.59,47.68 28.59,56.89 29.86,48.37" fill="#c9c4bc" stroke="#c9c4bc" stroke-width="0.3"/><polygon points="29.86,57.58 31.12,58.28 31.12,49.07" fill="#c9c4bc" stroke="#c9c4bc" stroke-width="0.3"/><polygon points="47.37,42.90 31.12,49.07 32.39,49.76" fill="#f0ebe1" stroke="#f0ebe1" stroke-width="0.3"/><polygon points="98.17,43.54 92.81,40.60 88.18,47.33" fill="#dbd6cb" stroke="#dbd6cb" stroke-width="0.3"/><polygon points="28.59,67.58 28.59,71.82 58.05,83.70" fill="#b1ada6" stroke="#b1ada6" stroke-width="0.3"/><polygon points="33.66,50.45 33.66,59.67 49.90,44.28" fill="#e2ded4" stroke="#e2ded4" stroke-width="0.3"/><polygon points="92.81,40.60 82.82,44.40 88.18,47.33" fill="#dbd6cb" stroke="#dbd6cb" stroke-width="0.3"/><polygon points="29.86,48.37 29.86,57.58 31.12,49.07" fill="#c9c4bc" stroke="#c9c4bc" stroke-width="0.3"/><polygon points="108.88,60.37 118.87,56.58 118.87,53.83" fill="#cecabf" stroke="#cecabf" stroke-width="0.3"/><polygon points="31.12,58.28 32.39,58.97 32.39,49.76" fill="#c9c4bc" stroke="#c9c4bc" stroke-width="0.3"/><polygon points="48.63,43.59 32.39,49.76 33.66,50.45" fill="#f0ebe1" stroke="#f0ebe1" stroke-width="0.3"/><polygon points="82.82,44.40 77.46,41.47 72.83,48.19" fill="#dbd6cb" stroke="#dbd6cb" stroke-width="0.3"/><polygon points="31.12,49.07 31.12,58.28 32.39,49.76" fill="#c9c4bc" stroke="#c9c4bc" stroke-width="0.3"/><polygon points="108.88,57.63 118.87,53.83 118.87,51.09" fill="#cecabf" stroke="#cecabf" stroke-width="0.3"/><polygon points="77.46,41.47 67.47,45.26 72.83,48.19" fill="#dbd6cb" stroke="#dbd6cb" stroke-width="0.3"/><polygon points="93.92,59.09 66.71,44.21 80.05,64.36" fill="#f2f0e8" stroke="#f2f0e8" stroke-width="0.3"/><polygon points="32.39,58.97 33.66,59.67 33.66,50.45" fill="#c9c4bc" stroke="#c9c4bc" stroke-width="0.3"/><polygon points="74.29,77.53 44.83,61.41 58.05,83.70" fill="#d4d0c7" stroke="#d4d0c7" stroke-width="0.3"/><polygon points="28.59,84.53 58.05,100.65 58.05,96.41" fill="#b1ada6" stroke="#b1ada6" stroke-width="0.3"/><polygon points="32.39,49.76 32.39,58.97 33.66,50.45" fill="#c9c4bc" stroke="#c9c4bc" stroke-width="0.3"/><polygon points="108.88,54.88 118.87,51.09 118.87,48.35" fill="#cecabf" stroke="#cecabf" stroke-width="0.3"/><polygon points="108.88,57.63 108.88,60.37 118.87,53.83" fill="#cecabf" stroke="#cecabf" stroke-width="0.3"/><polygon points="38.96,65.33 38.96,68.86 66.17,80.22" fill="#cac9c2" stroke="#cac9c2" stroke-width="0.3"/><polygon points="118.87,45.60 113.51,42.67 108.88,49.40" fill="#dbd6cb" stroke="#dbd6cb" stroke-width="0.3"/><polygon points="106.78,65.19 90.53,71.36 120.00,87.47" fill="#d4d0c7" stroke="#d4d0c7" stroke-width="0.3"/><polygon points="121.66,48.55 107.79,53.82 135.00,68.71" fill="#f2f0e8" stroke="#f2f0e8" stroke-width="0.3"/><polygon points="113.51,42.67 103.52,46.47 108.88,49.40" fill="#dbd6cb" stroke="#dbd6cb" stroke-width="0.3"/><polygon points="108.88,52.14 118.87,48.35 118.87,45.60" fill="#cecabf" stroke="#cecabf" stroke-width="0.3"/><polygon points="108.88,54.88 108.88,57.63 118.87,51.09" fill="#cecabf" stroke="#cecabf" stroke-width="0.3"/><polygon points="28.59,80.29 58.05,96.41 58.05,92.17" fill="#b1ada6" stroke="#b1ada6" stroke-width="0.3"/><polygon points="38.96,61.81 38.96,65.33 66.17,76.69" fill="#cac9c2" stroke="#cac9c2" stroke-width="0.3"/><polygon points="103.52,46.47 98.17,43.54 93.53,50.26" fill="#dbd6cb" stroke="#dbd6cb" stroke-width="0.3"/><polygon points="98.17,43.54 88.18,47.33 93.53,50.26" fill="#dbd6cb" stroke="#dbd6cb" stroke-width="0.3"/><polygon points="52.84,49.48 38.96,54.75 66.17,69.63" fill="#f2f0e8" stroke="#f2f0e8" stroke-width="0.3"/><polygon points="108.88,52.14 108.88,54.88 118.87,48.35" fill="#cecabf" stroke="#cecabf" stroke-width="0.3"/><polygon points="38.96,58.28 38.96,61.81 66.17,73.16" fill="#cac9c2" stroke="#cac9c2" stroke-width="0.3"/><polygon points="88.18,47.33 82.82,44.40 78.19,51.12" fill="#dbd6cb" stroke="#dbd6cb" stroke-width="0.3"/><polygon points="57.49,57.29 57.49,60.03 62.84,60.22" fill="#b7b2a9" stroke="#b7b2a9" stroke-width="0.3"/><polygon points="28.59,76.05 58.05,92.17 58.05,87.93" fill="#b1ada6" stroke="#b1ada6" stroke-width="0.3"/><polygon points="108.88,49.40 108.88,52.14 118.87,45.60" fill="#cecabf" stroke="#cecabf" stroke-width="0.3"/><polygon points="82.82,44.40 72.83,48.19 78.19,51.12" fill="#dbd6cb" stroke="#dbd6cb" stroke-width="0.3"/><polygon points="98.89,64.17 108.88,60.37 108.88,57.63" fill="#cecabf" stroke="#cecabf" stroke-width="0.3"/><polygon points="57.49,54.55 57.49,57.29 62.84,57.48" fill="#b7b2a9" stroke="#b7b2a9" stroke-width="0.3"/><polygon points="57.49,60.03 62.84,62.96 62.84,60.22" fill="#b7b2a9" stroke="#b7b2a9" stroke-width="0.3"/><polygon points="72.83,48.19 67.47,45.26 62.84,51.99" fill="#dbd6cb" stroke="#dbd6cb" stroke-width="0.3"/><polygon points="38.96,54.75 38.96,58.28 66.17,69.63" fill="#cac9c2" stroke="#cac9c2" stroke-width="0.3"/><polygon points="98.89,61.42 108.88,57.63 108.88,54.88" fill="#cecabf" stroke="#cecabf" stroke-width="0.3"/><polygon points="67.47,45.26 57.49,49.06 62.84,51.99" fill="#dbd6cb" stroke="#dbd6cb" stroke-width="0.3"/><polygon points="28.59,71.82 58.05,87.93 58.05,83.70" fill="#b1ada6" stroke="#b1ada6" stroke-width="0.3"/><polygon points="57.49,51.80 57.49,54.55 62.84,54.73" fill="#b7b2a9" stroke="#b7b2a9" stroke-width="0.3"/><polygon points="57.49,57.29 62.84,60.22 62.84,57.48" fill="#b7b2a9" stroke="#b7b2a9" stroke-width="0.3"/><polygon points="136.24,81.30 106.78,65.19 120.00,87.47" fill="#d4d0c7" stroke="#d4d0c7" stroke-width="0.3"/><polygon points="148.87,63.44 121.66,48.55 135.00,68.71" fill="#f2f0e8" stroke="#f2f0e8" stroke-width="0.3"/><polygon points="98.89,58.68 108.88,54.88 108.88,52.14" fill="#cecabf" stroke="#cecabf" stroke-width="0.3"/><polygon points="98.89,61.42 98.89,64.17 108.88,57.63" fill="#cecabf" stroke="#cecabf" stroke-width="0.3"/><polygon points="108.88,49.40 103.52,46.47 98.89,53.19" fill="#dbd6cb" stroke="#dbd6cb" stroke-width="0.3"/><polygon points="57.49,49.06 57.49,51.80 62.84,51.99" fill="#b7b2a9" stroke="#b7b2a9" stroke-width="0.3"/><polygon points="57.49,54.55 62.84,57.48 62.84,54.73" fill="#b7b2a9" stroke="#b7b2a9" stroke-width="0.3"/><polygon points="103.52,46.47 93.53,50.26 98.89,53.19" fill="#dbd6cb" stroke="#dbd6cb" stroke-width="0.3"/><polygon points="98.89,55.93 108.88,52.14 108.88,49.40" fill="#cecabf" stroke="#cecabf" stroke-width="0.3"/><polygon points="98.89,58.68 98.89,61.42 108.88,54.88" fill="#cecabf" stroke="#cecabf" stroke-width="0.3"/><polygon points="80.05,64.36 52.84,49.48 66.17,69.63" fill="#f2f0e8" stroke="#f2f0e8" stroke-width="0.3"/><polygon points="38.96,68.86 66.17,83.75 66.17,80.22" fill="#cac9c2" stroke="#cac9c2" stroke-width="0.3"/><polygon points="57.49,51.80 62.84,54.73 62.84,51.99" fill="#b7b2a9" stroke="#b7b2a9" stroke-width="0.3"/><polygon points="93.53,50.26 88.18,47.33 83.55,54.05" fill="#dbd6cb" stroke="#dbd6cb" stroke-width="0.3"/><polygon points="62.84,60.22 62.84,62.96 68.20,63.15" fill="#b7b2a9" stroke="#b7b2a9" stroke-width="0.3"/><polygon points="88.18,47.33 78.19,51.12 83.55,54.05" fill="#dbd6cb" stroke="#dbd6cb" stroke-width="0.3"/><polygon points="98.89,55.93 98.89,58.68 108.88,52.14" fill="#cecabf" stroke="#cecabf" stroke-width="0.3"/><polygon points="62.84,57.48 62.84,60.22 68.20,60.41" fill="#b7b2a9" stroke="#b7b2a9" stroke-width="0.3"/><polygon points="62.84,62.96 68.20,65.89 68.20,63.15" fill="#b7b2a9" stroke="#b7b2a9" stroke-width="0.3"/><polygon points="38.96,65.33 66.17,80.22 66.17,76.69" fill="#cac9c2" stroke="#cac9c2" stroke-width="0.3"/><polygon points="78.19,51.12 72.83,48.19 68.20,54.92" fill="#dbd6cb" stroke="#dbd6cb" stroke-width="0.3"/><polygon points="107.79,53.82 93.92,59.09 121.13,73.98" fill="#f2f0e8" stroke="#f2f0e8" stroke-width="0.3"/><polygon points="98.89,53.19 98.89,55.93 108.88,49.40" fill="#cecabf" stroke="#cecabf" stroke-width="0.3"/><polygon points="72.83,48.19 62.84,51.99 68.20,54.92" fill="#dbd6cb" stroke="#dbd6cb" stroke-width="0.3"/><polygon points="88.90,67.96 98.89,64.17 98.89,61.42" fill="#cecabf" stroke="#cecabf" stroke-width="0.3"/><polygon points="62.84,54.73 62.84,57.48 68.20,57.66" fill="#b7b2a9" stroke="#b7b2a9" stroke-width="0.3"/><polygon points="62.84,60.22 68.20,63.15 68.20,60.41" fill="#b7b2a9" stroke="#b7b2a9" stroke-width="0.3"/><polygon points="90.53,71.36 74.29,77.53 103.76,93.64" fill="#d4d0c7" stroke="#d4d0c7" stroke-width="0.3"/><polygon points="38.96,61.81 66.17,76.69 66.17,73.16" fill="#cac9c2" stroke="#cac9c2" stroke-width="0.3"/><polygon points="88.90,65.22 98.89,61.42 98.89,58.68" fill="#cecabf" stroke="#cecabf" stroke-width="0.3"/><polygon points="62.84,51.99 62.84,54.73 68.20,54.92" fill="#b7b2a9" stroke="#b7b2a9" stroke-width="0.3"/><polygon points="62.84,57.48 68.20,60.41 68.20,57.66" fill="#b7b2a9" stroke="#b7b2a9" stroke-width="0.3"/><polygon points="38.96,58.28 66.17,73.16 66.17,69.63" fill="#cac9c2" stroke="#cac9c2" stroke-width="0.3"/><polygon points="88.90,62.47 98.89,58.68 98.89,55.93" fill="#cecabf" stroke="#cecabf" stroke-width="0.3"/><polygon points="88.90,65.22 88.90,67.96 98.89,61.42" fill="#cecabf" stroke="#cecabf" stroke-width="0.3"/><polygon points="62.84,54.73 68.20,57.66 68.20,54.92" fill="#b7b2a9" stroke="#b7b2a9" stroke-width="0.3"/><polygon points="98.89,53.19 93.53,50.26 88.90,56.98" fill="#dbd6cb" stroke="#dbd6cb" stroke-width="0.3"/><polygon points="68.20,63.15 68.20,65.89 73.56,66.08" fill="#b7b2a9" stroke="#b7b2a9" stroke-width="0.3"/><polygon points="93.53,50.26 83.55,54.05 88.90,56.98" fill="#dbd6cb" stroke="#dbd6cb" stroke-width="0.3"/><polygon points="88.90,59.73 98.89,55.93 98.89,53.19" fill="#cecabf" stroke="#cecabf" stroke-width="0.3"/><polygon points="88.90,62.47 88.90,65.22 98.89,58.68" fill="#cecabf" stroke="#cecabf" stroke-width="0.3"/><polygon points="68.20,60.41 68.20,63.15 73.56,63.34" fill="#b7b2a9" stroke="#b7b2a9" stroke-width="0.3"/><polygon points="68.20,65.89 73.56,68.83 73.56,66.08" fill="#b7b2a9" stroke="#b7b2a9" stroke-width="0.3"/><polygon points="83.55,54.05 78.19,51.12 73.56,57.85" fill="#dbd6cb" stroke="#dbd6cb" stroke-width="0.3"/><polygon points="135.00,68.71 107.79,53.82 121.13,73.98" fill="#f2f0e8" stroke="#f2f0e8" stroke-width="0.3"/><polygon points="78.19,51.12 68.20,54.92 73.56,57.85" fill="#dbd6cb" stroke="#dbd6cb" stroke-width="0.3"/><polygon points="88.90,59.73 88.90,62.47 98.89,55.93" fill="#cecabf" stroke="#cecabf" stroke-width="0.3"/><polygon points="68.20,57.66 68.20,60.41 73.56,60.59" fill="#b7b2a9" stroke="#b7b2a9" stroke-width="0.3"/><polygon points="68.20,63.15 73.56,66.08 73.56,63.34" fill="#b7b2a9" stroke="#b7b2a9" stroke-width="0.3"/><polygon points="120.00,87.47 90.53,71.36 103.76,93.64" fill="#d4d0c7" stroke="#d4d0c7" stroke-width="0.3"/><polygon points="88.90,56.98 88.90,59.73 98.89,53.19" fill="#cecabf" stroke="#cecabf" stroke-width="0.3"/><polygon points="78.92,71.76 88.90,67.96 88.90,65.22" fill="#cecabf" stroke="#cecabf" stroke-width="0.3"/><polygon points="68.20,54.92 68.20,57.66 73.56,57.85" fill="#b7b2a9" stroke="#b7b2a9" stroke-width="0.3"/><polygon points="68.20,60.41 73.56,63.34 73.56,60.59" fill="#b7b2a9" stroke="#b7b2a9" stroke-width="0.3"/><polygon points="152.48,75.13 136.24,81.30 165.71,97.42" fill="#d4d0c7" stroke="#d4d0c7" stroke-width="0.3"/><polygon points="78.92,69.01 88.90,65.22 88.90,62.47" fill="#cecabf" stroke="#cecabf" stroke-width="0.3"/><polygon points="68.20,57.66 73.56,60.59 73.56,57.85" fill="#b7b2a9" stroke="#b7b2a9" stroke-width="0.3"/><polygon points="73.56,66.08 73.56,68.83 78.92,69.01" fill="#b7b2a9" stroke="#b7b2a9" stroke-width="0.3"/><polygon points="58.05,96.41 58.05,100.65 87.52,112.53" fill="#b1ada6" stroke="#b1ada6" stroke-width="0.3"/><polygon points="93.92,59.09 80.05,64.36 107.26,79.25" fill="#f2f0e8" stroke="#f2f0e8" stroke-width="0.3"/><polygon points="78.92,66.27 88.90,62.47 88.90,59.73" fill="#cecabf" stroke="#cecabf" stroke-width="0.3"/><polygon points="78.92,69.01 78.92,71.76 88.90,65.22" fill="#cecabf" stroke="#cecabf" stroke-width="0.3"/><polygon points="73.56,63.34 73.56,66.08 78.92,66.27" fill="#b7b2a9" stroke="#b7b2a9" stroke-width="0.3"/><polygon points="73.56,68.83 78.92,71.76 78.92,69.01" fill="#b7b2a9" stroke="#b7b2a9" stroke-width="0.3"/><polygon points="88.90,56.98 83.55,54.05 78.92,60.78" fill="#dbd6cb" stroke="#dbd6cb" stroke-width="0.3"/><polygon points="83.55,54.05 73.56,57.85 78.92,60.78" fill="#dbd6cb" stroke="#dbd6cb" stroke-width="0.3"/><polygon points="78.92,63.52 88.90,59.73 88.90,56.98" fill="#cecabf" stroke="#cecabf" stroke-width="0.3"/><polygon points="58.05,92.17 58.05,96.41 87.52,108.29" fill="#b1ada6" stroke="#b1ada6" stroke-width="0.3"/><polygon points="78.92,66.27 78.92,69.01 88.90,62.47" fill="#cecabf" stroke="#cecabf" stroke-width="0.3"/><polygon points="73.56,60.59 73.56,63.34 78.92,63.52" fill="#b7b2a9" stroke="#b7b2a9" stroke-width="0.3"/><polygon points="73.56,66.08 78.92,69.01 78.92,66.27" fill="#b7b2a9" stroke="#b7b2a9" stroke-width="0.3"/><polygon points="74.29,77.53 58.05,83.70 87.52,99.81" fill="#d4d0c7" stroke="#d4d0c7" stroke-width="0.3"/><polygon points="78.92,63.52 78.92,66.27 88.90,59.73" fill="#cecabf" stroke="#cecabf" stroke-width="0.3"/><polygon points="73.56,57.85 73.56,60.59 78.92,60.78" fill="#b7b2a9" stroke="#b7b2a9" stroke-width="0.3"/><polygon points="73.56,63.34 78.92,66.27 78.92,63.52" fill="#b7b2a9" stroke="#b7b2a9" stroke-width="0.3"/><polygon points="58.05,87.93 58.05,92.17 87.52,104.05" fill="#b1ada6" stroke="#b1ada6" stroke-width="0.3"/><polygon points="181.95,91.25 152.48,75.13 165.71,97.42" fill="#d4d0c7" stroke="#d4d0c7" stroke-width="0.3"/><polygon points="78.92,60.78 78.92,63.52 88.90,56.98" fill="#cecabf" stroke="#cecabf" stroke-width="0.3"/><polygon points="73.56,60.59 78.92,63.52 78.92,60.78" fill="#b7b2a9" stroke="#b7b2a9" stroke-width="0.3"/><polygon points="121.13,73.98 93.92,59.09 107.26,79.25" fill="#f2f0e8" stroke="#f2f0e8" stroke-width="0.3"/><polygon points="58.05,83.70 58.05,87.93 87.52,99.81" fill="#b1ada6" stroke="#b1ada6" stroke-width="0.3"/><polygon points="66.17,80.22 66.17,83.75 93.38,95.10" fill="#cac9c2" stroke="#cac9c2" stroke-width="0.3"/><polygon points="148.87,63.44 135.00,68.71 162.21,83.59" fill="#f2f0e8" stroke="#f2f0e8" stroke-width="0.3"/><polygon points="66.17,76.69 66.17,80.22 93.38,91.57" fill="#cac9c2" stroke="#cac9c2" stroke-width="0.3"/><polygon points="103.76,93.64 74.29,77.53 87.52,99.81" fill="#d4d0c7" stroke="#d4d0c7" stroke-width="0.3"/><polygon points="58.05,100.65 87.52,116.76 87.52,112.53" fill="#b1ada6" stroke="#b1ada6" stroke-width="0.3"/><polygon points="80.05,64.36 66.17,69.63 93.38,84.52" fill="#f2f0e8" stroke="#f2f0e8" stroke-width="0.3"/><polygon points="136.24,81.30 120.00,87.47 149.47,103.59" fill="#d4d0c7" stroke="#d4d0c7" stroke-width="0.3"/><polygon points="66.17,73.16 66.17,76.69 93.38,88.05" fill="#cac9c2" stroke="#cac9c2" stroke-width="0.3"/><polygon points="58.05,96.41 87.52,112.53 87.52,108.29" fill="#b1ada6" stroke="#b1ada6" stroke-width="0.3"/><polygon points="66.17,69.63 66.17,73.16 93.38,84.52" fill="#cac9c2" stroke="#cac9c2" stroke-width="0.3"/><polygon points="58.05,92.17 87.52,108.29 87.52,104.05" fill="#b1ada6" stroke="#b1ada6" stroke-width="0.3"/><polygon points="176.08,78.32 148.87,63.44 162.21,83.59" fill="#f2f0e8" stroke="#f2f0e8" stroke-width="0.3"/><polygon points="58.05,87.93 87.52,104.05 87.52,99.81" fill="#b1ada6" stroke="#b1ada6" stroke-width="0.3"/><polygon points="107.26,79.25 80.05,64.36 93.38,84.52" fill="#f2f0e8" stroke="#f2f0e8" stroke-width="0.3"/><polygon points="66.17,83.75 93.38,98.63 93.38,95.10" fill="#cac9c2" stroke="#cac9c2" stroke-width="0.3"/><polygon points="165.71,97.42 136.24,81.30 149.47,103.59" fill="#d4d0c7" stroke="#d4d0c7" stroke-width="0.3"/><polygon points="66.17,80.22 93.38,95.10 93.38,91.57" fill="#cac9c2" stroke="#cac9c2" stroke-width="0.3"/><polygon points="135.00,68.71 121.13,73.98 148.34,88.86" fill="#f2f0e8" stroke="#f2f0e8" stroke-width="0.3"/><polygon points="66.17,76.69 93.38,91.57 93.38,88.05" fill="#cac9c2" stroke="#cac9c2" stroke-width="0.3"/><polygon points="66.17,73.16 93.38,88.05 93.38,84.52" fill="#cac9c2" stroke="#cac9c2" stroke-width="0.3"/><polygon points="120.00,87.47 103.76,93.64 133.22,109.76" fill="#d4d0c7" stroke="#d4d0c7" stroke-width="0.3"/><polygon points="162.21,83.59 135.00,68.71 148.34,88.86" fill="#f2f0e8" stroke="#f2f0e8" stroke-width="0.3"/><polygon points="121.13,73.98 107.26,79.25 134.46,94.13" fill="#f2f0e8" stroke="#f2f0e8" stroke-width="0.3"/><polygon points="149.47,103.59 120.00,87.47 133.22,109.76" fill="#d4d0c7" stroke="#d4d0c7" stroke-width="0.3"/><polygon points="181.95,91.25 165.71,97.42 195.17,113.54" fill="#d4d0c7" stroke="#d4d0c7" stroke-width="0.3"/><polygon points="87.52,112.53 87.52,116.76 116.98,128.64" fill="#b1ada6" stroke="#b1ada6" stroke-width="0.3"/><polygon points="87.52,108.29 87.52,112.53 116.98,124.41" fill="#b1ada6" stroke="#b1ada6" stroke-width="0.3"/><polygon points="103.76,93.64 87.52,99.81 116.98,115.93" fill="#d4d0c7" stroke="#d4d0c7" stroke-width="0.3"/><polygon points="148.34,88.86 121.13,73.98 134.46,94.13" fill="#f2f0e8" stroke="#f2f0e8" stroke-width="0.3"/><polygon points="87.52,104.05 87.52,108.29 116.98,120.17" fill="#b1ada6" stroke="#b1ada6" stroke-width="0.3"/><polygon points="211.41,107.37 181.95,91.25 195.17,113.54" fill="#d4d0c7" stroke="#d4d0c7" stroke-width="0.3"/><polygon points="93.38,95.10 93.38,98.63 120.59,109.99" fill="#cac9c2" stroke="#cac9c2" stroke-width="0.3"/><polygon points="176.08,78.32 162.21,83.59 189.42,98.48" fill="#f2f0e8" stroke="#f2f0e8" stroke-width="0.3"/><polygon points="87.52,99.81 87.52,104.05 116.98,115.93" fill="#b1ada6" stroke="#b1ada6" stroke-width="0.3"/><polygon points="93.38,91.57 93.38,95.10 120.59,106.46" fill="#cac9c2" stroke="#cac9c2" stroke-width="0.3"/><polygon points="195.17,130.49 211.41,124.32 211.41,120.08" fill="#c8c4bb" stroke="#c8c4bb" stroke-width="0.3"/><polygon points="107.26,79.25 93.38,84.52 120.59,99.40" fill="#f2f0e8" stroke="#f2f0e8" stroke-width="0.3"/><polygon points="93.38,88.05 93.38,91.57 120.59,102.93" fill="#cac9c2" stroke="#cac9c2" stroke-width="0.3"/><polygon points="133.22,109.76 103.76,93.64 116.98,115.93" fill="#d4d0c7" stroke="#d4d0c7" stroke-width="0.3"/><polygon points="195.17,126.25 211.41,120.08 211.41,115.85" fill="#c8c4bb" stroke="#c8c4bb" stroke-width="0.3"/><polygon points="87.52,116.76 116.98,132.88 116.98,128.64" fill="#b1ada6" stroke="#b1ada6" stroke-width="0.3"/><polygon points="165.71,97.42 149.47,103.59 178.93,119.71" fill="#d4d0c7" stroke="#d4d0c7" stroke-width="0.3"/><polygon points="93.38,84.52 93.38,88.05 120.59,99.40" fill="#cac9c2" stroke="#cac9c2" stroke-width="0.3"/><polygon points="195.17,122.02 211.41,115.85 211.41,111.61" fill="#c8c4bb" stroke="#c8c4bb" stroke-width="0.3"/><polygon points="87.52,112.53 116.98,128.64 116.98,124.41" fill="#b1ada6" stroke="#b1ada6" stroke-width="0.3"/><polygon points="195.17,126.25 195.17,130.49 211.41,120.08" fill="#c8c4bb" stroke="#c8c4bb" stroke-width="0.3"/><polygon points="203.29,93.21 176.08,78.32 189.42,98.48" fill="#f2f0e8" stroke="#f2f0e8" stroke-width="0.3"/><polygon points="195.17,117.78 211.41,111.61 211.41,107.37" fill="#c8c4bb" stroke="#c8c4bb" stroke-width="0.3"/><polygon points="87.52,108.29 116.98,124.41 116.98,120.17" fill="#b1ada6" stroke="#b1ada6" stroke-width="0.3"/><polygon points="134.46,94.13 107.26,79.25 120.59,99.40" fill="#f2f0e8" stroke="#f2f0e8" stroke-width="0.3"/><polygon points="93.38,98.63 120.59,113.51 120.59,109.99" fill="#cac9c2" stroke="#cac9c2" stroke-width="0.3"/><polygon points="195.17,122.02 195.17,126.25 211.41,115.85" fill="#c8c4bb" stroke="#c8c4bb" stroke-width="0.3"/><polygon points="189.42,112.59 203.29,107.32 203.29,103.79" fill="#e4e2db" stroke="#e4e2db" stroke-width="0.3"/><polygon points="93.38,95.10 120.59,109.99 120.59,106.46" fill="#cac9c2" stroke="#cac9c2" stroke-width="0.3"/><polygon points="87.52,104.05 116.98,120.17 116.98,115.93" fill="#b1ada6" stroke="#b1ada6" stroke-width="0.3"/><polygon points="162.21,83.59 148.34,88.86 175.55,103.75" fill="#f2f0e8" stroke="#f2f0e8" stroke-width="0.3"/><polygon points="195.17,117.78 195.17,122.02 211.41,111.61" fill="#c8c4bb" stroke="#c8c4bb" stroke-width="0.3"/><polygon points="195.17,113.54 165.71,97.42 178.93,119.71" fill="#d4d0c7" stroke="#d4d0c7" stroke-width="0.3"/><polygon points="189.42,109.06 203.29,103.79 203.29,100.26" fill="#e4e2db" stroke="#e4e2db" stroke-width="0.3"/><polygon points="93.38,91.57 120.59,106.46 120.59,102.93" fill="#cac9c2" stroke="#cac9c2" stroke-width="0.3"/><polygon points="195.17,113.54 195.17,117.78 211.41,107.37" fill="#c8c4bb" stroke="#c8c4bb" stroke-width="0.3"/><polygon points="189.42,105.53 203.29,100.26 203.29,96.73" fill="#e4e2db" stroke="#e4e2db" stroke-width="0.3"/><polygon points="189.42,109.06 189.42,112.59 203.29,103.79" fill="#e4e2db" stroke="#e4e2db" stroke-width="0.3"/><polygon points="178.93,136.66 195.17,130.49 195.17,126.25" fill="#c8c4bb" stroke="#c8c4bb" stroke-width="0.3"/><polygon points="93.38,88.05 120.59,102.93 120.59,99.40" fill="#cac9c2" stroke="#cac9c2" stroke-width="0.3"/><polygon points="189.42,102.00 203.29,96.73 203.29,93.21" fill="#e4e2db" stroke="#e4e2db" stroke-width="0.3"/><polygon points="189.42,105.53 189.42,109.06 203.29,100.26" fill="#e4e2db" stroke="#e4e2db" stroke-width="0.3"/><polygon points="178.93,132.42 195.17,126.25 195.17,122.02" fill="#c8c4bb" stroke="#c8c4bb" stroke-width="0.3"/><polygon points="149.47,103.59 133.22,109.76 162.69,125.88" fill="#d4d0c7" stroke="#d4d0c7" stroke-width="0.3"/><polygon points="189.42,98.48 162.21,83.59 175.55,103.75" fill="#f2f0e8" stroke="#f2f0e8" stroke-width="0.3"/><polygon points="189.42,102.00 189.42,105.53 203.29,96.73" fill="#e4e2db" stroke="#e4e2db" stroke-width="0.3"/><polygon points="178.93,128.19 195.17,122.02 195.17,117.78" fill="#c8c4bb" stroke="#c8c4bb" stroke-width="0.3"/><polygon points="178.93,132.42 178.93,136.66 195.17,126.25" fill="#c8c4bb" stroke="#c8c4bb" stroke-width="0.3"/><polygon points="189.42,98.48 189.42,102.00 203.29,93.21" fill="#e4e2db" stroke="#e4e2db" stroke-width="0.3"/><polygon points="175.55,117.86 189.42,112.59 189.42,109.06" fill="#e4e2db" stroke="#e4e2db" stroke-width="0.3"/><polygon points="178.93,123.95 195.17,117.78 195.17,113.54" fill="#c8c4bb" stroke="#c8c4bb" stroke-width="0.3"/><polygon points="178.93,128.19 178.93,132.42 195.17,122.02" fill="#c8c4bb" stroke="#c8c4bb" stroke-width="0.3"/><polygon points="148.34,88.86 134.46,94.13 161.67,109.02" fill="#f2f0e8" stroke="#f2f0e8" stroke-width="0.3"/><polygon points="175.55,114.33 189.42,109.06 189.42,105.53" fill="#e4e2db" stroke="#e4e2db" stroke-width="0.3"/><polygon points="178.93,123.95 178.93,128.19 195.17,117.78" fill="#c8c4bb" stroke="#c8c4bb" stroke-width="0.3"/><polygon points="178.93,119.71 149.47,103.59 162.69,125.88" fill="#d4d0c7" stroke="#d4d0c7" stroke-width="0.3"/><polygon points="175.55,110.80 189.42,105.53 189.42,102.00" fill="#e4e2db" stroke="#e4e2db" stroke-width="0.3"/><polygon points="175.55,114.33 175.55,117.86 189.42,109.06" fill="#e4e2db" stroke="#e4e2db" stroke-width="0.3"/><polygon points="178.93,119.71 178.93,123.95 195.17,113.54" fill="#c8c4bb" stroke="#c8c4bb" stroke-width="0.3"/><polygon points="175.55,107.27 189.42,102.00 189.42,98.48" fill="#e4e2db" stroke="#e4e2db" stroke-width="0.3"/><polygon points="116.98,128.64 116.98,132.88 146.45,144.76" fill="#b1ada6" stroke="#b1ada6" stroke-width="0.3"/><polygon points="175.55,110.80 175.55,114.33 189.42,105.53" fill="#e4e2db" stroke="#e4e2db" stroke-width="0.3"/><polygon points="162.69,142.83 178.93,136.66 178.93,132.42" fill="#c8c4bb" stroke="#c8c4bb" stroke-width="0.3"/><polygon points="175.55,103.75 148.34,88.86 161.67,109.02" fill="#f2f0e8" stroke="#f2f0e8" stroke-width="0.3"/><polygon points="175.55,107.27 175.55,110.80 189.42,102.00" fill="#e4e2db" stroke="#e4e2db" stroke-width="0.3"/><polygon points="116.98,124.41 116.98,128.64 146.45,140.52" fill="#b1ada6" stroke="#b1ada6" stroke-width="0.3"/><polygon points="162.69,138.59 178.93,132.42 178.93,128.19" fill="#c8c4bb" stroke="#c8c4bb" stroke-width="0.3"/><polygon points="120.59,109.99 120.59,113.51 147.80,124.87" fill="#cac9c2" stroke="#cac9c2" stroke-width="0.3"/><polygon points="133.22,109.76 116.98,115.93 146.45,132.05" fill="#d4d0c7" stroke="#d4d0c7" stroke-width="0.3"/><polygon points="175.55,103.75 175.55,107.27 189.42,98.48" fill="#e4e2db" stroke="#e4e2db" stroke-width="0.3"/><polygon points="116.98,120.17 116.98,124.41 146.45,136.29" fill="#b1ada6" stroke="#b1ada6" stroke-width="0.3"/><polygon points="162.69,134.35 178.93,128.19 178.93,123.95" fill="#c8c4bb" stroke="#c8c4bb" stroke-width="0.3"/><polygon points="161.67,123.13 175.55,117.86 175.55,114.33" fill="#e4e2db" stroke="#e4e2db" stroke-width="0.3"/><polygon points="120.59,106.46 120.59,109.99 147.80,121.34" fill="#cac9c2" stroke="#cac9c2" stroke-width="0.3"/><polygon points="162.69,138.59 162.69,142.83 178.93,132.42" fill="#c8c4bb" stroke="#c8c4bb" stroke-width="0.3"/><polygon points="134.46,94.13 120.59,99.40 147.80,114.29" fill="#f2f0e8" stroke="#f2f0e8" stroke-width="0.3"/><polygon points="161.67,119.60 175.55,114.33 175.55,110.80" fill="#e4e2db" stroke="#e4e2db" stroke-width="0.3"/><polygon points="116.98,115.93 116.98,120.17 146.45,132.05" fill="#b1ada6" stroke="#b1ada6" stroke-width="0.3"/><polygon points="120.59,102.93 120.59,106.46 147.80,117.81" fill="#cac9c2" stroke="#cac9c2" stroke-width="0.3"/><polygon points="162.69,130.12 178.93,123.95 178.93,119.71" fill="#c8c4bb" stroke="#c8c4bb" stroke-width="0.3"/><polygon points="162.69,134.35 162.69,138.59 178.93,128.19" fill="#c8c4bb" stroke="#c8c4bb" stroke-width="0.3"/><polygon points="161.67,116.07 175.55,110.80 175.55,107.27" fill="#e4e2db" stroke="#e4e2db" stroke-width="0.3"/><polygon points="120.59,99.40 120.59,102.93 147.80,114.29" fill="#cac9c2" stroke="#cac9c2" stroke-width="0.3"/><polygon points="161.67,119.60 161.67,123.13 175.55,114.33" fill="#e4e2db" stroke="#e4e2db" stroke-width="0.3"/><polygon points="162.69,130.12 162.69,134.35 178.93,123.95" fill="#c8c4bb" stroke="#c8c4bb" stroke-width="0.3"/><polygon points="162.69,125.88 133.22,109.76 146.45,132.05" fill="#d4d0c7" stroke="#d4d0c7" stroke-width="0.3"/><polygon points="116.98,132.88 146.45,149.00 146.45,144.76" fill="#b1ada6" stroke="#b1ada6" stroke-width="0.3"/><polygon points="161.67,112.54 175.55,107.27 175.55,103.75" fill="#e4e2db" stroke="#e4e2db" stroke-width="0.3"/><polygon points="161.67,116.07 161.67,119.60 175.55,110.80" fill="#e4e2db" stroke="#e4e2db" stroke-width="0.3"/><polygon points="162.69,125.88 162.69,130.12 178.93,119.71" fill="#c8c4bb" stroke="#c8c4bb" stroke-width="0.3"/><polygon points="161.67,109.02 134.46,94.13 147.80,114.29" fill="#f2f0e8" stroke="#f2f0e8" stroke-width="0.3"/><polygon points="116.98,128.64 146.45,144.76 146.45,140.52" fill="#b1ada6" stroke="#b1ada6" stroke-width="0.3"/><polygon points="120.59,113.51 147.80,128.40 147.80,124.87" fill="#cac9c2" stroke="#cac9c2" stroke-width="0.3"/><polygon points="161.67,112.54 161.67,116.07 175.55,107.27" fill="#e4e2db" stroke="#e4e2db" stroke-width="0.3"/><polygon points="146.45,149.00 162.69,142.83 162.69,138.59" fill="#c8c4bb" stroke="#c8c4bb" stroke-width="0.3"/><polygon points="120.59,109.99 147.80,124.87 147.80,121.34" fill="#cac9c2" stroke="#cac9c2" stroke-width="0.3"/><polygon points="161.67,109.02 161.67,112.54 175.55,103.75" fill="#e4e2db" stroke="#e4e2db" stroke-width="0.3"/><polygon points="116.98,124.41 146.45,140.52 146.45,136.29" fill="#b1ada6" stroke="#b1ada6" stroke-width="0.3"/><polygon points="146.45,144.76 162.69,138.59 162.69,134.35" fill="#c8c4bb" stroke="#c8c4bb" stroke-width="0.3"/><polygon points="147.80,128.40 161.67,123.13 161.67,119.60" fill="#e4e2db" stroke="#e4e2db" stroke-width="0.3"/><polygon points="120.59,106.46 147.80,121.34 147.80,117.81" fill="#cac9c2" stroke="#cac9c2" stroke-width="0.3"/><polygon points="116.98,120.17 146.45,136.29 146.45,132.05" fill="#b1ada6" stroke="#b1ada6" stroke-width="0.3"/><polygon points="146.45,140.52 162.69,134.35 162.69,130.12" fill="#c8c4bb" stroke="#c8c4bb" stroke-width="0.3"/><polygon points="147.80,124.87 161.67,119.60 161.67,116.07" fill="#e4e2db" stroke="#e4e2db" stroke-width="0.3"/><polygon points="146.45,144.76 146.45,149.00 162.69,138.59" fill="#c8c4bb" stroke="#c8c4bb" stroke-width="0.3"/><polygon points="120.59,102.93 147.80,117.81 147.80,114.29" fill="#cac9c2" stroke="#cac9c2" stroke-width="0.3"/><polygon points="147.80,121.34 161.67,116.07 161.67,112.54" fill="#e4e2db" stroke="#e4e2db" stroke-width="0.3"/><polygon points="146.45,136.29 162.69,130.12 162.69,125.88" fill="#c8c4bb" stroke="#c8c4bb" stroke-width="0.3"/><polygon points="147.80,124.87 147.80,128.40 161.67,119.60" fill="#e4e2db" stroke="#e4e2db" stroke-width="0.3"/><polygon points="146.45,140.52 146.45,144.76 162.69,134.35" fill="#c8c4bb" stroke="#c8c4bb" stroke-width="0.3"/><polygon points="147.80,117.81 161.67,112.54 161.67,109.02" fill="#e4e2db" stroke="#e4e2db" stroke-width="0.3"/><polygon points="147.80,121.34 147.80,124.87 161.67,116.07" fill="#e4e2db" stroke="#e4e2db" stroke-width="0.3"/><polygon points="146.45,136.29 146.45,140.52 162.69,130.12" fill="#c8c4bb" stroke="#c8c4bb" stroke-width="0.3"/><polygon points="147.80,117.81 147.80,121.34 161.67,112.54" fill="#e4e2db" stroke="#e4e2db" stroke-width="0.3"/><polygon points="146.45,132.05 146.45,136.29 162.69,125.88" fill="#c8c4bb" stroke="#c8c4bb" stroke-width="0.3"/><polygon points="147.80,114.29 147.80,117.81 161.67,109.02" fill="#e4e2db" stroke="#e4e2db" stroke-width="0.3"/></svg>
