<svg xmlns="http://www.w3.org/2000/svg" viewBox="0 0 240 168"><rect width="240" height="168" fill="#f3f3ec"/><ellipse cx="120" cy="148" rx="77" ry="8" fill="#24352e" opacity=".07"/><polygon points="133.99,129.25 134.23,128.82 132.46,108.30" fill="#b3885d" stroke="#b3885d" stroke-width="0.3"/><polygon points="133.74,129.68 133.99,129.25 132.21,108.73" fill="#b3885d" stroke="#b3885d" stroke-width="0.3"/><polygon points="133.50,130.11 133.74,129.68 131.97,109.17" fill="#b3885d" stroke="#b3885d" stroke-width="0.3"/><polygon points="130.52,130.09 131.21,130.20 129.43,109.69" fill="#9b7650" stroke="#9b7650" stroke-width="0.3"/><polygon points="131.21,130.20 131.89,130.31 130.11,109.80" fill="#9b7650" stroke="#9b7650" stroke-width="0.3"/><polygon points="133.25,130.54 133.50,130.11 131.72,109.60" fill="#b3885d" stroke="#b3885d" stroke-width="0.3"/><polygon points="131.89,130.31 132.57,130.43 130.80,109.92" fill="#9b7650" stroke="#9b7650" stroke-width="0.3"/><polygon points="132.57,130.43 133.25,130.54 131.48,110.03" fill="#9b7650" stroke="#9b7650" stroke-width="0.3"/><polygon points="132.21,108.73 133.99,129.25 132.46,108.30" fill="#b3885d" stroke="#b3885d" stroke-width="0.3"/><polygon points="131.97,109.17 133.74,129.68 132.21,108.73" fill="#b3885d" stroke="#b3885d" stroke-width="0.3"/><polygon points="128.75,109.57 130.52,130.09 129.43,109.69" fill="#9b7650" stroke="#9b7650" stroke-width="0.3"/><polygon points="131.72,109.60 133.50,130.11 131.97,109.17" fill="#b3885d" stroke="#b3885d" stroke-width="0.3"/><polygon points="129.43,109.69 131.21,130.20 130.11,109.80" fill="#9b7650" stroke="#9b7650" stroke-width="0.3"/><polygon points="130.11,109.80 131.89,130.31 130.80,109.92" fill="#9b7650" stroke="#9b7650" stroke-width="0.3"/><polygon points="131.48,110.03 133.25,130.54 131.72,109.60" fill="#b3885d" stroke="#b3885d" stroke-width="0.3"/><polygon points="130.80,109.92 132.57,130.43 131.48,110.03" fill="#9b7650" stroke="#9b7650" stroke-width="0.3"/><polygon points="132.21,108.73 132.46,108.30 130.69,87.79" fill="#b3885d" stroke="#b3885d" stroke-width="0.3"/><polygon points="131.97,109.17 132.21,108.73 130.44,88.22" fill="#b3885d" stroke="#b3885d" stroke-width="0.3"/><polygon points="131.72,109.60 131.97,109.17 130.20,88.65" fill="#b3885d" stroke="#b3885d" stroke-width="0.3"/><polygon points="128.75,109.57 129.43,109.69 127.66,89.18" fill="#9b7650" stroke="#9b7650" stroke-width="0.3"/><polygon points="129.43,109.69 130.11,109.80 128.34,89.29" fill="#9b7650" stroke="#9b7650" stroke-width="0.3"/><polygon points="131.48,110.03 131.72,109.60 129.95,89.09" fill="#b3885d" stroke="#b3885d" stroke-width="0.3"/><polygon points="130.11,109.80 130.80,109.92 129.02,89.40" fill="#9b7650" stroke="#9b7650" stroke-width="0.3"/><polygon points="130.80,109.92 131.48,110.03 129.71,89.52" fill="#9b7650" stroke="#9b7650" stroke-width="0.3"/><polygon points="130.44,88.22 132.21,108.73 130.69,87.79" fill="#b3885d" stroke="#b3885d" stroke-width="0.3"/><polygon points="130.20,88.65 131.97,109.17 130.44,88.22" fill="#b3885d" stroke="#b3885d" stroke-width="0.3"/><polygon points="98.44,140.92 98.56,141.25 103.62,118.14" fill="#9b7650" stroke="#9b7650" stroke-width="0.3"/><polygon points="126.98,89.06 128.75,109.57 127.66,89.18" fill="#9b7650" stroke="#9b7650" stroke-width="0.3"/><polygon points="129.95,89.09 131.72,109.60 130.20,88.65" fill="#b3885d" stroke="#b3885d" stroke-width="0.3"/><polygon points="127.66,89.18 129.43,109.69 128.34,89.29" fill="#9b7650" stroke="#9b7650" stroke-width="0.3"/><polygon points="128.34,89.29 130.11,109.80 129.02,89.40" fill="#9b7650" stroke="#9b7650" stroke-width="0.3"/><polygon points="98.56,141.25 98.68,141.57 103.74,118.47" fill="#9b7650" stroke="#9b7650" stroke-width="0.3"/><polygon points="129.71,89.52 131.48,110.03 129.95,89.09" fill="#b3885d" stroke="#b3885d" stroke-width="0.3"/><polygon points="129.02,89.40 130.80,109.92 129.71,89.52" fill="#9b7650" stroke="#9b7650" stroke-width="0.3"/><polygon points="98.68,141.57 98.81,141.90 103.87,118.79" fill="#9b7650" stroke="#9b7650" stroke-width="0.3"/><polygon points="101.03,142.44 101.74,142.51 106.79,119.41" fill="#a77f56" stroke="#a77f56" stroke-width="0.3"/><polygon points="100.33,142.37 101.03,142.44 106.09,119.33" fill="#a77f56" stroke="#a77f56" stroke-width="0.3"/><polygon points="99.63,142.30 100.33,142.37 105.39,119.26" fill="#a77f56" stroke="#a77f56" stroke-width="0.3"/><polygon points="98.81,141.90 98.93,142.23 103.99,119.12" fill="#9b7650" stroke="#9b7650" stroke-width="0.3"/><polygon points="98.93,142.23 99.63,142.30 104.69,119.19" fill="#a77f56" stroke="#a77f56" stroke-width="0.3"/><polygon points="103.49,117.81 98.44,140.92 103.62,118.14" fill="#9b7650" stroke="#9b7650" stroke-width="0.3"/><polygon points="103.62,118.14 98.56,141.25 103.74,118.47" fill="#9b7650" stroke="#9b7650" stroke-width="0.3"/><polygon points="103.74,118.47 98.68,141.57 103.87,118.79" fill="#9b7650" stroke="#9b7650" stroke-width="0.3"/><polygon points="106.09,119.33 101.03,142.44 106.79,119.41" fill="#a77f56" stroke="#a77f56" stroke-width="0.3"/><polygon points="103.87,118.79 98.81,141.90 103.99,119.12" fill="#9b7650" stroke="#9b7650" stroke-width="0.3"/><polygon points="105.39,119.26 100.33,142.37 106.09,119.33" fill="#a77f56" stroke="#a77f56" stroke-width="0.3"/><polygon points="104.69,119.19 99.63,142.30 105.39,119.26" fill="#a77f56" stroke="#a77f56" stroke-width="0.3"/><polygon points="103.99,119.12 98.93,142.23 104.69,119.19" fill="#a77f56" stroke="#a77f56" stroke-width="0.3"/><polygon points="130.44,88.22 130.69,87.79 128.92,67.28" fill="#b3885d" stroke="#b3885d" stroke-width="0.3"/><polygon points="130.20,88.65 130.44,88.22 128.67,67.71" fill="#b3885d" stroke="#b3885d" stroke-width="0.3"/><polygon points="129.95,89.09 130.20,88.65 128.42,68.14" fill="#b3885d" stroke="#b3885d" stroke-width="0.3"/><polygon points="126.98,89.06 127.66,89.18 125.89,68.66" fill="#9b7650" stroke="#9b7650" stroke-width="0.3"/><polygon points="103.49,117.81 103.62,118.14 108.68,95.03" fill="#9b7650" stroke="#9b7650" stroke-width="0.3"/><polygon points="127.66,89.18 128.34,89.29 126.57,68.78" fill="#9b7650" stroke="#9b7650" stroke-width="0.3"/><polygon points="129.71,89.52 129.95,89.09 128.18,68.57" fill="#b3885d" stroke="#b3885d" stroke-width="0.3"/><polygon points="128.34,89.29 129.02,89.40 127.25,68.89" fill="#9b7650" stroke="#9b7650" stroke-width="0.3"/><polygon points="103.62,118.14 103.74,118.47 108.80,95.36" fill="#9b7650" stroke="#9b7650" stroke-width="0.3"/><polygon points="129.02,89.40 129.71,89.52 127.93,69.01" fill="#9b7650" stroke="#9b7650" stroke-width="0.3"/><polygon points="103.74,118.47 103.87,118.79 108.92,95.68" fill="#9b7650" stroke="#9b7650" stroke-width="0.3"/><polygon points="106.09,119.33 106.79,119.41 111.85,96.30" fill="#a77f56" stroke="#a77f56" stroke-width="0.3"/><polygon points="105.39,119.26 106.09,119.33 111.15,96.23" fill="#a77f56" stroke="#a77f56" stroke-width="0.3"/><polygon points="137.51,148.51 137.97,148.63 134.68,124.13" fill="#9b7650" stroke="#9b7650" stroke-width="0.3"/><polygon points="104.69,119.19 105.39,119.26 110.45,96.16" fill="#a77f56" stroke="#a77f56" stroke-width="0.3"/><polygon points="103.87,118.79 103.99,119.12 109.05,96.01" fill="#9b7650" stroke="#9b7650" stroke-width="0.3"/><polygon points="103.99,119.12 104.69,119.19 109.75,96.08" fill="#a77f56" stroke="#a77f56" stroke-width="0.3"/><polygon points="141.01,148.36 141.56,148.15 138.28,123.65" fill="#b58a5e" stroke="#b58a5e" stroke-width="0.3"/><polygon points="137.97,148.63 138.42,148.76 135.14,124.25" fill="#9b7650" stroke="#9b7650" stroke-width="0.3"/><polygon points="140.45,148.58 141.01,148.36 137.72,123.86" fill="#b58a5e" stroke="#b58a5e" stroke-width="0.3"/><polygon points="138.42,148.76 138.88,148.88 135.59,124.37" fill="#9b7650" stroke="#9b7650" stroke-width="0.3"/><polygon points="139.89,148.79 140.45,148.58 137.16,124.07" fill="#b58a5e" stroke="#b58a5e" stroke-width="0.3"/><polygon points="139.33,149.00 139.89,148.79 136.60,124.28" fill="#b58a5e" stroke="#b58a5e" stroke-width="0.3"/><polygon points="138.88,148.88 139.33,149.00 136.05,124.49" fill="#9b7650" stroke="#9b7650" stroke-width="0.3"/><polygon points="108.55,94.71 103.49,117.81 108.68,95.03" fill="#9b7650" stroke="#9b7650" stroke-width="0.3"/><polygon points="108.68,95.03 103.62,118.14 108.80,95.36" fill="#9b7650" stroke="#9b7650" stroke-width="0.3"/><polygon points="134.22,124.01 137.51,148.51 134.68,124.13" fill="#9b7650" stroke="#9b7650" stroke-width="0.3"/><polygon points="128.67,67.71 130.44,88.22 128.92,67.28" fill="#b3885d" stroke="#b3885d" stroke-width="0.3"/><polygon points="108.80,95.36 103.74,118.47 108.92,95.68" fill="#9b7650" stroke="#9b7650" stroke-width="0.3"/><polygon points="128.42,68.14 130.20,88.65 128.67,67.71" fill="#b3885d" stroke="#b3885d" stroke-width="0.3"/><polygon points="134.68,124.13 137.97,148.63 135.14,124.25" fill="#9b7650" stroke="#9b7650" stroke-width="0.3"/><polygon points="137.72,123.86 141.01,148.36 138.28,123.65" fill="#b58a5e" stroke="#b58a5e" stroke-width="0.3"/><polygon points="111.15,96.23 106.09,119.33 111.85,96.30" fill="#a77f56" stroke="#a77f56" stroke-width="0.3"/><polygon points="125.21,68.55 126.98,89.06 125.89,68.66" fill="#9b7650" stroke="#9b7650" stroke-width="0.3"/><polygon points="108.92,95.68 103.87,118.79 109.05,96.01" fill="#9b7650" stroke="#9b7650" stroke-width="0.3"/><polygon points="137.16,124.07 140.45,148.58 137.72,123.86" fill="#b58a5e" stroke="#b58a5e" stroke-width="0.3"/><polygon points="128.18,68.57 129.95,89.09 128.42,68.14" fill="#b3885d" stroke="#b3885d" stroke-width="0.3"/><polygon points="110.45,96.16 105.39,119.26 111.15,96.23" fill="#a77f56" stroke="#a77f56" stroke-width="0.3"/><polygon points="135.14,124.25 138.42,148.76 135.59,124.37" fill="#9b7650" stroke="#9b7650" stroke-width="0.3"/><polygon points="125.89,68.66 127.66,89.18 126.57,68.78" fill="#9b7650" stroke="#9b7650" stroke-width="0.3"/><polygon points="109.75,96.08 104.69,119.19 110.45,96.16" fill="#a77f56" stroke="#a77f56" stroke-width="0.3"/><polygon points="126.57,68.78 128.34,89.29 127.25,68.89" fill="#9b7650" stroke="#9b7650" stroke-width="0.3"/><polygon points="109.05,96.01 103.99,119.12 109.75,96.08" fill="#a77f56" stroke="#a77f56" stroke-width="0.3"/><polygon points="136.60,124.28 139.89,148.79 137.16,124.07" fill="#b58a5e" stroke="#b58a5e" stroke-width="0.3"/><polygon points="127.93,69.01 129.71,89.52 128.18,68.57" fill="#b3885d" stroke="#b3885d" stroke-width="0.3"/><polygon points="127.25,68.89 129.02,89.40 127.93,69.01" fill="#9b7650" stroke="#9b7650" stroke-width="0.3"/><polygon points="135.59,124.37 138.88,148.88 136.05,124.49" fill="#9b7650" stroke="#9b7650" stroke-width="0.3"/><polygon points="136.05,124.49 139.33,149.00 136.60,124.28" fill="#b58a5e" stroke="#b58a5e" stroke-width="0.3"/><polygon points="134.22,124.01 134.68,124.13 131.39,99.62" fill="#9b7650" stroke="#9b7650" stroke-width="0.3"/><polygon points="137.72,123.86 138.28,123.65 134.99,99.14" fill="#b58a5e" stroke="#b58a5e" stroke-width="0.3"/><polygon points="134.68,124.13 135.14,124.25 131.85,99.74" fill="#9b7650" stroke="#9b7650" stroke-width="0.3"/><polygon points="137.16,124.07 137.72,123.86 134.43,99.35" fill="#b58a5e" stroke="#b58a5e" stroke-width="0.3"/><polygon points="108.55,94.71 108.68,95.03 113.74,71.92" fill="#9b7650" stroke="#9b7650" stroke-width="0.3"/><polygon points="135.14,124.25 135.59,124.37 132.30,99.86" fill="#9b7650" stroke="#9b7650" stroke-width="0.3"/><polygon points="136.60,124.28 137.16,124.07 133.88,99.56" fill="#b58a5e" stroke="#b58a5e" stroke-width="0.3"/><polygon points="136.05,124.49 136.60,124.28 133.32,99.77" fill="#b58a5e" stroke="#b58a5e" stroke-width="0.3"/><polygon points="108.68,95.03 108.80,95.36 113.86,72.25" fill="#9b7650" stroke="#9b7650" stroke-width="0.3"/><polygon points="135.59,124.37 136.05,124.49 132.76,99.99" fill="#9b7650" stroke="#9b7650" stroke-width="0.3"/><polygon points="108.80,95.36 108.92,95.68 113.98,72.58" fill="#9b7650" stroke="#9b7650" stroke-width="0.3"/><polygon points="111.15,96.23 111.85,96.30 116.91,73.19" fill="#a77f56" stroke="#a77f56" stroke-width="0.3"/><polygon points="130.94,99.50 134.22,124.01 131.39,99.62" fill="#9b7650" stroke="#9b7650" stroke-width="0.3"/><polygon points="110.45,96.16 111.15,96.23 116.21,73.12" fill="#a77f56" stroke="#a77f56" stroke-width="0.3"/><polygon points="109.75,96.08 110.45,96.16 115.51,73.05" fill="#a77f56" stroke="#a77f56" stroke-width="0.3"/><polygon points="108.92,95.68 109.05,96.01 114.11,72.90" fill="#9b7650" stroke="#9b7650" stroke-width="0.3"/><polygon points="109.05,96.01 109.75,96.08 114.81,72.98" fill="#a77f56" stroke="#a77f56" stroke-width="0.3"/><polygon points="131.39,99.62 134.68,124.13 131.85,99.74" fill="#9b7650" stroke="#9b7650" stroke-width="0.3"/><polygon points="134.43,99.35 137.72,123.86 134.99,99.14" fill="#b58a5e" stroke="#b58a5e" stroke-width="0.3"/><polygon points="133.88,99.56 137.16,124.07 134.43,99.35" fill="#b58a5e" stroke="#b58a5e" stroke-width="0.3"/><polygon points="131.85,99.74 135.14,124.25 132.30,99.86" fill="#9b7650" stroke="#9b7650" stroke-width="0.3"/><polygon points="133.32,99.77 136.60,124.28 133.88,99.56" fill="#b58a5e" stroke="#b58a5e" stroke-width="0.3"/><polygon points="132.30,99.86 135.59,124.37 132.76,99.99" fill="#9b7650" stroke="#9b7650" stroke-width="0.3"/><polygon points="113.61,71.60 108.55,94.71 113.74,71.92" fill="#9b7650" stroke="#9b7650" stroke-width="0.3"/><polygon points="132.76,99.99 136.05,124.49 133.32,99.77" fill="#b58a5e" stroke="#b58a5e" stroke-width="0.3"/><polygon points="128.67,67.71 128.92,67.28 127.14,46.77" fill="#b3885d" stroke="#b3885d" stroke-width="0.3"/><polygon points="113.74,71.92 108.68,95.03 113.86,72.25" fill="#9b7650" stroke="#9b7650" stroke-width="0.3"/><polygon points="128.42,68.14 128.67,67.71 126.90,47.20" fill="#b3885d" stroke="#b3885d" stroke-width="0.3"/><polygon points="113.86,72.25 108.80,95.36 113.98,72.58" fill="#9b7650" stroke="#9b7650" stroke-width="0.3"/><polygon points="128.18,68.57 128.42,68.14 126.65,47.63" fill="#b3885d" stroke="#b3885d" stroke-width="0.3"/><polygon points="125.21,68.55 125.89,68.66 124.12,48.15" fill="#9b7650" stroke="#9b7650" stroke-width="0.3"/><polygon points="116.21,73.12 111.15,96.23 116.91,73.19" fill="#a77f56" stroke="#a77f56" stroke-width="0.3"/><polygon points="125.89,68.66 126.57,68.78 124.80,48.26" fill="#9b7650" stroke="#9b7650" stroke-width="0.3"/><polygon points="113.98,72.58 108.92,95.68 114.11,72.90" fill="#9b7650" stroke="#9b7650" stroke-width="0.3"/><polygon points="115.51,73.05 110.45,96.16 116.21,73.12" fill="#a77f56" stroke="#a77f56" stroke-width="0.3"/><polygon points="127.93,69.01 128.18,68.57 126.41,48.06" fill="#b3885d" stroke="#b3885d" stroke-width="0.3"/><polygon points="126.57,68.78 127.25,68.89 125.48,48.38" fill="#9b7650" stroke="#9b7650" stroke-width="0.3"/><polygon points="114.81,72.98 109.75,96.08 115.51,73.05" fill="#a77f56" stroke="#a77f56" stroke-width="0.3"/><polygon points="114.11,72.90 109.05,96.01 114.81,72.98" fill="#a77f56" stroke="#a77f56" stroke-width="0.3"/><polygon points="127.25,68.89 127.93,69.01 126.16,48.49" fill="#9b7650" stroke="#9b7650" stroke-width="0.3"/><polygon points="130.94,99.50 131.39,99.62 128.11,75.11" fill="#9b7650" stroke="#9b7650" stroke-width="0.3"/><polygon points="134.43,99.35 134.99,99.14 131.70,74.63" fill="#b58a5e" stroke="#b58a5e" stroke-width="0.3"/><polygon points="131.39,99.62 131.85,99.74 128.56,75.24" fill="#9b7650" stroke="#9b7650" stroke-width="0.3"/><polygon points="133.88,99.56 134.43,99.35 131.15,74.84" fill="#b58a5e" stroke="#b58a5e" stroke-width="0.3"/><polygon points="131.85,99.74 132.30,99.86 129.02,75.36" fill="#9b7650" stroke="#9b7650" stroke-width="0.3"/><polygon points="133.32,99.77 133.88,99.56 130.59,75.06" fill="#b58a5e" stroke="#b58a5e" stroke-width="0.3"/><polygon points="132.76,99.99 133.32,99.77 130.03,75.27" fill="#b58a5e" stroke="#b58a5e" stroke-width="0.3"/><polygon points="132.30,99.86 132.76,99.99 129.47,75.48" fill="#9b7650" stroke="#9b7650" stroke-width="0.3"/><polygon points="126.90,47.20 128.67,67.71 127.14,46.77" fill="#b3885d" stroke="#b3885d" stroke-width="0.3"/><polygon points="127.65,74.99 130.94,99.50 128.11,75.11" fill="#9b7650" stroke="#9b7650" stroke-width="0.3"/><polygon points="126.65,47.63 128.42,68.14 126.90,47.20" fill="#b3885d" stroke="#b3885d" stroke-width="0.3"/><polygon points="128.11,75.11 131.39,99.62 128.56,75.24" fill="#9b7650" stroke="#9b7650" stroke-width="0.3"/><polygon points="123.44,48.04 125.21,68.55 124.12,48.15" fill="#9b7650" stroke="#9b7650" stroke-width="0.3"/><polygon points="131.15,74.84 134.43,99.35 131.70,74.63" fill="#b58a5e" stroke="#b58a5e" stroke-width="0.3"/><polygon points="126.41,48.06 128.18,68.57 126.65,47.63" fill="#b3885d" stroke="#b3885d" stroke-width="0.3"/><polygon points="124.12,48.15 125.89,68.66 124.80,48.26" fill="#9b7650" stroke="#9b7650" stroke-width="0.3"/><polygon points="130.59,75.06 133.88,99.56 131.15,74.84" fill="#b58a5e" stroke="#b58a5e" stroke-width="0.3"/><polygon points="124.80,48.26 126.57,68.78 125.48,48.38" fill="#9b7650" stroke="#9b7650" stroke-width="0.3"/><polygon points="128.56,75.24 131.85,99.74 129.02,75.36" fill="#9b7650" stroke="#9b7650" stroke-width="0.3"/><polygon points="113.61,71.60 113.74,71.92 118.80,48.82" fill="#9b7650" stroke="#9b7650" stroke-width="0.3"/><polygon points="126.16,48.49 127.93,69.01 126.41,48.06" fill="#b3885d" stroke="#b3885d" stroke-width="0.3"/><polygon points="125.48,48.38 127.25,68.89 126.16,48.49" fill="#9b7650" stroke="#9b7650" stroke-width="0.3"/><polygon points="130.03,75.27 133.32,99.77 130.59,75.06" fill="#b58a5e" stroke="#b58a5e" stroke-width="0.3"/><polygon points="129.02,75.36 132.30,99.86 129.47,75.48" fill="#9b7650" stroke="#9b7650" stroke-width="0.3"/><polygon points="113.74,71.92 113.86,72.25 118.92,49.14" fill="#9b7650" stroke="#9b7650" stroke-width="0.3"/><polygon points="129.47,75.48 132.76,99.99 130.03,75.27" fill="#b58a5e" stroke="#b58a5e" stroke-width="0.3"/><polygon points="113.86,72.25 113.98,72.58 119.04,49.47" fill="#9b7650" stroke="#9b7650" stroke-width="0.3"/><polygon points="116.21,73.12 116.91,73.19 121.97,50.08" fill="#a77f56" stroke="#a77f56" stroke-width="0.3"/><polygon points="115.51,73.05 116.21,73.12 121.27,50.01" fill="#a77f56" stroke="#a77f56" stroke-width="0.3"/><polygon points="114.81,72.98 115.51,73.05 120.57,49.94" fill="#a77f56" stroke="#a77f56" stroke-width="0.3"/><polygon points="113.98,72.58 114.11,72.90 119.17,49.80" fill="#9b7650" stroke="#9b7650" stroke-width="0.3"/><polygon points="114.11,72.90 114.81,72.98 119.87,49.87" fill="#a77f56" stroke="#a77f56" stroke-width="0.3"/><polygon points="125.10,46.42 124.42,46.31 124.17,46.74" fill="#ba8e61" stroke="#ba8e61" stroke-width="0.3"/><polygon points="125.78,46.54 125.10,46.42 124.85,46.85" fill="#ba8e61" stroke="#ba8e61" stroke-width="0.3"/><polygon points="124.85,46.85 125.10,46.42 124.17,46.74" fill="#ba8e61" stroke="#ba8e61" stroke-width="0.3"/><polygon points="126.46,46.65 125.78,46.54 125.54,46.97" fill="#ba8e61" stroke="#ba8e61" stroke-width="0.3"/><polygon points="125.54,46.97 125.78,46.54 124.85,46.85" fill="#ba8e61" stroke="#ba8e61" stroke-width="0.3"/><polygon points="124.85,46.85 124.17,46.74 123.93,47.17" fill="#ba8e61" stroke="#ba8e61" stroke-width="0.3"/><polygon points="118.67,48.49 113.61,71.60 118.80,48.82" fill="#9b7650" stroke="#9b7650" stroke-width="0.3"/><polygon points="127.14,46.77 126.46,46.65 126.22,47.08" fill="#ba8e61" stroke="#ba8e61" stroke-width="0.3"/><polygon points="126.22,47.08 126.46,46.65 125.54,46.97" fill="#ba8e61" stroke="#ba8e61" stroke-width="0.3"/><polygon points="125.54,46.97 124.85,46.85 124.61,47.29" fill="#ba8e61" stroke="#ba8e61" stroke-width="0.3"/><polygon points="124.61,47.29 124.85,46.85 123.93,47.17" fill="#ba8e61" stroke="#ba8e61" stroke-width="0.3"/><polygon points="126.90,47.20 127.14,46.77 126.22,47.08" fill="#ba8e61" stroke="#ba8e61" stroke-width="0.3"/><polygon points="126.22,47.08 125.54,46.97 125.29,47.40" fill="#ba8e61" stroke="#ba8e61" stroke-width="0.3"/><polygon points="125.29,47.40 125.54,46.97 124.61,47.29" fill="#ba8e61" stroke="#ba8e61" stroke-width="0.3"/><polygon points="124.61,47.29 123.93,47.17 123.68,47.60" fill="#ba8e61" stroke="#ba8e61" stroke-width="0.3"/><polygon points="126.90,47.20 126.22,47.08 125.97,47.51" fill="#ba8e61" stroke="#ba8e61" stroke-width="0.3"/><polygon points="125.97,47.51 126.22,47.08 125.29,47.40" fill="#ba8e61" stroke="#ba8e61" stroke-width="0.3"/><polygon points="118.80,48.82 113.74,71.92 118.92,49.14" fill="#9b7650" stroke="#9b7650" stroke-width="0.3"/><polygon points="125.29,47.40 124.61,47.29 124.36,47.72" fill="#ba8e61" stroke="#ba8e61" stroke-width="0.3"/><polygon points="124.36,47.72 124.61,47.29 123.68,47.60" fill="#ba8e61" stroke="#ba8e61" stroke-width="0.3"/><polygon points="126.65,47.63 126.90,47.20 125.97,47.51" fill="#ba8e61" stroke="#ba8e61" stroke-width="0.3"/><polygon points="125.97,47.51 125.29,47.40 125.04,47.83" fill="#ba8e61" stroke="#ba8e61" stroke-width="0.3"/><polygon points="125.04,47.83 125.29,47.40 124.36,47.72" fill="#ba8e61" stroke="#ba8e61" stroke-width="0.3"/><polygon points="124.36,47.72 123.68,47.60 123.44,48.04" fill="#ba8e61" stroke="#ba8e61" stroke-width="0.3"/><polygon points="127.65,74.99 128.11,75.11 124.82,50.61" fill="#9b7650" stroke="#9b7650" stroke-width="0.3"/><polygon points="126.65,47.63 125.97,47.51 125.73,47.95" fill="#ba8e61" stroke="#ba8e61" stroke-width="0.3"/><polygon points="125.73,47.95 125.97,47.51 125.04,47.83" fill="#ba8e61" stroke="#ba8e61" stroke-width="0.3"/><polygon points="125.04,47.83 124.36,47.72 124.12,48.15" fill="#ba8e61" stroke="#ba8e61" stroke-width="0.3"/><polygon points="124.12,48.15 124.36,47.72 123.44,48.04" fill="#ba8e61" stroke="#ba8e61" stroke-width="0.3"/><polygon points="118.92,49.14 113.86,72.25 119.04,49.47" fill="#9b7650" stroke="#9b7650" stroke-width="0.3"/><polygon points="131.15,74.84 131.70,74.63 128.42,50.13" fill="#b58a5e" stroke="#b58a5e" stroke-width="0.3"/><polygon points="126.41,48.06 126.65,47.63 125.73,47.95" fill="#ba8e61" stroke="#ba8e61" stroke-width="0.3"/><polygon points="125.73,47.95 125.04,47.83 124.80,48.26" fill="#ba8e61" stroke="#ba8e61" stroke-width="0.3"/><polygon points="124.80,48.26 125.04,47.83 124.12,48.15" fill="#ba8e61" stroke="#ba8e61" stroke-width="0.3"/><polygon points="128.11,75.11 128.56,75.24 125.28,50.73" fill="#9b7650" stroke="#9b7650" stroke-width="0.3"/><polygon points="126.41,48.06 125.73,47.95 125.48,48.38" fill="#ba8e61" stroke="#ba8e61" stroke-width="0.3"/><polygon points="125.48,48.38 125.73,47.95 124.80,48.26" fill="#ba8e61" stroke="#ba8e61" stroke-width="0.3"/><polygon points="130.59,75.06 131.15,74.84 127.86,50.34" fill="#b58a5e" stroke="#b58a5e" stroke-width="0.3"/><polygon points="121.27,50.01 116.21,73.12 121.97,50.08" fill="#a77f56" stroke="#a77f56" stroke-width="0.3"/><polygon points="126.16,48.49 126.41,48.06 125.48,48.38" fill="#ba8e61" stroke="#ba8e61" stroke-width="0.3"/><polygon points="119.04,49.47 113.98,72.58 119.17,49.80" fill="#9b7650" stroke="#9b7650" stroke-width="0.3"/><polygon points="120.57,49.94 115.51,73.05 121.27,50.01" fill="#a77f56" stroke="#a77f56" stroke-width="0.3"/><polygon points="128.56,75.24 129.02,75.36 125.73,50.85" fill="#9b7650" stroke="#9b7650" stroke-width="0.3"/><polygon points="119.87,49.87 114.81,72.98 120.57,49.94" fill="#a77f56" stroke="#a77f56" stroke-width="0.3"/><polygon points="130.03,75.27 130.59,75.06 127.30,50.55" fill="#b58a5e" stroke="#b58a5e" stroke-width="0.3"/><polygon points="119.17,49.80 114.11,72.90 119.87,49.87" fill="#a77f56" stroke="#a77f56" stroke-width="0.3"/><polygon points="129.47,75.48 130.03,75.27 126.74,50.76" fill="#b58a5e" stroke="#b58a5e" stroke-width="0.3"/><polygon points="129.02,75.36 129.47,75.48 126.19,50.97" fill="#9b7650" stroke="#9b7650" stroke-width="0.3"/><polygon points="121.48,48.78 120.78,48.71 121.60,49.11" fill="#be9163" stroke="#be9163" stroke-width="0.3"/><polygon points="120.78,48.71 120.07,48.64 120.90,49.03" fill="#be9163" stroke="#be9163" stroke-width="0.3"/><polygon points="120.78,48.71 120.90,49.03 121.60,49.11" fill="#be9163" stroke="#be9163" stroke-width="0.3"/><polygon points="120.07,48.64 119.37,48.56 120.20,48.96" fill="#be9163" stroke="#be9163" stroke-width="0.3"/><polygon points="120.07,48.64 120.20,48.96 120.90,49.03" fill="#be9163" stroke="#be9163" stroke-width="0.3"/><polygon points="119.37,48.56 118.67,48.49 119.50,48.89" fill="#be9163" stroke="#be9163" stroke-width="0.3"/><polygon points="124.36,50.49 127.65,74.99 124.82,50.61" fill="#9b7650" stroke="#9b7650" stroke-width="0.3"/><polygon points="119.37,48.56 119.50,48.89 120.20,48.96" fill="#be9163" stroke="#be9163" stroke-width="0.3"/><polygon points="121.60,49.11 120.90,49.03 121.72,49.43" fill="#be9163" stroke="#be9163" stroke-width="0.3"/><polygon points="118.67,48.49 118.80,48.82 119.50,48.89" fill="#be9163" stroke="#be9163" stroke-width="0.3"/><polygon points="120.90,49.03 120.20,48.96 121.02,49.36" fill="#be9163" stroke="#be9163" stroke-width="0.3"/><polygon points="120.90,49.03 121.02,49.36 121.72,49.43" fill="#be9163" stroke="#be9163" stroke-width="0.3"/><polygon points="120.20,48.96 119.50,48.89 120.32,49.29" fill="#be9163" stroke="#be9163" stroke-width="0.3"/><polygon points="120.20,48.96 120.32,49.29 121.02,49.36" fill="#be9163" stroke="#be9163" stroke-width="0.3"/><polygon points="124.82,50.61 128.11,75.11 125.28,50.73" fill="#9b7650" stroke="#9b7650" stroke-width="0.3"/><polygon points="119.50,48.89 118.80,48.82 119.62,49.22" fill="#be9163" stroke="#be9163" stroke-width="0.3"/><polygon points="127.86,50.34 131.15,74.84 128.42,50.13" fill="#b58a5e" stroke="#b58a5e" stroke-width="0.3"/><polygon points="119.50,48.89 119.62,49.22 120.32,49.29" fill="#be9163" stroke="#be9163" stroke-width="0.3"/><polygon points="121.72,49.43 121.02,49.36 121.85,49.76" fill="#be9163" stroke="#be9163" stroke-width="0.3"/><polygon points="118.80,48.82 118.92,49.14 119.62,49.22" fill="#be9163" stroke="#be9163" stroke-width="0.3"/><polygon points="121.02,49.36 120.32,49.29 121.15,49.69" fill="#be9163" stroke="#be9163" stroke-width="0.3"/><polygon points="121.02,49.36 121.15,49.69 121.85,49.76" fill="#be9163" stroke="#be9163" stroke-width="0.3"/><polygon points="127.30,50.55 130.59,75.06 127.86,50.34" fill="#b58a5e" stroke="#b58a5e" stroke-width="0.3"/><polygon points="120.32,49.29 119.62,49.22 120.45,49.61" fill="#be9163" stroke="#be9163" stroke-width="0.3"/><polygon points="125.28,50.73 128.56,75.24 125.73,50.85" fill="#9b7650" stroke="#9b7650" stroke-width="0.3"/><polygon points="120.32,49.29 120.45,49.61 121.15,49.69" fill="#be9163" stroke="#be9163" stroke-width="0.3"/><polygon points="119.62,49.22 118.92,49.14 119.74,49.54" fill="#be9163" stroke="#be9163" stroke-width="0.3"/><polygon points="126.04,49.85 126.49,49.97 126.60,49.64" fill="#b78b5f" stroke="#b78b5f" stroke-width="0.3"/><polygon points="119.62,49.22 119.74,49.54 120.45,49.61" fill="#be9163" stroke="#be9163" stroke-width="0.3"/><polygon points="121.85,49.76 121.15,49.69 121.97,50.08" fill="#be9163" stroke="#be9163" stroke-width="0.3"/><polygon points="126.49,49.97 127.05,49.76 126.60,49.64" fill="#b78b5f" stroke="#b78b5f" stroke-width="0.3"/><polygon points="126.74,50.76 130.03,75.27 127.30,50.55" fill="#b58a5e" stroke="#b58a5e" stroke-width="0.3"/><polygon points="118.92,49.14 119.04,49.47 119.74,49.54" fill="#be9163" stroke="#be9163" stroke-width="0.3"/><polygon points="121.15,49.69 120.45,49.61 121.27,50.01" fill="#be9163" stroke="#be9163" stroke-width="0.3"/><polygon points="121.15,49.69 121.27,50.01 121.97,50.08" fill="#be9163" stroke="#be9163" stroke-width="0.3"/><polygon points="125.73,50.85 129.02,75.36 126.19,50.97" fill="#9b7650" stroke="#9b7650" stroke-width="0.3"/><polygon points="120.45,49.61 119.74,49.54 120.57,49.94" fill="#be9163" stroke="#be9163" stroke-width="0.3"/><polygon points="125.48,50.06 125.94,50.18 126.04,49.85" fill="#b78b5f" stroke="#b78b5f" stroke-width="0.3"/><polygon points="125.94,50.18 126.49,49.97 126.04,49.85" fill="#b78b5f" stroke="#b78b5f" stroke-width="0.3"/><polygon points="120.45,49.61 120.57,49.94 121.27,50.01" fill="#be9163" stroke="#be9163" stroke-width="0.3"/><polygon points="126.49,49.97 126.95,50.09 127.05,49.76" fill="#b78b5f" stroke="#b78b5f" stroke-width="0.3"/><polygon points="126.19,50.97 129.47,75.48 126.74,50.76" fill="#b58a5e" stroke="#b58a5e" stroke-width="0.3"/><polygon points="119.74,49.54 119.04,49.47 119.87,49.87" fill="#be9163" stroke="#be9163" stroke-width="0.3"/><polygon points="126.95,50.09 127.51,49.88 127.05,49.76" fill="#b78b5f" stroke="#b78b5f" stroke-width="0.3"/><polygon points="119.74,49.54 119.87,49.87 120.57,49.94" fill="#be9163" stroke="#be9163" stroke-width="0.3"/><polygon points="124.92,50.27 125.38,50.40 125.48,50.06" fill="#b78b5f" stroke="#b78b5f" stroke-width="0.3"/><polygon points="119.04,49.47 119.17,49.80 119.87,49.87" fill="#be9163" stroke="#be9163" stroke-width="0.3"/><polygon points="125.38,50.40 125.94,50.18 125.48,50.06" fill="#b78b5f" stroke="#b78b5f" stroke-width="0.3"/><polygon points="125.94,50.18 126.39,50.31 126.49,49.97" fill="#b78b5f" stroke="#b78b5f" stroke-width="0.3"/><polygon points="126.39,50.31 126.95,50.09 126.49,49.97" fill="#b78b5f" stroke="#b78b5f" stroke-width="0.3"/><polygon points="126.95,50.09 127.40,50.22 127.51,49.88" fill="#b78b5f" stroke="#b78b5f" stroke-width="0.3"/><polygon points="127.40,50.22 127.96,50.00 127.51,49.88" fill="#b78b5f" stroke="#b78b5f" stroke-width="0.3"/><polygon points="124.36,50.49 124.82,50.61 124.92,50.27" fill="#b78b5f" stroke="#b78b5f" stroke-width="0.3"/><polygon points="124.82,50.61 125.38,50.40 124.92,50.27" fill="#b78b5f" stroke="#b78b5f" stroke-width="0.3"/><polygon points="139.29,49.89 139.13,48.06 136.10,27.62" fill="#e9e5dc" stroke="#e9e5dc" stroke-width="0.3"/><polygon points="125.38,50.40 125.83,50.52 125.94,50.18" fill="#b78b5f" stroke="#b78b5f" stroke-width="0.3"/><polygon points="125.83,50.52 126.39,50.31 125.94,50.18" fill="#b78b5f" stroke="#b78b5f" stroke-width="0.3"/><polygon points="126.39,50.31 126.85,50.43 126.95,50.09" fill="#b78b5f" stroke="#b78b5f" stroke-width="0.3"/><polygon points="126.85,50.43 127.40,50.22 126.95,50.09" fill="#b78b5f" stroke="#b78b5f" stroke-width="0.3"/><polygon points="127.40,50.22 127.86,50.34 127.96,50.00" fill="#b78b5f" stroke="#b78b5f" stroke-width="0.3"/><polygon points="127.86,50.34 128.42,50.13 127.96,50.00" fill="#b78b5f" stroke="#b78b5f" stroke-width="0.3"/><polygon points="124.82,50.61 125.28,50.73 125.38,50.40" fill="#b78b5f" stroke="#b78b5f" stroke-width="0.3"/><polygon points="125.28,50.73 125.83,50.52 125.38,50.40" fill="#b78b5f" stroke="#b78b5f" stroke-width="0.3"/><polygon points="125.83,50.52 126.29,50.64 126.39,50.31" fill="#b78b5f" stroke="#b78b5f" stroke-width="0.3"/><polygon points="126.29,50.64 126.85,50.43 126.39,50.31" fill="#b78b5f" stroke="#b78b5f" stroke-width="0.3"/><polygon points="126.85,50.43 127.30,50.55 127.40,50.22" fill="#b78b5f" stroke="#b78b5f" stroke-width="0.3"/><polygon points="127.30,50.55 127.86,50.34 127.40,50.22" fill="#b78b5f" stroke="#b78b5f" stroke-width="0.3"/><polygon points="125.11,23.00 121.91,23.06 124.00,28.57" fill="#f0ece3" stroke="#f0ece3" stroke-width="0.3"/><polygon points="128.24,23.32 125.11,23.00 124.00,28.57" fill="#f0ece3" stroke="#f0ece3" stroke-width="0.3"/><polygon points="125.28,50.73 125.73,50.85 125.83,50.52" fill="#b78b5f" stroke="#b78b5f" stroke-width="0.3"/><polygon points="125.73,50.85 126.29,50.64 125.83,50.52" fill="#b78b5f" stroke="#b78b5f" stroke-width="0.3"/><polygon points="121.91,23.06 118.85,23.49 124.00,28.57" fill="#f0ece3" stroke="#f0ece3" stroke-width="0.3"/><polygon points="126.29,50.64 126.74,50.76 126.85,50.43" fill="#b78b5f" stroke="#b78b5f" stroke-width="0.3"/><polygon points="126.74,50.76 127.30,50.55 126.85,50.43" fill="#b78b5f" stroke="#b78b5f" stroke-width="0.3"/><polygon points="125.73,50.85 126.19,50.97 126.29,50.64" fill="#b78b5f" stroke="#b78b5f" stroke-width="0.3"/><polygon points="126.19,50.97 126.74,50.76 126.29,50.64" fill="#b78b5f" stroke="#b78b5f" stroke-width="0.3"/><polygon points="131.08,24.00 128.24,23.32 124.00,28.57" fill="#f0ece3" stroke="#f0ece3" stroke-width="0.3"/><polygon points="121.11,43.77 121.23,44.29 121.23,37.64" fill="#cdb278" stroke="#cdb278" stroke-width="0.3"/><polygon points="126.57,44.51 126.89,44.01 126.89,37.36" fill="#ebcc8a" stroke="#ebcc8a" stroke-width="0.3"/><polygon points="124.26,35.93 123.14,35.98 124.00,37.24" fill="#f5d590" stroke="#f5d590" stroke-width="0.3"/><polygon points="118.85,23.49 116.14,24.27 124.00,28.57" fill="#f0ece3" stroke="#f0ece3" stroke-width="0.3"/><polygon points="108.71,48.62 108.87,50.44 111.90,29.53" fill="#c9c5be" stroke="#c9c5be" stroke-width="0.3"/><polygon points="125.35,36.07 124.26,35.93 124.00,37.24" fill="#f5d590" stroke="#f5d590" stroke-width="0.3"/><polygon points="123.14,35.98 122.14,36.23 124.00,37.24" fill="#f5d590" stroke="#f5d590" stroke-width="0.3"/><polygon points="126.23,36.40 125.35,36.07 124.00,37.24" fill="#f5d590" stroke="#f5d590" stroke-width="0.3"/><polygon points="122.14,36.23 121.43,36.63 124.00,37.24" fill="#f5d590" stroke="#f5d590" stroke-width="0.3"/><polygon points="121.11,37.12 121.11,43.77 121.23,37.64" fill="#cdb278" stroke="#cdb278" stroke-width="0.3"/><polygon points="121.23,44.29 121.77,44.74 121.77,38.09" fill="#cdb278" stroke="#cdb278" stroke-width="0.3"/><polygon points="133.43,24.99 131.08,24.00 124.00,28.57" fill="#f0ece3" stroke="#f0ece3" stroke-width="0.3"/><polygon points="126.77,36.85 126.23,36.40 124.00,37.24" fill="#f5d590" stroke="#f5d590" stroke-width="0.3"/><polygon points="125.86,44.91 126.57,44.51 126.57,37.86" fill="#e9cb89" stroke="#e9cb89" stroke-width="0.3"/><polygon points="121.43,36.63 121.11,37.12 124.00,37.24" fill="#f5d590" stroke="#f5d590" stroke-width="0.3"/><polygon points="116.14,24.27 113.97,25.35 124.00,28.57" fill="#f0ece3" stroke="#f0ece3" stroke-width="0.3"/><polygon points="138.41,51.67 139.29,49.89 136.23,29.08" fill="#ebe7de" stroke="#ebe7de" stroke-width="0.3"/><polygon points="126.57,37.86 126.57,44.51 126.89,37.36" fill="#ebcc8a" stroke="#ebcc8a" stroke-width="0.3"/><polygon points="121.77,44.74 122.65,45.06 122.65,38.42" fill="#cdb278" stroke="#cdb278" stroke-width="0.3"/><polygon points="126.89,37.36 126.77,36.85 124.00,37.24" fill="#f5d590" stroke="#f5d590" stroke-width="0.3"/><polygon points="124.86,45.16 125.86,44.91 125.86,38.26" fill="#e4c686" stroke="#e4c686" stroke-width="0.3"/><polygon points="121.23,37.64 121.23,44.29 121.77,38.09" fill="#cdb278" stroke="#cdb278" stroke-width="0.3"/><polygon points="121.11,37.12 121.23,37.64 124.00,37.24" fill="#f5d590" stroke="#f5d590" stroke-width="0.3"/><polygon points="122.65,45.06 123.74,45.21 123.74,38.56" fill="#ceb379" stroke="#ceb379" stroke-width="0.3"/><polygon points="123.74,45.21 124.86,45.16 124.86,38.51" fill="#dabd80" stroke="#dabd80" stroke-width="0.3"/><polygon points="126.57,37.86 126.89,37.36 124.00,37.24" fill="#f5d590" stroke="#f5d590" stroke-width="0.3"/><polygon points="135.15,26.23 133.43,24.99 124.00,28.57" fill="#f0ece3" stroke="#f0ece3" stroke-width="0.3"/><polygon points="125.86,38.26 125.86,44.91 126.57,37.86" fill="#e9cb89" stroke="#e9cb89" stroke-width="0.3"/><polygon points="121.77,38.09 121.77,44.74 122.65,38.42" fill="#cdb278" stroke="#cdb278" stroke-width="0.3"/><polygon points="111.77,28.07 108.71,48.62 111.90,29.53" fill="#c9c5be" stroke="#c9c5be" stroke-width="0.3"/><polygon points="121.23,37.64 121.77,38.09 124.00,37.24" fill="#f5d590" stroke="#f5d590" stroke-width="0.3"/><polygon points="136.23,29.08 139.29,49.89 136.10,27.62" fill="#e9e5dc" stroke="#e9e5dc" stroke-width="0.3"/><polygon points="125.86,38.26 126.57,37.86 124.00,37.24" fill="#f5d590" stroke="#f5d590" stroke-width="0.3"/><polygon points="113.97,25.35 112.48,26.64 124.00,28.57" fill="#f0ece3" stroke="#f0ece3" stroke-width="0.3"/><polygon points="124.86,38.51 124.86,45.16 125.86,38.26" fill="#e4c686" stroke="#e4c686" stroke-width="0.3"/><polygon points="122.65,38.42 122.65,45.06 123.74,38.56" fill="#ceb379" stroke="#ceb379" stroke-width="0.3"/><polygon points="121.77,38.09 122.65,38.42 124.00,37.24" fill="#f5d590" stroke="#f5d590" stroke-width="0.3"/><polygon points="123.74,38.56 123.74,45.21 124.86,38.51" fill="#dabd80" stroke="#dabd80" stroke-width="0.3"/><polygon points="124.86,38.51 125.86,38.26 124.00,37.24" fill="#f5d590" stroke="#f5d590" stroke-width="0.3"/><polygon points="108.87,50.44 110.07,52.19 112.85,30.92" fill="#c9c5be" stroke="#c9c5be" stroke-width="0.3"/><polygon points="122.65,38.42 123.74,38.56 124.00,37.24" fill="#f5d590" stroke="#f5d590" stroke-width="0.3"/><polygon points="123.74,38.56 124.86,38.51 124.00,37.24" fill="#f5d590" stroke="#f5d590" stroke-width="0.3"/><polygon points="136.10,27.62 135.15,26.23 124.00,28.57" fill="#f0ece3" stroke="#f0ece3" stroke-width="0.3"/><polygon points="136.54,53.29 138.41,51.67 135.53,30.51" fill="#eae7de" stroke="#eae7de" stroke-width="0.3"/><polygon points="112.48,26.64 111.77,28.07 124.00,28.57" fill="#f0ece3" stroke="#f0ece3" stroke-width="0.3"/><polygon points="111.90,29.53 108.87,50.44 112.85,30.92" fill="#c9c5be" stroke="#c9c5be" stroke-width="0.3"/><polygon points="135.53,30.51 138.41,51.67 136.23,29.08" fill="#ebe7de" stroke="#ebe7de" stroke-width="0.3"/><polygon points="136.23,29.08 136.10,27.62 124.00,28.57" fill="#f0ece3" stroke="#f0ece3" stroke-width="0.3"/><polygon points="110.07,52.19 112.21,53.73 114.57,32.16" fill="#c9c5be" stroke="#c9c5be" stroke-width="0.3"/><polygon points="111.77,28.07 111.90,29.53 124.00,28.57" fill="#f0ece3" stroke="#f0ece3" stroke-width="0.3"/><polygon points="133.83,54.63 136.54,53.29 134.04,31.80" fill="#e9e5dc" stroke="#e9e5dc" stroke-width="0.3"/><polygon points="135.53,30.51 136.23,29.08 124.00,28.57" fill="#f0ece3" stroke="#f0ece3" stroke-width="0.3"/><polygon points="111.90,29.53 112.85,30.92 124.00,28.57" fill="#f0ece3" stroke="#f0ece3" stroke-width="0.3"/><polygon points="112.85,30.92 110.07,52.19 114.57,32.16" fill="#c9c5be" stroke="#c9c5be" stroke-width="0.3"/><polygon points="134.04,31.80 136.54,53.29 135.53,30.51" fill="#eae7de" stroke="#eae7de" stroke-width="0.3"/><polygon points="112.21,53.73 115.15,54.97 116.92,33.15" fill="#c9c5be" stroke="#c9c5be" stroke-width="0.3"/><polygon points="134.04,31.80 135.53,30.51 124.00,28.57" fill="#f0ece3" stroke="#f0ece3" stroke-width="0.3"/><polygon points="130.44,55.60 133.83,54.63 131.86,32.87" fill="#e5e1d8" stroke="#e5e1d8" stroke-width="0.3"/><polygon points="112.85,30.92 114.57,32.16 124.00,28.57" fill="#f0ece3" stroke="#f0ece3" stroke-width="0.3"/><polygon points="115.15,54.97 118.70,55.82 119.76,33.83" fill="#cac6bf" stroke="#cac6bf" stroke-width="0.3"/><polygon points="114.57,32.16 112.21,53.73 116.92,33.15" fill="#c9c5be" stroke="#c9c5be" stroke-width="0.3"/><polygon points="131.86,32.87 133.83,54.63 134.04,31.80" fill="#e9e5dc" stroke="#e9e5dc" stroke-width="0.3"/><polygon points="126.61,56.15 130.44,55.60 129.15,33.66" fill="#e0dcd4" stroke="#e0dcd4" stroke-width="0.3"/><polygon points="131.86,32.87 134.04,31.80 124.00,28.57" fill="#f0ece3" stroke="#f0ece3" stroke-width="0.3"/><polygon points="114.57,32.16 116.92,33.15 124.00,28.57" fill="#f0ece3" stroke="#f0ece3" stroke-width="0.3"/><polygon points="118.70,55.82 122.61,56.22 122.89,34.15" fill="#d2cec6" stroke="#d2cec6" stroke-width="0.3"/><polygon points="122.61,56.22 126.61,56.15 126.09,34.09" fill="#d9d6cd" stroke="#d9d6cd" stroke-width="0.3"/><polygon points="129.15,33.66 131.86,32.87 124.00,28.57" fill="#f0ece3" stroke="#f0ece3" stroke-width="0.3"/><polygon points="116.92,33.15 119.76,33.83 124.00,28.57" fill="#f0ece3" stroke="#f0ece3" stroke-width="0.3"/><polygon points="116.92,33.15 115.15,54.97 119.76,33.83" fill="#cac6bf" stroke="#cac6bf" stroke-width="0.3"/><polygon points="129.15,33.66 130.44,55.60 131.86,32.87" fill="#e5e1d8" stroke="#e5e1d8" stroke-width="0.3"/><polygon points="126.09,34.09 129.15,33.66 124.00,28.57" fill="#f0ece3" stroke="#f0ece3" stroke-width="0.3"/><polygon points="119.76,33.83 122.89,34.15 124.00,28.57" fill="#f0ece3" stroke="#f0ece3" stroke-width="0.3"/><polygon points="122.89,34.15 126.09,34.09 124.00,28.57" fill="#f0ece3" stroke="#f0ece3" stroke-width="0.3"/><polygon points="119.76,33.83 118.70,55.82 122.89,34.15" fill="#d2cec6" stroke="#d2cec6" stroke-width="0.3"/><polygon points="126.09,34.09 126.61,56.15 129.15,33.66" fill="#e0dcd4" stroke="#e0dcd4" stroke-width="0.3"/><polygon points="122.89,34.15 122.61,56.22 126.09,34.09" fill="#d9d6cd" stroke="#d9d6cd" stroke-width="0.3"/></svg>
