<svg xmlns="http://www.w3.org/2000/svg" viewBox="0 0 240 168"><rect width="240" height="168" fill="#f3f3ec"/><ellipse cx="120" cy="148" rx="77" ry="8" fill="#24352e" opacity=".07"/><polygon points="101.02,118.95 112.74,114.49 112.74,93.15" fill="#222422" stroke="#222422" stroke-width="0.3"/><polygon points="101.02,97.60 101.02,118.95 112.74,93.15" fill="#222422" stroke="#222422" stroke-width="0.3"/><polygon points="89.29,123.40 101.02,118.95 101.02,97.60" fill="#222422" stroke="#222422" stroke-width="0.3"/><polygon points="101.02,97.60 112.74,93.15 112.74,71.80" fill="#222422" stroke="#222422" stroke-width="0.3"/><polygon points="89.29,102.05 89.29,123.40 101.02,97.60" fill="#222422" stroke="#222422" stroke-width="0.3"/><polygon points="77.57,127.85 89.29,123.40 89.29,102.05" fill="#222422" stroke="#222422" stroke-width="0.3"/><polygon points="101.02,76.25 101.02,97.60 112.74,71.80" fill="#222422" stroke="#222422" stroke-width="0.3"/><polygon points="89.29,102.05 101.02,97.60 101.02,76.25" fill="#222422" stroke="#222422" stroke-width="0.3"/><polygon points="101.02,76.25 112.74,71.80 112.74,50.45" fill="#222422" stroke="#222422" stroke-width="0.3"/><polygon points="54.68,126.20 57.47,127.73 57.47,106.38" fill="#1d1e1d" stroke="#1d1e1d" stroke-width="0.3"/><polygon points="77.57,106.51 77.57,127.85 89.29,102.05" fill="#222422" stroke="#222422" stroke-width="0.3"/><polygon points="54.68,104.85 54.68,126.20 57.47,106.38" fill="#1d1e1d" stroke="#1d1e1d" stroke-width="0.3"/><polygon points="57.47,127.73 60.26,129.25 60.26,107.91" fill="#1d1e1d" stroke="#1d1e1d" stroke-width="0.3"/><polygon points="65.84,132.31 77.57,127.85 77.57,106.51" fill="#222422" stroke="#222422" stroke-width="0.3"/><polygon points="89.29,80.71 89.29,102.05 101.02,76.25" fill="#222422" stroke="#222422" stroke-width="0.3"/><polygon points="57.47,106.38 57.47,127.73 60.26,107.91" fill="#1d1e1d" stroke="#1d1e1d" stroke-width="0.3"/><polygon points="60.26,129.25 63.05,130.78 63.05,109.43" fill="#1d1e1d" stroke="#1d1e1d" stroke-width="0.3"/><polygon points="77.57,106.51 89.29,102.05 89.29,80.71" fill="#222422" stroke="#222422" stroke-width="0.3"/><polygon points="101.02,54.91 101.02,76.25 112.74,50.45" fill="#222422" stroke="#222422" stroke-width="0.3"/><polygon points="104.37,24.53 101.58,23.00 92.64,28.98" fill="#242624" stroke="#242624" stroke-width="0.3"/><polygon points="89.29,80.71 101.02,76.25 101.02,54.91" fill="#222422" stroke="#222422" stroke-width="0.3"/><polygon points="60.26,107.91 60.26,129.25 63.05,109.43" fill="#1d1e1d" stroke="#1d1e1d" stroke-width="0.3"/><polygon points="63.05,130.78 65.84,132.31 65.84,110.96" fill="#1d1e1d" stroke="#1d1e1d" stroke-width="0.3"/><polygon points="91.08,66.32 87.40,67.72 97.17,73.06" fill="#242624" stroke="#242624" stroke-width="0.3"/><polygon points="101.58,23.00 89.85,27.45 92.64,28.98" fill="#242624" stroke="#242624" stroke-width="0.3"/><polygon points="65.84,110.96 65.84,132.31 77.57,106.51" fill="#222422" stroke="#222422" stroke-width="0.3"/><polygon points="76.34,84.72 76.34,88.99 86.11,90.07" fill="#1d1e1d" stroke="#1d1e1d" stroke-width="0.3"/><polygon points="101.02,54.91 112.74,50.45 112.74,29.11" fill="#222422" stroke="#222422" stroke-width="0.3"/><polygon points="54.68,104.85 57.47,106.38 57.47,85.03" fill="#1d1e1d" stroke="#1d1e1d" stroke-width="0.3"/><polygon points="107.16,26.05 104.37,24.53 95.43,30.51" fill="#242624" stroke="#242624" stroke-width="0.3"/><polygon points="100.85,71.66 91.08,66.32 97.17,73.06" fill="#242624" stroke="#242624" stroke-width="0.3"/><polygon points="63.05,109.43 63.05,130.78 65.84,110.96" fill="#1d1e1d" stroke="#1d1e1d" stroke-width="0.3"/><polygon points="87.40,67.72 83.71,69.12 93.48,74.46" fill="#242624" stroke="#242624" stroke-width="0.3"/><polygon points="77.57,85.16 77.57,106.51 89.29,80.71" fill="#222422" stroke="#222422" stroke-width="0.3"/><polygon points="76.34,80.45 76.34,84.72 86.11,85.80" fill="#1d1e1d" stroke="#1d1e1d" stroke-width="0.3"/><polygon points="104.37,24.53 92.64,28.98 95.43,30.51" fill="#242624" stroke="#242624" stroke-width="0.3"/><polygon points="76.34,88.99 86.11,94.34 86.11,90.07" fill="#1d1e1d" stroke="#1d1e1d" stroke-width="0.3"/><polygon points="54.68,83.51 54.68,104.85 57.47,85.03" fill="#1d1e1d" stroke="#1d1e1d" stroke-width="0.3"/><polygon points="57.47,106.38 60.26,107.91 60.26,86.56" fill="#1d1e1d" stroke="#1d1e1d" stroke-width="0.3"/><polygon points="109.95,27.58 107.16,26.05 98.23,32.03" fill="#242624" stroke="#242624" stroke-width="0.3"/><polygon points="97.17,73.06 87.40,67.72 93.48,74.46" fill="#242624" stroke="#242624" stroke-width="0.3"/><polygon points="83.71,69.12 80.03,70.51 89.80,75.86" fill="#242624" stroke="#242624" stroke-width="0.3"/><polygon points="65.84,110.96 77.57,106.51 77.57,85.16" fill="#222422" stroke="#222422" stroke-width="0.3"/><polygon points="89.29,59.36 89.29,80.71 101.02,54.91" fill="#222422" stroke="#222422" stroke-width="0.3"/><polygon points="76.34,76.18 76.34,80.45 86.11,81.53" fill="#1d1e1d" stroke="#1d1e1d" stroke-width="0.3"/><polygon points="76.34,84.72 86.11,90.07 86.11,85.80" fill="#1d1e1d" stroke="#1d1e1d" stroke-width="0.3"/><polygon points="107.16,26.05 95.43,30.51 98.23,32.03" fill="#242624" stroke="#242624" stroke-width="0.3"/><polygon points="57.47,85.03 57.47,106.38 60.26,86.56" fill="#1d1e1d" stroke="#1d1e1d" stroke-width="0.3"/><polygon points="92.64,28.98 89.85,27.45 80.92,33.43" fill="#242624" stroke="#242624" stroke-width="0.3"/><polygon points="60.26,107.91 63.05,109.43 63.05,88.09" fill="#1d1e1d" stroke="#1d1e1d" stroke-width="0.3"/><polygon points="93.48,74.46 83.71,69.12 89.80,75.86" fill="#242624" stroke="#242624" stroke-width="0.3"/><polygon points="112.74,29.11 109.95,27.58 101.02,33.56" fill="#242624" stroke="#242624" stroke-width="0.3"/><polygon points="80.03,70.51 76.34,71.91 86.11,77.26" fill="#242624" stroke="#242624" stroke-width="0.3"/><polygon points="77.57,85.16 89.29,80.71 89.29,59.36" fill="#222422" stroke="#222422" stroke-width="0.3"/><polygon points="101.02,33.56 101.02,54.91 112.74,29.11" fill="#222422" stroke="#222422" stroke-width="0.3"/><polygon points="76.34,71.91 76.34,76.18 86.11,77.26" fill="#1d1e1d" stroke="#1d1e1d" stroke-width="0.3"/><polygon points="76.34,80.45 86.11,85.80 86.11,81.53" fill="#1d1e1d" stroke="#1d1e1d" stroke-width="0.3"/><polygon points="89.85,27.45 78.13,31.91 80.92,33.43" fill="#242624" stroke="#242624" stroke-width="0.3"/><polygon points="109.95,27.58 98.23,32.03 101.02,33.56" fill="#242624" stroke="#242624" stroke-width="0.3"/><polygon points="100.85,71.66 97.17,73.06 106.94,78.40" fill="#242624" stroke="#242624" stroke-width="0.3"/><polygon points="89.29,59.36 101.02,54.91 101.02,33.56" fill="#222422" stroke="#222422" stroke-width="0.3"/><polygon points="60.26,86.56 60.26,107.91 63.05,88.09" fill="#1d1e1d" stroke="#1d1e1d" stroke-width="0.3"/><polygon points="89.80,75.86 80.03,70.51 86.11,77.26" fill="#242624" stroke="#242624" stroke-width="0.3"/><polygon points="95.43,30.51 92.64,28.98 83.71,34.96" fill="#242624" stroke="#242624" stroke-width="0.3"/><polygon points="63.05,109.43 65.84,110.96 65.84,89.62" fill="#1d1e1d" stroke="#1d1e1d" stroke-width="0.3"/><polygon points="76.34,76.18 86.11,81.53 86.11,77.26" fill="#1d1e1d" stroke="#1d1e1d" stroke-width="0.3"/><polygon points="86.11,90.07 86.11,94.34 95.88,95.41" fill="#1d1e1d" stroke="#1d1e1d" stroke-width="0.3"/><polygon points="65.84,89.62 65.84,110.96 77.57,85.16" fill="#222422" stroke="#222422" stroke-width="0.3"/><polygon points="92.64,28.98 80.92,33.43 83.71,34.96" fill="#242624" stroke="#242624" stroke-width="0.3"/><polygon points="54.68,83.51 57.47,85.03 57.47,63.69" fill="#1d1e1d" stroke="#1d1e1d" stroke-width="0.3"/><polygon points="110.62,77.00 100.85,71.66 106.94,78.40" fill="#242624" stroke="#242624" stroke-width="0.3"/><polygon points="97.17,73.06 93.48,74.46 103.25,79.80" fill="#242624" stroke="#242624" stroke-width="0.3"/><polygon points="63.05,88.09 63.05,109.43 65.84,89.62" fill="#1d1e1d" stroke="#1d1e1d" stroke-width="0.3"/><polygon points="98.23,32.03 95.43,30.51 86.50,36.49" fill="#242624" stroke="#242624" stroke-width="0.3"/><polygon points="86.11,85.80 86.11,90.07 95.88,91.14" fill="#1d1e1d" stroke="#1d1e1d" stroke-width="0.3"/><polygon points="77.57,63.82 77.57,85.16 89.29,59.36" fill="#222422" stroke="#222422" stroke-width="0.3"/><polygon points="86.11,94.34 95.88,99.68 95.88,95.41" fill="#1d1e1d" stroke="#1d1e1d" stroke-width="0.3"/><polygon points="54.68,62.16 54.68,83.51 57.47,63.69" fill="#1d1e1d" stroke="#1d1e1d" stroke-width="0.3"/><polygon points="106.94,78.40 97.17,73.06 103.25,79.80" fill="#242624" stroke="#242624" stroke-width="0.3"/><polygon points="95.43,30.51 83.71,34.96 86.50,36.49" fill="#242624" stroke="#242624" stroke-width="0.3"/><polygon points="57.47,85.03 60.26,86.56 60.26,65.21" fill="#1d1e1d" stroke="#1d1e1d" stroke-width="0.3"/><polygon points="93.48,74.46 89.80,75.86 99.57,81.20" fill="#242624" stroke="#242624" stroke-width="0.3"/><polygon points="80.92,33.43 78.13,31.91 69.19,37.89" fill="#242624" stroke="#242624" stroke-width="0.3"/><polygon points="86.11,81.53 86.11,85.80 95.88,86.87" fill="#1d1e1d" stroke="#1d1e1d" stroke-width="0.3"/><polygon points="101.02,33.56 98.23,32.03 89.29,38.02" fill="#242624" stroke="#242624" stroke-width="0.3"/><polygon points="65.84,89.62 77.57,85.16 77.57,63.82" fill="#222422" stroke="#222422" stroke-width="0.3"/><polygon points="89.29,38.02 89.29,59.36 101.02,33.56" fill="#222422" stroke="#222422" stroke-width="0.3"/><polygon points="86.11,90.07 95.88,95.41 95.88,91.14" fill="#1d1e1d" stroke="#1d1e1d" stroke-width="0.3"/><polygon points="103.25,79.80 93.48,74.46 99.57,81.20" fill="#242624" stroke="#242624" stroke-width="0.3"/><polygon points="78.13,31.91 66.40,36.36 69.19,37.89" fill="#242624" stroke="#242624" stroke-width="0.3"/><polygon points="57.47,63.69 57.47,85.03 60.26,65.21" fill="#1d1e1d" stroke="#1d1e1d" stroke-width="0.3"/><polygon points="89.80,75.86 86.11,77.26 95.88,82.60" fill="#242624" stroke="#242624" stroke-width="0.3"/><polygon points="98.23,32.03 86.50,36.49 89.29,38.02" fill="#242624" stroke="#242624" stroke-width="0.3"/><polygon points="86.11,77.26 86.11,81.53 95.88,82.60" fill="#1d1e1d" stroke="#1d1e1d" stroke-width="0.3"/><polygon points="60.26,86.56 63.05,88.09 63.05,66.74" fill="#1d1e1d" stroke="#1d1e1d" stroke-width="0.3"/><polygon points="77.57,63.82 89.29,59.36 89.29,38.02" fill="#222422" stroke="#222422" stroke-width="0.3"/><polygon points="86.11,85.80 95.88,91.14 95.88,86.87" fill="#1d1e1d" stroke="#1d1e1d" stroke-width="0.3"/><polygon points="83.71,34.96 80.92,33.43 71.99,39.42" fill="#242624" stroke="#242624" stroke-width="0.3"/><polygon points="110.62,77.00 106.94,78.40 116.71,83.75" fill="#242624" stroke="#242624" stroke-width="0.3"/><polygon points="99.57,81.20 89.80,75.86 95.88,82.60" fill="#242624" stroke="#242624" stroke-width="0.3"/><polygon points="80.92,33.43 69.19,37.89 71.99,39.42" fill="#242624" stroke="#242624" stroke-width="0.3"/><polygon points="60.26,65.21 60.26,86.56 63.05,66.74" fill="#1d1e1d" stroke="#1d1e1d" stroke-width="0.3"/><polygon points="86.11,81.53 95.88,86.87 95.88,82.60" fill="#1d1e1d" stroke="#1d1e1d" stroke-width="0.3"/><polygon points="63.05,88.09 65.84,89.62 65.84,68.27" fill="#1d1e1d" stroke="#1d1e1d" stroke-width="0.3"/><polygon points="86.50,36.49 83.71,34.96 74.78,40.94" fill="#242624" stroke="#242624" stroke-width="0.3"/><polygon points="95.88,95.41 95.88,99.68 105.65,100.76" fill="#1d1e1d" stroke="#1d1e1d" stroke-width="0.3"/><polygon points="120.39,82.35 110.62,77.00 116.71,83.75" fill="#242624" stroke="#242624" stroke-width="0.3"/><polygon points="65.84,68.27 65.84,89.62 77.57,63.82" fill="#222422" stroke="#222422" stroke-width="0.3"/><polygon points="106.94,78.40 103.25,79.80 113.02,85.15" fill="#242624" stroke="#242624" stroke-width="0.3"/><polygon points="54.68,62.16 57.47,63.69 57.47,42.34" fill="#1d1e1d" stroke="#1d1e1d" stroke-width="0.3"/><polygon points="83.71,34.96 71.99,39.42 74.78,40.94" fill="#242624" stroke="#242624" stroke-width="0.3"/><polygon points="63.05,66.74 63.05,88.09 65.84,68.27" fill="#1d1e1d" stroke="#1d1e1d" stroke-width="0.3"/><polygon points="95.88,91.14 95.88,95.41 105.65,96.49" fill="#1d1e1d" stroke="#1d1e1d" stroke-width="0.3"/><polygon points="69.19,37.89 66.40,36.36 57.47,42.34" fill="#242624" stroke="#242624" stroke-width="0.3"/><polygon points="95.88,99.68 105.65,105.02 105.65,100.76" fill="#1d1e1d" stroke="#1d1e1d" stroke-width="0.3"/><polygon points="89.29,38.02 86.50,36.49 77.57,42.47" fill="#242624" stroke="#242624" stroke-width="0.3"/><polygon points="77.57,42.47 77.57,63.82 89.29,38.02" fill="#222422" stroke="#222422" stroke-width="0.3"/><polygon points="116.71,83.75 106.94,78.40 113.02,85.15" fill="#242624" stroke="#242624" stroke-width="0.3"/><polygon points="103.25,79.80 99.57,81.20 109.34,86.55" fill="#242624" stroke="#242624" stroke-width="0.3"/><polygon points="54.68,40.81 54.68,62.16 57.47,42.34" fill="#1d1e1d" stroke="#1d1e1d" stroke-width="0.3"/><polygon points="57.47,63.69 60.26,65.21 60.26,43.87" fill="#1d1e1d" stroke="#1d1e1d" stroke-width="0.3"/><polygon points="95.88,86.87 95.88,91.14 105.65,92.22" fill="#1d1e1d" stroke="#1d1e1d" stroke-width="0.3"/><polygon points="66.40,36.36 54.68,40.81 57.47,42.34" fill="#242624" stroke="#242624" stroke-width="0.3"/><polygon points="86.50,36.49 74.78,40.94 77.57,42.47" fill="#242624" stroke="#242624" stroke-width="0.3"/><polygon points="95.88,95.41 105.65,100.76 105.65,96.49" fill="#1d1e1d" stroke="#1d1e1d" stroke-width="0.3"/><polygon points="65.84,68.27 77.57,63.82 77.57,42.47" fill="#222422" stroke="#222422" stroke-width="0.3"/><polygon points="71.99,39.42 69.19,37.89 60.26,43.87" fill="#242624" stroke="#242624" stroke-width="0.3"/><polygon points="113.02,85.15 103.25,79.80 109.34,86.55" fill="#242624" stroke="#242624" stroke-width="0.3"/><polygon points="99.57,81.20 95.88,82.60 105.65,87.95" fill="#242624" stroke="#242624" stroke-width="0.3"/><polygon points="95.88,82.60 95.88,86.87 105.65,87.95" fill="#1d1e1d" stroke="#1d1e1d" stroke-width="0.3"/><polygon points="126.48,106.17 130.16,104.77 130.16,100.50" fill="#222422" stroke="#222422" stroke-width="0.3"/><polygon points="57.47,42.34 57.47,63.69 60.26,43.87" fill="#1d1e1d" stroke="#1d1e1d" stroke-width="0.3"/><polygon points="60.26,65.21 63.05,66.74 63.05,45.40" fill="#1d1e1d" stroke="#1d1e1d" stroke-width="0.3"/><polygon points="95.88,91.14 105.65,96.49 105.65,92.22" fill="#1d1e1d" stroke="#1d1e1d" stroke-width="0.3"/><polygon points="69.19,37.89 57.47,42.34 60.26,43.87" fill="#242624" stroke="#242624" stroke-width="0.3"/><polygon points="126.48,101.90 126.48,106.17 130.16,100.50" fill="#222422" stroke="#222422" stroke-width="0.3"/><polygon points="74.78,40.94 71.99,39.42 63.05,45.40" fill="#242624" stroke="#242624" stroke-width="0.3"/><polygon points="120.39,82.35 116.71,83.75 126.48,89.09" fill="#242624" stroke="#242624" stroke-width="0.3"/><polygon points="126.48,101.90 130.16,100.50 130.16,96.23" fill="#222422" stroke="#222422" stroke-width="0.3"/><polygon points="109.34,86.55 99.57,81.20 105.65,87.95" fill="#242624" stroke="#242624" stroke-width="0.3"/><polygon points="95.88,86.87 105.65,92.22 105.65,87.95" fill="#1d1e1d" stroke="#1d1e1d" stroke-width="0.3"/><polygon points="122.79,107.57 126.48,106.17 126.48,101.90" fill="#222422" stroke="#222422" stroke-width="0.3"/><polygon points="60.26,43.87 60.26,65.21 63.05,45.40" fill="#1d1e1d" stroke="#1d1e1d" stroke-width="0.3"/><polygon points="63.05,66.74 65.84,68.27 65.84,46.92" fill="#1d1e1d" stroke="#1d1e1d" stroke-width="0.3"/><polygon points="105.65,100.76 105.65,105.02 115.42,106.10" fill="#1d1e1d" stroke="#1d1e1d" stroke-width="0.3"/><polygon points="71.99,39.42 60.26,43.87 63.05,45.40" fill="#242624" stroke="#242624" stroke-width="0.3"/><polygon points="126.48,97.63 126.48,101.90 130.16,96.23" fill="#222422" stroke="#222422" stroke-width="0.3"/><polygon points="126.48,97.63 130.16,96.23 130.16,91.96" fill="#222422" stroke="#222422" stroke-width="0.3"/><polygon points="122.79,103.30 122.79,107.57 126.48,101.90" fill="#222422" stroke="#222422" stroke-width="0.3"/><polygon points="130.16,87.69 120.39,82.35 126.48,89.09" fill="#242624" stroke="#242624" stroke-width="0.3"/><polygon points="116.71,83.75 113.02,85.15 122.79,90.49" fill="#242624" stroke="#242624" stroke-width="0.3"/><polygon points="77.57,42.47 74.78,40.94 65.84,46.92" fill="#242624" stroke="#242624" stroke-width="0.3"/><polygon points="122.79,103.30 126.48,101.90 126.48,97.63" fill="#222422" stroke="#222422" stroke-width="0.3"/><polygon points="65.84,46.92 65.84,68.27 77.57,42.47" fill="#222422" stroke="#222422" stroke-width="0.3"/><polygon points="119.11,108.97 122.79,107.57 122.79,103.30" fill="#222422" stroke="#222422" stroke-width="0.3"/><polygon points="105.65,96.49 105.65,100.76 115.42,101.83" fill="#1d1e1d" stroke="#1d1e1d" stroke-width="0.3"/><polygon points="126.48,93.36 126.48,97.63 130.16,91.96" fill="#222422" stroke="#222422" stroke-width="0.3"/><polygon points="63.05,45.40 63.05,66.74 65.84,46.92" fill="#1d1e1d" stroke="#1d1e1d" stroke-width="0.3"/><polygon points="105.65,105.02 115.42,110.37 115.42,106.10" fill="#1d1e1d" stroke="#1d1e1d" stroke-width="0.3"/><polygon points="126.48,93.36 130.16,91.96 130.16,87.69" fill="#222422" stroke="#222422" stroke-width="0.3"/><polygon points="122.79,99.03 122.79,103.30 126.48,97.63" fill="#222422" stroke="#222422" stroke-width="0.3"/><polygon points="74.78,40.94 63.05,45.40 65.84,46.92" fill="#242624" stroke="#242624" stroke-width="0.3"/><polygon points="122.79,99.03 126.48,97.63 126.48,93.36" fill="#222422" stroke="#222422" stroke-width="0.3"/><polygon points="119.11,104.70 119.11,108.97 122.79,103.30" fill="#222422" stroke="#222422" stroke-width="0.3"/><polygon points="126.48,89.09 116.71,83.75 122.79,90.49" fill="#242624" stroke="#242624" stroke-width="0.3"/><polygon points="113.02,85.15 109.34,86.55 119.11,91.89" fill="#242624" stroke="#242624" stroke-width="0.3"/><polygon points="119.11,104.70 122.79,103.30 122.79,99.03" fill="#222422" stroke="#222422" stroke-width="0.3"/><polygon points="105.65,92.22 105.65,96.49 115.42,97.56" fill="#1d1e1d" stroke="#1d1e1d" stroke-width="0.3"/><polygon points="126.48,89.09 126.48,93.36 130.16,87.69" fill="#222422" stroke="#222422" stroke-width="0.3"/><polygon points="115.42,110.37 119.11,108.97 119.11,104.70" fill="#222422" stroke="#222422" stroke-width="0.3"/><polygon points="105.65,100.76 115.42,106.10 115.42,101.83" fill="#1d1e1d" stroke="#1d1e1d" stroke-width="0.3"/><polygon points="122.79,94.76 122.79,99.03 126.48,93.36" fill="#222422" stroke="#222422" stroke-width="0.3"/><polygon points="122.79,94.76 126.48,93.36 126.48,89.09" fill="#222422" stroke="#222422" stroke-width="0.3"/><polygon points="119.11,100.43 119.11,104.70 122.79,99.03" fill="#222422" stroke="#222422" stroke-width="0.3"/><polygon points="115.42,106.10 115.42,110.37 119.11,104.70" fill="#222422" stroke="#222422" stroke-width="0.3"/><polygon points="119.11,100.43 122.79,99.03 122.79,94.76" fill="#222422" stroke="#222422" stroke-width="0.3"/><polygon points="122.79,90.49 113.02,85.15 119.11,91.89" fill="#242624" stroke="#242624" stroke-width="0.3"/><polygon points="109.34,86.55 105.65,87.95 115.42,93.29" fill="#242624" stroke="#242624" stroke-width="0.3"/><polygon points="105.65,87.95 105.65,92.22 115.42,93.29" fill="#1d1e1d" stroke="#1d1e1d" stroke-width="0.3"/><polygon points="115.42,106.10 119.11,104.70 119.11,100.43" fill="#222422" stroke="#222422" stroke-width="0.3"/><polygon points="105.65,96.49 115.42,101.83 115.42,97.56" fill="#1d1e1d" stroke="#1d1e1d" stroke-width="0.3"/><polygon points="122.79,90.49 122.79,94.76 126.48,89.09" fill="#222422" stroke="#222422" stroke-width="0.3"/><polygon points="119.11,96.16 119.11,100.43 122.79,94.76" fill="#222422" stroke="#222422" stroke-width="0.3"/><polygon points="115.42,101.83 115.42,106.10 119.11,100.43" fill="#222422" stroke="#222422" stroke-width="0.3"/><polygon points="119.11,96.16 122.79,94.76 122.79,90.49" fill="#222422" stroke="#222422" stroke-width="0.3"/><polygon points="115.42,101.83 119.11,100.43 119.11,96.16" fill="#222422" stroke="#222422" stroke-width="0.3"/><polygon points="119.11,91.89 109.34,86.55 115.42,93.29" fill="#242624" stroke="#242624" stroke-width="0.3"/><polygon points="105.65,92.22 115.42,97.56 115.42,93.29" fill="#1d1e1d" stroke="#1d1e1d" stroke-width="0.3"/><polygon points="119.11,91.89 119.11,96.16 122.79,90.49" fill="#222422" stroke="#222422" stroke-width="0.3"/><polygon points="115.42,97.56 115.42,101.83 119.11,96.16" fill="#222422" stroke="#222422" stroke-width="0.3"/><polygon points="115.42,97.56 119.11,96.16 119.11,91.89" fill="#222422" stroke="#222422" stroke-width="0.3"/><polygon points="115.42,93.29 115.42,97.56 119.11,91.89" fill="#222422" stroke="#222422" stroke-width="0.3"/><polygon points="103.43,123.19 148.09,147.62 98.24,119.15" fill="#2a2d2b" stroke="#2a2d2b" stroke-width="0.3"/><polygon points="124.45,67.39 169.12,91.82 130.99,68.76" fill="#353836" stroke="#353836" stroke-width="0.3"/><polygon points="98.24,119.15 142.90,143.58 94.91,112.84" fill="#2a2d2b" stroke="#2a2d2b" stroke-width="0.3"/><polygon points="117.21,68.81 161.87,93.24 124.45,67.39" fill="#353836" stroke="#353836" stroke-width="0.3"/><polygon points="94.91,112.84 139.57,137.28 93.76,104.88" fill="#2a2d2b" stroke="#2a2d2b" stroke-width="0.3"/><polygon points="109.96,72.89 154.63,97.32 117.21,68.81" fill="#343735" stroke="#343735" stroke-width="0.3"/><polygon points="175.66,137.15 180.84,129.17 161.87,120.41" fill="#313432" stroke="#313432" stroke-width="0.3"/><polygon points="180.84,129.17 184.17,120.33 161.87,120.41" fill="#313432" stroke="#313432" stroke-width="0.3"/><polygon points="169.12,143.49 175.66,137.15 161.87,120.41" fill="#313432" stroke="#313432" stroke-width="0.3"/><polygon points="93.76,104.88 138.42,129.32 94.91,96.05" fill="#2a2d2b" stroke="#2a2d2b" stroke-width="0.3"/><polygon points="184.17,120.33 185.32,111.50 161.87,120.41" fill="#313432" stroke="#313432" stroke-width="0.3"/><polygon points="169.12,91.82 175.66,93.19 130.99,68.76" fill="#353836" stroke="#353836" stroke-width="0.3"/><polygon points="148.09,147.62 142.90,143.58 98.24,119.15" fill="#2a2d2b" stroke="#2a2d2b" stroke-width="0.3"/><polygon points="103.43,79.23 148.09,103.67 109.96,72.89" fill="#323533" stroke="#323533" stroke-width="0.3"/><polygon points="161.87,147.58 169.12,143.49 161.87,120.41" fill="#313432" stroke="#313432" stroke-width="0.3"/><polygon points="94.91,96.05 139.57,120.49 98.24,87.21" fill="#2c2e2c" stroke="#2c2e2c" stroke-width="0.3"/><polygon points="185.32,111.50 184.17,103.54 161.87,120.41" fill="#313432" stroke="#313432" stroke-width="0.3"/><polygon points="98.24,87.21 142.90,111.65 103.43,79.23" fill="#2f3230" stroke="#2f3230" stroke-width="0.3"/><polygon points="154.63,149.00 161.87,147.58 161.87,120.41" fill="#313432" stroke="#313432" stroke-width="0.3"/><polygon points="184.17,103.54 180.84,97.23 161.87,120.41" fill="#313432" stroke="#313432" stroke-width="0.3"/><polygon points="161.87,93.24 169.12,91.82 124.45,67.39" fill="#353836" stroke="#353836" stroke-width="0.3"/><polygon points="142.90,143.58 139.57,137.28 94.91,112.84" fill="#2a2d2b" stroke="#2a2d2b" stroke-width="0.3"/><polygon points="148.09,147.62 154.63,149.00 161.87,120.41" fill="#313432" stroke="#313432" stroke-width="0.3"/><polygon points="180.84,97.23 175.66,93.19 161.87,120.41" fill="#313432" stroke="#313432" stroke-width="0.3"/><polygon points="154.63,97.32 161.87,93.24 117.21,68.81" fill="#343735" stroke="#343735" stroke-width="0.3"/><polygon points="139.57,137.28 138.42,129.32 93.76,104.88" fill="#2a2d2b" stroke="#2a2d2b" stroke-width="0.3"/><polygon points="142.90,143.58 148.09,147.62 161.87,120.41" fill="#313432" stroke="#313432" stroke-width="0.3"/><polygon points="175.66,93.19 169.12,91.82 161.87,120.41" fill="#313432" stroke="#313432" stroke-width="0.3"/><polygon points="148.09,103.67 154.63,97.32 109.96,72.89" fill="#323533" stroke="#323533" stroke-width="0.3"/><polygon points="138.42,129.32 139.57,120.49 94.91,96.05" fill="#2a2d2b" stroke="#2a2d2b" stroke-width="0.3"/><polygon points="142.90,111.65 148.09,103.67 103.43,79.23" fill="#2f3230" stroke="#2f3230" stroke-width="0.3"/><polygon points="139.57,120.49 142.90,111.65 98.24,87.21" fill="#2c2e2c" stroke="#2c2e2c" stroke-width="0.3"/><polygon points="139.57,137.28 142.90,143.58 161.87,120.41" fill="#313432" stroke="#313432" stroke-width="0.3"/><polygon points="169.12,91.82 161.87,93.24 161.87,120.41" fill="#313432" stroke="#313432" stroke-width="0.3"/><polygon points="138.42,129.32 139.57,137.28 161.87,120.41" fill="#313432" stroke="#313432" stroke-width="0.3"/><polygon points="161.87,93.24 154.63,97.32 161.87,120.41" fill="#313432" stroke="#313432" stroke-width="0.3"/><polygon points="139.57,120.49 138.42,129.32 161.87,120.41" fill="#313432" stroke="#313432" stroke-width="0.3"/><polygon points="154.63,97.32 148.09,103.67 161.87,120.41" fill="#313432" stroke="#313432" stroke-width="0.3"/><polygon points="142.90,111.65 139.57,120.49 161.87,120.41" fill="#313432" stroke="#313432" stroke-width="0.3"/><polygon points="148.09,103.67 142.90,111.65 161.87,120.41" fill="#313432" stroke="#313432" stroke-width="0.3"/></svg>
