<svg xmlns="http://www.w3.org/2000/svg" viewBox="0 0 240 168"><rect width="240" height="168" fill="#f3f3ec"/><ellipse cx="120" cy="148" rx="77" ry="8" fill="#24352e" opacity=".07"/><polygon points="101.76,74.67 125.13,65.79 125.13,55.64" fill="#e4e2dd" stroke="#e4e2dd" stroke-width="0.3"/><polygon points="101.76,64.52 125.13,55.64 125.13,45.49" fill="#e4e2dd" stroke="#e4e2dd" stroke-width="0.3"/><polygon points="101.76,64.52 101.76,74.67 125.13,55.64" fill="#e4e2dd" stroke="#e4e2dd" stroke-width="0.3"/><polygon points="101.76,54.36 125.13,45.49 125.13,35.33" fill="#e4e2dd" stroke="#e4e2dd" stroke-width="0.3"/><polygon points="101.76,54.36 101.76,64.52 125.13,45.49" fill="#e4e2dd" stroke="#e4e2dd" stroke-width="0.3"/><polygon points="122.15,23.54 121.15,23.00 98.78,32.42" fill="#f2f0ea" stroke="#f2f0ea" stroke-width="0.3"/><polygon points="101.76,44.21 125.13,35.33 125.13,25.18" fill="#e4e2dd" stroke="#e4e2dd" stroke-width="0.3"/><polygon points="123.14,24.09 122.15,23.54 99.77,32.97" fill="#f2f0ea" stroke="#f2f0ea" stroke-width="0.3"/><polygon points="78.39,83.55 101.76,74.67 101.76,64.52" fill="#e4e2dd" stroke="#e4e2dd" stroke-width="0.3"/><polygon points="121.15,44.93 97.78,53.81 120.58,66.28" fill="#d1cdc2" stroke="#d1cdc2" stroke-width="0.3"/><polygon points="124.14,24.63 123.14,24.09 100.77,33.51" fill="#f2f0ea" stroke="#f2f0ea" stroke-width="0.3"/><polygon points="101.76,44.21 101.76,54.36 125.13,35.33" fill="#e4e2dd" stroke="#e4e2dd" stroke-width="0.3"/><polygon points="125.13,25.18 124.14,24.63 101.76,34.06" fill="#f2f0ea" stroke="#f2f0ea" stroke-width="0.3"/><polygon points="143.95,57.40 121.15,44.93 120.58,66.28" fill="#d1cdc2" stroke="#d1cdc2" stroke-width="0.3"/><polygon points="121.15,23.00 97.78,31.88 98.78,32.42" fill="#f2f0ea" stroke="#f2f0ea" stroke-width="0.3"/><polygon points="122.15,23.54 98.78,32.42 99.77,32.97" fill="#f2f0ea" stroke="#f2f0ea" stroke-width="0.3"/><polygon points="78.39,73.39 101.76,64.52 101.76,54.36" fill="#e4e2dd" stroke="#e4e2dd" stroke-width="0.3"/><polygon points="123.14,24.09 99.77,32.97 100.77,33.51" fill="#f2f0ea" stroke="#f2f0ea" stroke-width="0.3"/><polygon points="101.76,34.06 101.76,44.21 125.13,25.18" fill="#e4e2dd" stroke="#e4e2dd" stroke-width="0.3"/><polygon points="124.14,24.63 100.77,33.51 101.76,34.06" fill="#f2f0ea" stroke="#f2f0ea" stroke-width="0.3"/><polygon points="78.39,73.39 78.39,83.55 101.76,64.52" fill="#e4e2dd" stroke="#e4e2dd" stroke-width="0.3"/><polygon points="78.39,63.24 101.76,54.36 101.76,44.21" fill="#e4e2dd" stroke="#e4e2dd" stroke-width="0.3"/><polygon points="121.86,37.69 100.35,45.86 121.37,57.36" fill="#f2f0e8" stroke="#f2f0e8" stroke-width="0.3"/><polygon points="78.39,63.24 78.39,73.39 101.76,54.36" fill="#e4e2dd" stroke="#e4e2dd" stroke-width="0.3"/><polygon points="142.88,49.19 121.86,37.69 121.37,57.36" fill="#f2f0e8" stroke="#f2f0e8" stroke-width="0.3"/><polygon points="98.78,32.42 97.78,31.88 75.41,41.30" fill="#f2f0ea" stroke="#f2f0ea" stroke-width="0.3"/><polygon points="78.39,53.09 101.76,44.21 101.76,34.06" fill="#e4e2dd" stroke="#e4e2dd" stroke-width="0.3"/><polygon points="99.77,32.97 98.78,32.42 76.40,41.84" fill="#f2f0ea" stroke="#f2f0ea" stroke-width="0.3"/><polygon points="55.02,92.43 78.39,83.55 78.39,73.39" fill="#e4e2dd" stroke="#e4e2dd" stroke-width="0.3"/><polygon points="97.78,53.81 74.41,62.69 97.21,75.16" fill="#d1cdc2" stroke="#d1cdc2" stroke-width="0.3"/><polygon points="100.77,33.51 99.77,32.97 77.40,42.39" fill="#f2f0ea" stroke="#f2f0ea" stroke-width="0.3"/><polygon points="78.39,53.09 78.39,63.24 101.76,44.21" fill="#e4e2dd" stroke="#e4e2dd" stroke-width="0.3"/><polygon points="101.76,34.06 100.77,33.51 78.39,42.93" fill="#f2f0ea" stroke="#f2f0ea" stroke-width="0.3"/><polygon points="120.58,66.28 97.78,53.81 97.21,75.16" fill="#d1cdc2" stroke="#d1cdc2" stroke-width="0.3"/><polygon points="97.78,31.88 74.41,40.76 75.41,41.30" fill="#f2f0ea" stroke="#f2f0ea" stroke-width="0.3"/><polygon points="122.15,42.25 117.95,39.95 106.66,48.13" fill="#dbd6cb" stroke="#dbd6cb" stroke-width="0.3"/><polygon points="98.78,32.42 75.41,41.30 76.40,41.84" fill="#f2f0ea" stroke="#f2f0ea" stroke-width="0.3"/><polygon points="55.02,82.27 78.39,73.39 78.39,63.24" fill="#e4e2dd" stroke="#e4e2dd" stroke-width="0.3"/><polygon points="99.77,32.97 76.40,41.84 77.40,42.39" fill="#f2f0ea" stroke="#f2f0ea" stroke-width="0.3"/><polygon points="78.39,42.93 78.39,53.09 101.76,34.06" fill="#e4e2dd" stroke="#e4e2dd" stroke-width="0.3"/><polygon points="117.95,39.95 102.46,45.83 106.66,48.13" fill="#dbd6cb" stroke="#dbd6cb" stroke-width="0.3"/><polygon points="100.77,33.51 77.40,42.39 78.39,42.93" fill="#f2f0ea" stroke="#f2f0ea" stroke-width="0.3"/><polygon points="143.95,57.40 120.58,66.28 143.37,78.75" fill="#d1cdc2" stroke="#d1cdc2" stroke-width="0.3"/><polygon points="55.02,82.27 55.02,92.43 78.39,73.39" fill="#e4e2dd" stroke="#e4e2dd" stroke-width="0.3"/><polygon points="126.36,44.55 122.15,42.25 110.87,50.43" fill="#dbd6cb" stroke="#dbd6cb" stroke-width="0.3"/><polygon points="166.74,69.87 143.95,57.40 143.37,78.75" fill="#d1cdc2" stroke="#d1cdc2" stroke-width="0.3"/><polygon points="100.35,45.86 78.84,54.03 99.86,65.53" fill="#f2f0e8" stroke="#f2f0e8" stroke-width="0.3"/><polygon points="55.02,72.12 78.39,63.24 78.39,53.09" fill="#e4e2dd" stroke="#e4e2dd" stroke-width="0.3"/><polygon points="122.15,42.25 106.66,48.13 110.87,50.43" fill="#dbd6cb" stroke="#dbd6cb" stroke-width="0.3"/><polygon points="121.37,57.36 100.35,45.86 99.86,65.53" fill="#f2f0e8" stroke="#f2f0e8" stroke-width="0.3"/><polygon points="55.02,72.12 55.02,82.27 78.39,63.24" fill="#e4e2dd" stroke="#e4e2dd" stroke-width="0.3"/><polygon points="130.56,46.85 126.36,44.55 115.07,52.73" fill="#dbd6cb" stroke="#dbd6cb" stroke-width="0.3"/><polygon points="119.28,63.64 134.77,57.76 134.77,55.61" fill="#cecabf" stroke="#cecabf" stroke-width="0.3"/><polygon points="126.36,44.55 110.87,50.43 115.07,52.73" fill="#dbd6cb" stroke="#dbd6cb" stroke-width="0.3"/><polygon points="75.41,41.30 74.41,40.76 52.04,50.18" fill="#f2f0ea" stroke="#f2f0ea" stroke-width="0.3"/><polygon points="55.02,61.97 78.39,53.09 78.39,42.93" fill="#e4e2dd" stroke="#e4e2dd" stroke-width="0.3"/><polygon points="106.66,48.13 102.46,45.83 91.18,54.01" fill="#dbd6cb" stroke="#dbd6cb" stroke-width="0.3"/><polygon points="119.28,61.49 134.77,55.61 134.77,53.45" fill="#cecabf" stroke="#cecabf" stroke-width="0.3"/><polygon points="76.40,41.84 75.41,41.30 53.03,50.72" fill="#f2f0ea" stroke="#f2f0ea" stroke-width="0.3"/><polygon points="142.88,49.19 121.37,57.36 142.40,68.86" fill="#f2f0e8" stroke="#f2f0e8" stroke-width="0.3"/><polygon points="31.65,101.30 55.02,92.43 55.02,82.27" fill="#e4e2dd" stroke="#e4e2dd" stroke-width="0.3"/><polygon points="119.28,59.34 134.77,53.45 134.77,51.30" fill="#cecabf" stroke="#cecabf" stroke-width="0.3"/><polygon points="74.41,62.69 51.04,71.56 73.84,84.03" fill="#d1cdc2" stroke="#d1cdc2" stroke-width="0.3"/><polygon points="77.40,42.39 76.40,41.84 54.03,51.27" fill="#f2f0ea" stroke="#f2f0ea" stroke-width="0.3"/><polygon points="134.77,49.15 130.56,46.85 119.28,55.03" fill="#dbd6cb" stroke="#dbd6cb" stroke-width="0.3"/><polygon points="55.02,61.97 55.02,72.12 78.39,53.09" fill="#e4e2dd" stroke="#e4e2dd" stroke-width="0.3"/><polygon points="102.46,45.83 86.97,51.71 91.18,54.01" fill="#dbd6cb" stroke="#dbd6cb" stroke-width="0.3"/><polygon points="119.28,57.18 134.77,51.30 134.77,49.15" fill="#cecabf" stroke="#cecabf" stroke-width="0.3"/><polygon points="78.39,42.93 77.40,42.39 55.02,51.81" fill="#f2f0ea" stroke="#f2f0ea" stroke-width="0.3"/><polygon points="163.91,60.69 142.88,49.19 142.40,68.86" fill="#f2f0e8" stroke="#f2f0e8" stroke-width="0.3"/><polygon points="119.28,61.49 119.28,63.64 134.77,55.61" fill="#cecabf" stroke="#cecabf" stroke-width="0.3"/><polygon points="97.21,75.16 74.41,62.69 73.84,84.03" fill="#d1cdc2" stroke="#d1cdc2" stroke-width="0.3"/><polygon points="130.56,46.85 115.07,52.73 119.28,55.03" fill="#dbd6cb" stroke="#dbd6cb" stroke-width="0.3"/><polygon points="110.87,50.43 106.66,48.13 95.38,56.31" fill="#dbd6cb" stroke="#dbd6cb" stroke-width="0.3"/><polygon points="119.28,59.34 119.28,61.49 134.77,53.45" fill="#cecabf" stroke="#cecabf" stroke-width="0.3"/><polygon points="74.41,40.76 51.04,49.63 52.04,50.18" fill="#f2f0ea" stroke="#f2f0ea" stroke-width="0.3"/><polygon points="119.28,57.18 119.28,59.34 134.77,51.30" fill="#cecabf" stroke="#cecabf" stroke-width="0.3"/><polygon points="75.41,41.30 52.04,50.18 53.03,50.72" fill="#f2f0ea" stroke="#f2f0ea" stroke-width="0.3"/><polygon points="106.66,48.13 91.18,54.01 95.38,56.31" fill="#dbd6cb" stroke="#dbd6cb" stroke-width="0.3"/><polygon points="31.65,91.15 55.02,82.27 55.02,72.12" fill="#e4e2dd" stroke="#e4e2dd" stroke-width="0.3"/><polygon points="119.28,55.03 119.28,57.18 134.77,49.15" fill="#cecabf" stroke="#cecabf" stroke-width="0.3"/><polygon points="76.40,41.84 53.03,50.72 54.03,51.27" fill="#f2f0ea" stroke="#f2f0ea" stroke-width="0.3"/><polygon points="55.02,51.81 55.02,61.97 78.39,42.93" fill="#e4e2dd" stroke="#e4e2dd" stroke-width="0.3"/><polygon points="77.40,42.39 54.03,51.27 55.02,51.81" fill="#f2f0ea" stroke="#f2f0ea" stroke-width="0.3"/><polygon points="120.58,66.28 97.21,75.16 120.00,87.62" fill="#d1cdc2" stroke="#d1cdc2" stroke-width="0.3"/><polygon points="115.07,52.73 110.87,50.43 99.59,58.61" fill="#dbd6cb" stroke="#dbd6cb" stroke-width="0.3"/><polygon points="31.65,91.15 31.65,101.30 55.02,82.27" fill="#e4e2dd" stroke="#e4e2dd" stroke-width="0.3"/><polygon points="27.67,99.12 28.67,99.67 28.67,89.52" fill="#cac9c3" stroke="#cac9c3" stroke-width="0.3"/><polygon points="78.84,54.03 57.33,62.20 78.35,73.70" fill="#f2f0e8" stroke="#f2f0e8" stroke-width="0.3"/><polygon points="28.67,99.67 29.66,100.21 29.66,90.06" fill="#cac9c3" stroke="#cac9c3" stroke-width="0.3"/><polygon points="103.79,69.53 119.28,63.64 119.28,61.49" fill="#cecabf" stroke="#cecabf" stroke-width="0.3"/><polygon points="27.67,88.97 27.67,99.12 28.67,89.52" fill="#cac9c3" stroke="#cac9c3" stroke-width="0.3"/><polygon points="143.37,78.75 120.58,66.28 120.00,87.62" fill="#d1cdc2" stroke="#d1cdc2" stroke-width="0.3"/><polygon points="110.87,50.43 95.38,56.31 99.59,58.61" fill="#dbd6cb" stroke="#dbd6cb" stroke-width="0.3"/><polygon points="91.18,54.01 86.97,51.71 75.69,59.90" fill="#dbd6cb" stroke="#dbd6cb" stroke-width="0.3"/><polygon points="29.66,100.21 30.66,100.76 30.66,90.61" fill="#cac9c3" stroke="#cac9c3" stroke-width="0.3"/><polygon points="103.79,67.37 119.28,61.49 119.28,59.34" fill="#cecabf" stroke="#cecabf" stroke-width="0.3"/><polygon points="31.65,81.00 55.02,72.12 55.02,61.97" fill="#e4e2dd" stroke="#e4e2dd" stroke-width="0.3"/><polygon points="28.67,89.52 28.67,99.67 29.66,90.06" fill="#cac9c3" stroke="#cac9c3" stroke-width="0.3"/><polygon points="99.86,65.53 78.84,54.03 78.35,73.70" fill="#f2f0e8" stroke="#f2f0e8" stroke-width="0.3"/><polygon points="30.66,100.76 31.65,101.30 31.65,91.15" fill="#cac9c3" stroke="#cac9c3" stroke-width="0.3"/><polygon points="103.79,65.22 119.28,59.34 119.28,57.18" fill="#cecabf" stroke="#cecabf" stroke-width="0.3"/><polygon points="29.66,90.06 29.66,100.21 30.66,90.61" fill="#cac9c3" stroke="#cac9c3" stroke-width="0.3"/><polygon points="119.28,55.03 115.07,52.73 103.79,60.91" fill="#dbd6cb" stroke="#dbd6cb" stroke-width="0.3"/><polygon points="86.97,51.71 71.48,57.60 75.69,59.90" fill="#dbd6cb" stroke="#dbd6cb" stroke-width="0.3"/><polygon points="30.66,90.61 30.66,100.76 31.65,91.15" fill="#cac9c3" stroke="#cac9c3" stroke-width="0.3"/><polygon points="103.79,63.07 119.28,57.18 119.28,55.03" fill="#cecabf" stroke="#cecabf" stroke-width="0.3"/><polygon points="31.65,81.00 31.65,91.15 55.02,72.12" fill="#e4e2dd" stroke="#e4e2dd" stroke-width="0.3"/><polygon points="27.67,88.97 28.67,89.52 28.67,79.36" fill="#cac9c3" stroke="#cac9c3" stroke-width="0.3"/><polygon points="103.79,67.37 103.79,69.53 119.28,61.49" fill="#cecabf" stroke="#cecabf" stroke-width="0.3"/><polygon points="166.74,69.87 143.37,78.75 166.16,91.22" fill="#d1cdc2" stroke="#d1cdc2" stroke-width="0.3"/><polygon points="115.07,52.73 99.59,58.61 103.79,60.91" fill="#dbd6cb" stroke="#dbd6cb" stroke-width="0.3"/><polygon points="28.67,89.52 29.66,90.06 29.66,79.91" fill="#cac9c3" stroke="#cac9c3" stroke-width="0.3"/><polygon points="95.38,56.31 91.18,54.01 79.89,62.20" fill="#dbd6cb" stroke="#dbd6cb" stroke-width="0.3"/><polygon points="103.79,65.22 103.79,67.37 119.28,59.34" fill="#cecabf" stroke="#cecabf" stroke-width="0.3"/><polygon points="27.67,78.82 27.67,88.97 28.67,79.36" fill="#cac9c3" stroke="#cac9c3" stroke-width="0.3"/><polygon points="27.67,94.45 27.67,99.12 50.47,106.92" fill="#aeaba1" stroke="#aeaba1" stroke-width="0.3"/><polygon points="29.66,90.06 30.66,90.61 30.66,80.45" fill="#cac9c3" stroke="#cac9c3" stroke-width="0.3"/><polygon points="121.37,57.36 99.86,65.53 120.89,77.03" fill="#f2f0e8" stroke="#f2f0e8" stroke-width="0.3"/><polygon points="52.04,50.18 51.04,49.63 28.67,59.05" fill="#f2f0ea" stroke="#f2f0ea" stroke-width="0.3"/><polygon points="31.65,70.84 55.02,61.97 55.02,51.81" fill="#e4e2dd" stroke="#e4e2dd" stroke-width="0.3"/><polygon points="28.67,79.36 28.67,89.52 29.66,79.91" fill="#cac9c3" stroke="#cac9c3" stroke-width="0.3"/><polygon points="103.79,63.07 103.79,65.22 119.28,57.18" fill="#cecabf" stroke="#cecabf" stroke-width="0.3"/><polygon points="30.66,90.61 31.65,91.15 31.65,81.00" fill="#cac9c3" stroke="#cac9c3" stroke-width="0.3"/><polygon points="189.53,82.34 166.74,69.87 166.16,91.22" fill="#d1cdc2" stroke="#d1cdc2" stroke-width="0.3"/><polygon points="53.03,50.72 52.04,50.18 29.66,59.60" fill="#f2f0ea" stroke="#f2f0ea" stroke-width="0.3"/><polygon points="91.18,54.01 75.69,59.90 79.89,62.20" fill="#dbd6cb" stroke="#dbd6cb" stroke-width="0.3"/><polygon points="29.66,79.91 29.66,90.06 30.66,80.45" fill="#cac9c3" stroke="#cac9c3" stroke-width="0.3"/><polygon points="103.79,60.91 103.79,63.07 119.28,55.03" fill="#cecabf" stroke="#cecabf" stroke-width="0.3"/><polygon points="51.04,71.56 27.67,80.44 50.47,92.91" fill="#d1cdc2" stroke="#d1cdc2" stroke-width="0.3"/><polygon points="54.03,51.27 53.03,50.72 30.66,60.14" fill="#f2f0ea" stroke="#f2f0ea" stroke-width="0.3"/><polygon points="142.40,68.86 121.37,57.36 120.89,77.03" fill="#f2f0e8" stroke="#f2f0e8" stroke-width="0.3"/><polygon points="27.67,89.78 27.67,94.45 50.47,102.25" fill="#aeaba1" stroke="#aeaba1" stroke-width="0.3"/><polygon points="30.66,80.45 30.66,90.61 31.65,81.00" fill="#cac9c3" stroke="#cac9c3" stroke-width="0.3"/><polygon points="31.65,70.84 31.65,81.00 55.02,61.97" fill="#e4e2dd" stroke="#e4e2dd" stroke-width="0.3"/><polygon points="27.67,78.82 28.67,79.36 28.67,69.21" fill="#cac9c3" stroke="#cac9c3" stroke-width="0.3"/><polygon points="55.02,51.81 54.03,51.27 31.65,60.69" fill="#f2f0ea" stroke="#f2f0ea" stroke-width="0.3"/><polygon points="99.59,58.61 95.38,56.31 84.10,64.50" fill="#dbd6cb" stroke="#dbd6cb" stroke-width="0.3"/><polygon points="28.67,79.36 29.66,79.91 29.66,69.75" fill="#cac9c3" stroke="#cac9c3" stroke-width="0.3"/><polygon points="27.67,68.66 27.67,78.82 28.67,69.21" fill="#cac9c3" stroke="#cac9c3" stroke-width="0.3"/><polygon points="73.84,84.03 51.04,71.56 50.47,92.91" fill="#d1cdc2" stroke="#d1cdc2" stroke-width="0.3"/><polygon points="27.67,85.11 27.67,89.78 50.47,97.58" fill="#aeaba1" stroke="#aeaba1" stroke-width="0.3"/><polygon points="29.66,79.91 30.66,80.45 30.66,70.30" fill="#cac9c3" stroke="#cac9c3" stroke-width="0.3"/><polygon points="88.30,75.41 103.79,69.53 103.79,67.37" fill="#cecabf" stroke="#cecabf" stroke-width="0.3"/><polygon points="28.67,69.21 28.67,79.36 29.66,69.75" fill="#cac9c3" stroke="#cac9c3" stroke-width="0.3"/><polygon points="51.04,49.63 27.67,58.51 28.67,59.05" fill="#f2f0ea" stroke="#f2f0ea" stroke-width="0.3"/><polygon points="95.38,56.31 79.89,62.20 84.10,64.50" fill="#dbd6cb" stroke="#dbd6cb" stroke-width="0.3"/><polygon points="75.69,59.90 71.48,57.60 60.20,65.78" fill="#dbd6cb" stroke="#dbd6cb" stroke-width="0.3"/><polygon points="30.66,80.45 31.65,81.00 31.65,70.84" fill="#cac9c3" stroke="#cac9c3" stroke-width="0.3"/><polygon points="88.30,73.26 103.79,67.37 103.79,65.22" fill="#cecabf" stroke="#cecabf" stroke-width="0.3"/><polygon points="29.66,69.75 29.66,79.91 30.66,70.30" fill="#cac9c3" stroke="#cac9c3" stroke-width="0.3"/><polygon points="163.91,60.69 142.40,68.86 163.42,80.36" fill="#f2f0e8" stroke="#f2f0e8" stroke-width="0.3"/><polygon points="52.04,50.18 28.67,59.05 29.66,59.60" fill="#f2f0ea" stroke="#f2f0ea" stroke-width="0.3"/><polygon points="27.67,80.44 27.67,85.11 50.47,92.91" fill="#aeaba1" stroke="#aeaba1" stroke-width="0.3"/><polygon points="27.67,99.12 50.47,111.59 50.47,106.92" fill="#aeaba1" stroke="#aeaba1" stroke-width="0.3"/><polygon points="88.30,71.10 103.79,65.22 103.79,63.07" fill="#cecabf" stroke="#cecabf" stroke-width="0.3"/><polygon points="30.66,70.30 30.66,80.45 31.65,70.84" fill="#cac9c3" stroke="#cac9c3" stroke-width="0.3"/><polygon points="53.03,50.72 29.66,59.60 30.66,60.14" fill="#f2f0ea" stroke="#f2f0ea" stroke-width="0.3"/><polygon points="31.65,60.69 31.65,70.84 55.02,51.81" fill="#e4e2dd" stroke="#e4e2dd" stroke-width="0.3"/><polygon points="103.79,60.91 99.59,58.61 88.30,66.80" fill="#dbd6cb" stroke="#dbd6cb" stroke-width="0.3"/><polygon points="27.67,68.66 28.67,69.21 28.67,59.05" fill="#cac9c3" stroke="#cac9c3" stroke-width="0.3"/><polygon points="71.48,57.60 56.00,63.48 60.20,65.78" fill="#dbd6cb" stroke="#dbd6cb" stroke-width="0.3"/><polygon points="56.00,69.94 56.00,72.09 60.20,72.24" fill="#b7b2a9" stroke="#b7b2a9" stroke-width="0.3"/><polygon points="88.30,68.95 103.79,63.07 103.79,60.91" fill="#cecabf" stroke="#cecabf" stroke-width="0.3"/><polygon points="54.03,51.27 30.66,60.14 31.65,60.69" fill="#f2f0ea" stroke="#f2f0ea" stroke-width="0.3"/><polygon points="184.93,72.19 163.91,60.69 163.42,80.36" fill="#f2f0e8" stroke="#f2f0e8" stroke-width="0.3"/><polygon points="97.21,75.16 73.84,84.03 96.63,96.50" fill="#d1cdc2" stroke="#d1cdc2" stroke-width="0.3"/><polygon points="28.67,69.21 29.66,69.75 29.66,59.60" fill="#cac9c3" stroke="#cac9c3" stroke-width="0.3"/><polygon points="56.00,67.79 56.00,69.94 60.20,70.09" fill="#b7b2a9" stroke="#b7b2a9" stroke-width="0.3"/><polygon points="57.33,62.20 35.82,70.37 56.84,81.87" fill="#f2f0e8" stroke="#f2f0e8" stroke-width="0.3"/><polygon points="56.00,72.09 60.20,74.39 60.20,72.24" fill="#b7b2a9" stroke="#b7b2a9" stroke-width="0.3"/><polygon points="88.30,73.26 88.30,75.41 103.79,67.37" fill="#cecabf" stroke="#cecabf" stroke-width="0.3"/><polygon points="27.67,94.45 50.47,106.92 50.47,102.25" fill="#aeaba1" stroke="#aeaba1" stroke-width="0.3"/><polygon points="27.67,58.51 27.67,68.66 28.67,59.05" fill="#cac9c3" stroke="#cac9c3" stroke-width="0.3"/><polygon points="35.82,78.68 35.82,81.45 56.84,90.18" fill="#cac9c2" stroke="#cac9c2" stroke-width="0.3"/><polygon points="99.59,58.61 84.10,64.50 88.30,66.80" fill="#dbd6cb" stroke="#dbd6cb" stroke-width="0.3"/><polygon points="29.66,69.75 30.66,70.30 30.66,60.14" fill="#cac9c3" stroke="#cac9c3" stroke-width="0.3"/><polygon points="79.89,62.20 75.69,59.90 64.41,68.08" fill="#dbd6cb" stroke="#dbd6cb" stroke-width="0.3"/><polygon points="56.00,65.63 56.00,67.79 60.20,67.93" fill="#b7b2a9" stroke="#b7b2a9" stroke-width="0.3"/><polygon points="56.00,69.94 60.20,72.24 60.20,70.09" fill="#b7b2a9" stroke="#b7b2a9" stroke-width="0.3"/><polygon points="28.67,59.05 28.67,69.21 29.66,59.60" fill="#cac9c3" stroke="#cac9c3" stroke-width="0.3"/><polygon points="88.30,71.10 88.30,73.26 103.79,65.22" fill="#cecabf" stroke="#cecabf" stroke-width="0.3"/><polygon points="30.66,70.30 31.65,70.84 31.65,60.69" fill="#cac9c3" stroke="#cac9c3" stroke-width="0.3"/><polygon points="120.00,87.62 97.21,75.16 96.63,96.50" fill="#d1cdc2" stroke="#d1cdc2" stroke-width="0.3"/><polygon points="35.82,75.91 35.82,78.68 56.84,87.41" fill="#cac9c2" stroke="#cac9c2" stroke-width="0.3"/><polygon points="78.35,73.70 57.33,62.20 56.84,81.87" fill="#f2f0e8" stroke="#f2f0e8" stroke-width="0.3"/><polygon points="29.66,59.60 29.66,69.75 30.66,60.14" fill="#cac9c3" stroke="#cac9c3" stroke-width="0.3"/><polygon points="56.00,63.48 56.00,65.63 60.20,65.78" fill="#b7b2a9" stroke="#b7b2a9" stroke-width="0.3"/><polygon points="56.00,67.79 60.20,70.09 60.20,67.93" fill="#b7b2a9" stroke="#b7b2a9" stroke-width="0.3"/><polygon points="88.30,68.95 88.30,71.10 103.79,63.07" fill="#cecabf" stroke="#cecabf" stroke-width="0.3"/><polygon points="27.67,89.78 50.47,102.25 50.47,97.58" fill="#aeaba1" stroke="#aeaba1" stroke-width="0.3"/><polygon points="75.69,59.90 60.20,65.78 64.41,68.08" fill="#dbd6cb" stroke="#dbd6cb" stroke-width="0.3"/><polygon points="30.66,60.14 30.66,70.30 31.65,60.69" fill="#cac9c3" stroke="#cac9c3" stroke-width="0.3"/><polygon points="56.00,65.63 60.20,67.93 60.20,65.78" fill="#b7b2a9" stroke="#b7b2a9" stroke-width="0.3"/><polygon points="88.30,66.80 88.30,68.95 103.79,60.91" fill="#cecabf" stroke="#cecabf" stroke-width="0.3"/><polygon points="60.20,72.24 60.20,74.39 64.41,74.54" fill="#b7b2a9" stroke="#b7b2a9" stroke-width="0.3"/><polygon points="35.82,73.14 35.82,75.91 56.84,84.64" fill="#cac9c2" stroke="#cac9c2" stroke-width="0.3"/><polygon points="60.20,70.09 60.20,72.24 64.41,72.39" fill="#b7b2a9" stroke="#b7b2a9" stroke-width="0.3"/><polygon points="60.20,74.39 64.41,76.69 64.41,74.54" fill="#b7b2a9" stroke="#b7b2a9" stroke-width="0.3"/><polygon points="27.67,85.11 50.47,97.58 50.47,92.91" fill="#aeaba1" stroke="#aeaba1" stroke-width="0.3"/><polygon points="35.82,70.37 35.82,73.14 56.84,81.87" fill="#cac9c2" stroke="#cac9c2" stroke-width="0.3"/><polygon points="84.10,64.50 79.89,62.20 68.61,70.38" fill="#dbd6cb" stroke="#dbd6cb" stroke-width="0.3"/><polygon points="60.20,67.93 60.20,70.09 64.41,70.23" fill="#b7b2a9" stroke="#b7b2a9" stroke-width="0.3"/><polygon points="60.20,72.24 64.41,74.54 64.41,72.39" fill="#b7b2a9" stroke="#b7b2a9" stroke-width="0.3"/><polygon points="99.86,65.53 78.35,73.70 99.37,85.20" fill="#f2f0e8" stroke="#f2f0e8" stroke-width="0.3"/><polygon points="143.37,78.75 120.00,87.62 142.79,100.09" fill="#d1cdc2" stroke="#d1cdc2" stroke-width="0.3"/><polygon points="60.20,65.78 60.20,67.93 64.41,68.08" fill="#b7b2a9" stroke="#b7b2a9" stroke-width="0.3"/><polygon points="60.20,70.09 64.41,72.39 64.41,70.23" fill="#b7b2a9" stroke="#b7b2a9" stroke-width="0.3"/><polygon points="72.82,81.29 88.30,75.41 88.30,73.26" fill="#cecabf" stroke="#cecabf" stroke-width="0.3"/><polygon points="35.82,81.45 56.84,92.95 56.84,90.18" fill="#cac9c2" stroke="#cac9c2" stroke-width="0.3"/><polygon points="79.89,62.20 64.41,68.08 68.61,70.38" fill="#dbd6cb" stroke="#dbd6cb" stroke-width="0.3"/><polygon points="60.20,67.93 64.41,70.23 64.41,68.08" fill="#b7b2a9" stroke="#b7b2a9" stroke-width="0.3"/><polygon points="64.41,74.54 64.41,76.69 68.61,76.84" fill="#b7b2a9" stroke="#b7b2a9" stroke-width="0.3"/><polygon points="72.82,79.14 88.30,73.26 88.30,71.10" fill="#cecabf" stroke="#cecabf" stroke-width="0.3"/><polygon points="120.89,77.03 99.86,65.53 99.37,85.20" fill="#f2f0e8" stroke="#f2f0e8" stroke-width="0.3"/><polygon points="166.16,91.22 143.37,78.75 142.79,100.09" fill="#d1cdc2" stroke="#d1cdc2" stroke-width="0.3"/><polygon points="64.41,72.39 64.41,74.54 68.61,74.69" fill="#b7b2a9" stroke="#b7b2a9" stroke-width="0.3"/><polygon points="64.41,76.69 68.61,78.99 68.61,76.84" fill="#b7b2a9" stroke="#b7b2a9" stroke-width="0.3"/><polygon points="35.82,78.68 56.84,90.18 56.84,87.41" fill="#cac9c2" stroke="#cac9c2" stroke-width="0.3"/><polygon points="72.82,76.99 88.30,71.10 88.30,68.95" fill="#cecabf" stroke="#cecabf" stroke-width="0.3"/><polygon points="88.30,66.80 84.10,64.50 72.82,72.68" fill="#dbd6cb" stroke="#dbd6cb" stroke-width="0.3"/><polygon points="64.41,70.23 64.41,72.39 68.61,72.53" fill="#b7b2a9" stroke="#b7b2a9" stroke-width="0.3"/><polygon points="64.41,74.54 68.61,76.84 68.61,74.69" fill="#b7b2a9" stroke="#b7b2a9" stroke-width="0.3"/><polygon points="35.82,75.91 56.84,87.41 56.84,84.64" fill="#cac9c2" stroke="#cac9c2" stroke-width="0.3"/><polygon points="72.82,74.83 88.30,68.95 88.30,66.80" fill="#cecabf" stroke="#cecabf" stroke-width="0.3"/><polygon points="64.41,68.08 64.41,70.23 68.61,70.38" fill="#b7b2a9" stroke="#b7b2a9" stroke-width="0.3"/><polygon points="64.41,72.39 68.61,74.69 68.61,72.53" fill="#b7b2a9" stroke="#b7b2a9" stroke-width="0.3"/><polygon points="72.82,79.14 72.82,81.29 88.30,73.26" fill="#cecabf" stroke="#cecabf" stroke-width="0.3"/><polygon points="35.82,73.14 56.84,84.64 56.84,81.87" fill="#cac9c2" stroke="#cac9c2" stroke-width="0.3"/><polygon points="84.10,64.50 68.61,70.38 72.82,72.68" fill="#dbd6cb" stroke="#dbd6cb" stroke-width="0.3"/><polygon points="64.41,70.23 68.61,72.53 68.61,70.38" fill="#b7b2a9" stroke="#b7b2a9" stroke-width="0.3"/><polygon points="68.61,76.84 68.61,78.99 72.82,79.14" fill="#b7b2a9" stroke="#b7b2a9" stroke-width="0.3"/><polygon points="72.82,76.99 72.82,79.14 88.30,71.10" fill="#cecabf" stroke="#cecabf" stroke-width="0.3"/><polygon points="142.40,68.86 120.89,77.03 141.91,88.53" fill="#f2f0e8" stroke="#f2f0e8" stroke-width="0.3"/><polygon points="68.61,74.69 68.61,76.84 72.82,76.99" fill="#b7b2a9" stroke="#b7b2a9" stroke-width="0.3"/><polygon points="68.61,78.99 72.82,81.29 72.82,79.14" fill="#b7b2a9" stroke="#b7b2a9" stroke-width="0.3"/><polygon points="189.53,82.34 166.16,91.22 188.96,103.68" fill="#d1cdc2" stroke="#d1cdc2" stroke-width="0.3"/><polygon points="72.82,74.83 72.82,76.99 88.30,68.95" fill="#cecabf" stroke="#cecabf" stroke-width="0.3"/><polygon points="68.61,72.53 68.61,74.69 72.82,74.83" fill="#b7b2a9" stroke="#b7b2a9" stroke-width="0.3"/><polygon points="68.61,76.84 72.82,79.14 72.82,76.99" fill="#b7b2a9" stroke="#b7b2a9" stroke-width="0.3"/><polygon points="50.47,106.92 50.47,111.59 73.26,119.39" fill="#aeaba1" stroke="#aeaba1" stroke-width="0.3"/><polygon points="72.82,72.68 72.82,74.83 88.30,66.80" fill="#cecabf" stroke="#cecabf" stroke-width="0.3"/><polygon points="163.42,80.36 142.40,68.86 141.91,88.53" fill="#f2f0e8" stroke="#f2f0e8" stroke-width="0.3"/><polygon points="188.96,122.37 212.33,113.49 212.33,108.82" fill="#c5c1b6" stroke="#c5c1b6" stroke-width="0.3"/><polygon points="68.61,70.38 68.61,72.53 72.82,72.68" fill="#b7b2a9" stroke="#b7b2a9" stroke-width="0.3"/><polygon points="68.61,74.69 72.82,76.99 72.82,74.83" fill="#b7b2a9" stroke="#b7b2a9" stroke-width="0.3"/><polygon points="212.33,94.81 189.53,82.34 188.96,103.68" fill="#d1cdc2" stroke="#d1cdc2" stroke-width="0.3"/><polygon points="68.61,72.53 72.82,74.83 72.82,72.68" fill="#b7b2a9" stroke="#b7b2a9" stroke-width="0.3"/><polygon points="73.84,84.03 50.47,92.91 73.26,105.38" fill="#d1cdc2" stroke="#d1cdc2" stroke-width="0.3"/><polygon points="50.47,102.25 50.47,106.92 73.26,114.72" fill="#aeaba1" stroke="#aeaba1" stroke-width="0.3"/><polygon points="188.96,117.70 212.33,108.82 212.33,104.15" fill="#c5c1b6" stroke="#c5c1b6" stroke-width="0.3"/><polygon points="96.63,96.50 73.84,84.03 73.26,105.38" fill="#d1cdc2" stroke="#d1cdc2" stroke-width="0.3"/><polygon points="50.47,97.58 50.47,102.25 73.26,110.05" fill="#aeaba1" stroke="#aeaba1" stroke-width="0.3"/><polygon points="184.93,72.19 163.42,80.36 184.44,91.86" fill="#f2f0e8" stroke="#f2f0e8" stroke-width="0.3"/><polygon points="188.96,113.03 212.33,104.15 212.33,99.48" fill="#c5c1b6" stroke="#c5c1b6" stroke-width="0.3"/><polygon points="205.96,83.69 184.93,72.19 184.44,91.86" fill="#f2f0e8" stroke="#f2f0e8" stroke-width="0.3"/><polygon points="188.96,117.70 188.96,122.37 212.33,108.82" fill="#c5c1b6" stroke="#c5c1b6" stroke-width="0.3"/><polygon points="50.47,92.91 50.47,97.58 73.26,105.38" fill="#aeaba1" stroke="#aeaba1" stroke-width="0.3"/><polygon points="50.47,111.59 73.26,124.06 73.26,119.39" fill="#aeaba1" stroke="#aeaba1" stroke-width="0.3"/><polygon points="188.96,108.36 212.33,99.48 212.33,94.81" fill="#c5c1b6" stroke="#c5c1b6" stroke-width="0.3"/><polygon points="78.35,73.70 56.84,81.87 77.86,93.37" fill="#f2f0e8" stroke="#f2f0e8" stroke-width="0.3"/><polygon points="56.84,90.18 56.84,92.95 77.86,101.68" fill="#cac9c2" stroke="#cac9c2" stroke-width="0.3"/><polygon points="120.00,87.62 96.63,96.50 119.42,108.97" fill="#d1cdc2" stroke="#d1cdc2" stroke-width="0.3"/><polygon points="184.44,102.94 205.96,94.77 205.96,92.00" fill="#e4e2db" stroke="#e4e2db" stroke-width="0.3"/><polygon points="188.96,113.03 188.96,117.70 212.33,104.15" fill="#c5c1b6" stroke="#c5c1b6" stroke-width="0.3"/><polygon points="50.47,106.92 73.26,119.39 73.26,114.72" fill="#aeaba1" stroke="#aeaba1" stroke-width="0.3"/><polygon points="56.84,87.41 56.84,90.18 77.86,98.91" fill="#cac9c2" stroke="#cac9c2" stroke-width="0.3"/><polygon points="99.37,85.20 78.35,73.70 77.86,93.37" fill="#f2f0e8" stroke="#f2f0e8" stroke-width="0.3"/><polygon points="184.44,100.17 205.96,92.00 205.96,89.23" fill="#e4e2db" stroke="#e4e2db" stroke-width="0.3"/><polygon points="56.84,84.64 56.84,87.41 77.86,96.14" fill="#cac9c2" stroke="#cac9c2" stroke-width="0.3"/><polygon points="142.79,100.09 120.00,87.62 119.42,108.97" fill="#d1cdc2" stroke="#d1cdc2" stroke-width="0.3"/><polygon points="188.96,108.36 188.96,113.03 212.33,99.48" fill="#c5c1b6" stroke="#c5c1b6" stroke-width="0.3"/><polygon points="50.47,102.25 73.26,114.72 73.26,110.05" fill="#aeaba1" stroke="#aeaba1" stroke-width="0.3"/><polygon points="184.44,97.40 205.96,89.23 205.96,86.46" fill="#e4e2db" stroke="#e4e2db" stroke-width="0.3"/><polygon points="56.84,81.87 56.84,84.64 77.86,93.37" fill="#cac9c2" stroke="#cac9c2" stroke-width="0.3"/><polygon points="184.44,94.63 205.96,86.46 205.96,83.69" fill="#e4e2db" stroke="#e4e2db" stroke-width="0.3"/><polygon points="120.89,77.03 99.37,85.20 120.40,96.70" fill="#f2f0e8" stroke="#f2f0e8" stroke-width="0.3"/><polygon points="188.96,103.68 188.96,108.36 212.33,94.81" fill="#c5c1b6" stroke="#c5c1b6" stroke-width="0.3"/><polygon points="50.47,97.58 73.26,110.05 73.26,105.38" fill="#aeaba1" stroke="#aeaba1" stroke-width="0.3"/><polygon points="184.44,100.17 184.44,102.94 205.96,92.00" fill="#e4e2db" stroke="#e4e2db" stroke-width="0.3"/><polygon points="56.84,92.95 77.86,104.45 77.86,101.68" fill="#cac9c2" stroke="#cac9c2" stroke-width="0.3"/><polygon points="166.16,91.22 142.79,100.09 165.59,112.56" fill="#d1cdc2" stroke="#d1cdc2" stroke-width="0.3"/><polygon points="141.91,88.53 120.89,77.03 120.40,96.70" fill="#f2f0e8" stroke="#f2f0e8" stroke-width="0.3"/><polygon points="184.44,97.40 184.44,100.17 205.96,89.23" fill="#e4e2db" stroke="#e4e2db" stroke-width="0.3"/><polygon points="56.84,90.18 77.86,101.68 77.86,98.91" fill="#cac9c2" stroke="#cac9c2" stroke-width="0.3"/><polygon points="184.44,94.63 184.44,97.40 205.96,86.46" fill="#e4e2db" stroke="#e4e2db" stroke-width="0.3"/><polygon points="165.59,131.24 188.96,122.37 188.96,117.70" fill="#c5c1b6" stroke="#c5c1b6" stroke-width="0.3"/><polygon points="56.84,87.41 77.86,98.91 77.86,96.14" fill="#cac9c2" stroke="#cac9c2" stroke-width="0.3"/><polygon points="188.96,103.68 166.16,91.22 165.59,112.56" fill="#d1cdc2" stroke="#d1cdc2" stroke-width="0.3"/><polygon points="184.44,91.86 184.44,94.63 205.96,83.69" fill="#e4e2db" stroke="#e4e2db" stroke-width="0.3"/><polygon points="56.84,84.64 77.86,96.14 77.86,93.37" fill="#cac9c2" stroke="#cac9c2" stroke-width="0.3"/><polygon points="165.59,126.57 188.96,117.70 188.96,113.03" fill="#c5c1b6" stroke="#c5c1b6" stroke-width="0.3"/><polygon points="163.42,80.36 141.91,88.53 162.93,100.03" fill="#f2f0e8" stroke="#f2f0e8" stroke-width="0.3"/><polygon points="165.59,121.90 188.96,113.03 188.96,108.36" fill="#c5c1b6" stroke="#c5c1b6" stroke-width="0.3"/><polygon points="184.44,91.86 163.42,80.36 162.93,100.03" fill="#f2f0e8" stroke="#f2f0e8" stroke-width="0.3"/><polygon points="73.26,119.39 73.26,124.06 96.05,131.86" fill="#aeaba1" stroke="#aeaba1" stroke-width="0.3"/><polygon points="165.59,126.57 165.59,131.24 188.96,117.70" fill="#c5c1b6" stroke="#c5c1b6" stroke-width="0.3"/><polygon points="165.59,117.23 188.96,108.36 188.96,103.68" fill="#c5c1b6" stroke="#c5c1b6" stroke-width="0.3"/><polygon points="162.93,111.11 184.44,102.94 184.44,100.17" fill="#e4e2db" stroke="#e4e2db" stroke-width="0.3"/><polygon points="96.63,96.50 73.26,105.38 96.05,117.85" fill="#d1cdc2" stroke="#d1cdc2" stroke-width="0.3"/><polygon points="162.93,108.34 184.44,100.17 184.44,97.40" fill="#e4e2db" stroke="#e4e2db" stroke-width="0.3"/><polygon points="73.26,114.72 73.26,119.39 96.05,127.19" fill="#aeaba1" stroke="#aeaba1" stroke-width="0.3"/><polygon points="165.59,121.90 165.59,126.57 188.96,113.03" fill="#c5c1b6" stroke="#c5c1b6" stroke-width="0.3"/><polygon points="162.93,105.57 184.44,97.40 184.44,94.63" fill="#e4e2db" stroke="#e4e2db" stroke-width="0.3"/><polygon points="119.42,108.97 96.63,96.50 96.05,117.85" fill="#d1cdc2" stroke="#d1cdc2" stroke-width="0.3"/><polygon points="73.26,110.05 73.26,114.72 96.05,122.52" fill="#aeaba1" stroke="#aeaba1" stroke-width="0.3"/><polygon points="165.59,117.23 165.59,121.90 188.96,108.36" fill="#c5c1b6" stroke="#c5c1b6" stroke-width="0.3"/><polygon points="162.93,102.80 184.44,94.63 184.44,91.86" fill="#e4e2db" stroke="#e4e2db" stroke-width="0.3"/><polygon points="99.37,85.20 77.86,93.37 98.89,104.88" fill="#f2f0e8" stroke="#f2f0e8" stroke-width="0.3"/><polygon points="77.86,101.68 77.86,104.45 98.89,113.18" fill="#cac9c2" stroke="#cac9c2" stroke-width="0.3"/><polygon points="162.93,108.34 162.93,111.11 184.44,100.17" fill="#e4e2db" stroke="#e4e2db" stroke-width="0.3"/><polygon points="73.26,105.38 73.26,110.05 96.05,117.85" fill="#aeaba1" stroke="#aeaba1" stroke-width="0.3"/><polygon points="165.59,112.56 165.59,117.23 188.96,103.68" fill="#c5c1b6" stroke="#c5c1b6" stroke-width="0.3"/><polygon points="73.26,124.06 96.05,136.53 96.05,131.86" fill="#aeaba1" stroke="#aeaba1" stroke-width="0.3"/><polygon points="77.86,98.91 77.86,101.68 98.89,110.41" fill="#cac9c2" stroke="#cac9c2" stroke-width="0.3"/><polygon points="120.40,96.70 99.37,85.20 98.89,104.88" fill="#f2f0e8" stroke="#f2f0e8" stroke-width="0.3"/><polygon points="162.93,105.57 162.93,108.34 184.44,97.40" fill="#e4e2db" stroke="#e4e2db" stroke-width="0.3"/><polygon points="142.79,100.09 119.42,108.97 142.22,121.44" fill="#d1cdc2" stroke="#d1cdc2" stroke-width="0.3"/><polygon points="77.86,96.14 77.86,98.91 98.89,107.64" fill="#cac9c2" stroke="#cac9c2" stroke-width="0.3"/><polygon points="162.93,102.80 162.93,105.57 184.44,94.63" fill="#e4e2db" stroke="#e4e2db" stroke-width="0.3"/><polygon points="73.26,119.39 96.05,131.86 96.05,127.19" fill="#aeaba1" stroke="#aeaba1" stroke-width="0.3"/><polygon points="77.86,93.37 77.86,96.14 98.89,104.88" fill="#cac9c2" stroke="#cac9c2" stroke-width="0.3"/><polygon points="142.22,140.12 165.59,131.24 165.59,126.57" fill="#c5c1b6" stroke="#c5c1b6" stroke-width="0.3"/><polygon points="162.93,100.03 162.93,102.80 184.44,91.86" fill="#e4e2db" stroke="#e4e2db" stroke-width="0.3"/><polygon points="165.59,112.56 142.79,100.09 142.22,121.44" fill="#d1cdc2" stroke="#d1cdc2" stroke-width="0.3"/><polygon points="73.26,114.72 96.05,127.19 96.05,122.52" fill="#aeaba1" stroke="#aeaba1" stroke-width="0.3"/><polygon points="141.91,88.53 120.40,96.70 141.42,108.20" fill="#f2f0e8" stroke="#f2f0e8" stroke-width="0.3"/><polygon points="142.22,135.45 165.59,126.57 165.59,121.90" fill="#c5c1b6" stroke="#c5c1b6" stroke-width="0.3"/><polygon points="77.86,104.45 98.89,115.95 98.89,113.18" fill="#cac9c2" stroke="#cac9c2" stroke-width="0.3"/><polygon points="73.26,110.05 96.05,122.52 96.05,117.85" fill="#aeaba1" stroke="#aeaba1" stroke-width="0.3"/><polygon points="162.93,100.03 141.91,88.53 141.42,108.20" fill="#f2f0e8" stroke="#f2f0e8" stroke-width="0.3"/><polygon points="77.86,101.68 98.89,113.18 98.89,110.41" fill="#cac9c2" stroke="#cac9c2" stroke-width="0.3"/><polygon points="142.22,130.78 165.59,121.90 165.59,117.23" fill="#c5c1b6" stroke="#c5c1b6" stroke-width="0.3"/><polygon points="77.86,98.91 98.89,110.41 98.89,107.64" fill="#cac9c2" stroke="#cac9c2" stroke-width="0.3"/><polygon points="141.42,119.28 162.93,111.11 162.93,108.34" fill="#e4e2db" stroke="#e4e2db" stroke-width="0.3"/><polygon points="142.22,135.45 142.22,140.12 165.59,126.57" fill="#c5c1b6" stroke="#c5c1b6" stroke-width="0.3"/><polygon points="77.86,96.14 98.89,107.64 98.89,104.88" fill="#cac9c2" stroke="#cac9c2" stroke-width="0.3"/><polygon points="142.22,126.11 165.59,117.23 165.59,112.56" fill="#c5c1b6" stroke="#c5c1b6" stroke-width="0.3"/><polygon points="141.42,116.51 162.93,108.34 162.93,105.57" fill="#e4e2db" stroke="#e4e2db" stroke-width="0.3"/><polygon points="141.42,113.74 162.93,105.57 162.93,102.80" fill="#e4e2db" stroke="#e4e2db" stroke-width="0.3"/><polygon points="142.22,130.78 142.22,135.45 165.59,121.90" fill="#c5c1b6" stroke="#c5c1b6" stroke-width="0.3"/><polygon points="141.42,110.97 162.93,102.80 162.93,100.03" fill="#e4e2db" stroke="#e4e2db" stroke-width="0.3"/><polygon points="142.22,126.11 142.22,130.78 165.59,117.23" fill="#c5c1b6" stroke="#c5c1b6" stroke-width="0.3"/><polygon points="141.42,116.51 141.42,119.28 162.93,108.34" fill="#e4e2db" stroke="#e4e2db" stroke-width="0.3"/><polygon points="141.42,113.74 141.42,116.51 162.93,105.57" fill="#e4e2db" stroke="#e4e2db" stroke-width="0.3"/><polygon points="96.05,131.86 96.05,136.53 118.85,144.33" fill="#aeaba1" stroke="#aeaba1" stroke-width="0.3"/><polygon points="142.22,121.44 142.22,126.11 165.59,112.56" fill="#c5c1b6" stroke="#c5c1b6" stroke-width="0.3"/><polygon points="141.42,110.97 141.42,113.74 162.93,102.80" fill="#e4e2db" stroke="#e4e2db" stroke-width="0.3"/><polygon points="119.42,108.97 96.05,117.85 118.85,130.32" fill="#d1cdc2" stroke="#d1cdc2" stroke-width="0.3"/><polygon points="96.05,127.19 96.05,131.86 118.85,139.66" fill="#aeaba1" stroke="#aeaba1" stroke-width="0.3"/><polygon points="141.42,108.20 141.42,110.97 162.93,100.03" fill="#e4e2db" stroke="#e4e2db" stroke-width="0.3"/><polygon points="118.85,149.00 142.22,140.12 142.22,135.45" fill="#c5c1b6" stroke="#c5c1b6" stroke-width="0.3"/><polygon points="120.40,96.70 98.89,104.88 119.91,116.38" fill="#f2f0e8" stroke="#f2f0e8" stroke-width="0.3"/><polygon points="142.22,121.44 119.42,108.97 118.85,130.32" fill="#d1cdc2" stroke="#d1cdc2" stroke-width="0.3"/><polygon points="98.89,113.18 98.89,115.95 119.91,124.68" fill="#cac9c2" stroke="#cac9c2" stroke-width="0.3"/><polygon points="96.05,122.52 96.05,127.19 118.85,134.99" fill="#aeaba1" stroke="#aeaba1" stroke-width="0.3"/><polygon points="98.89,110.41 98.89,113.18 119.91,121.91" fill="#cac9c2" stroke="#cac9c2" stroke-width="0.3"/><polygon points="141.42,108.20 120.40,96.70 119.91,116.38" fill="#f2f0e8" stroke="#f2f0e8" stroke-width="0.3"/><polygon points="118.85,144.33 142.22,135.45 142.22,130.78" fill="#c5c1b6" stroke="#c5c1b6" stroke-width="0.3"/><polygon points="96.05,117.85 96.05,122.52 118.85,130.32" fill="#aeaba1" stroke="#aeaba1" stroke-width="0.3"/><polygon points="96.05,136.53 118.85,149.00 118.85,144.33" fill="#aeaba1" stroke="#aeaba1" stroke-width="0.3"/><polygon points="98.89,107.64 98.89,110.41 119.91,119.14" fill="#cac9c2" stroke="#cac9c2" stroke-width="0.3"/><polygon points="119.91,127.45 141.42,119.28 141.42,116.51" fill="#e4e2db" stroke="#e4e2db" stroke-width="0.3"/><polygon points="118.85,139.66 142.22,130.78 142.22,126.11" fill="#c5c1b6" stroke="#c5c1b6" stroke-width="0.3"/><polygon points="98.89,104.88 98.89,107.64 119.91,116.38" fill="#cac9c2" stroke="#cac9c2" stroke-width="0.3"/><polygon points="96.05,131.86 118.85,144.33 118.85,139.66" fill="#aeaba1" stroke="#aeaba1" stroke-width="0.3"/><polygon points="119.91,124.68 141.42,116.51 141.42,113.74" fill="#e4e2db" stroke="#e4e2db" stroke-width="0.3"/><polygon points="118.85,144.33 118.85,149.00 142.22,135.45" fill="#c5c1b6" stroke="#c5c1b6" stroke-width="0.3"/><polygon points="118.85,134.99 142.22,126.11 142.22,121.44" fill="#c5c1b6" stroke="#c5c1b6" stroke-width="0.3"/><polygon points="119.91,121.91 141.42,113.74 141.42,110.97" fill="#e4e2db" stroke="#e4e2db" stroke-width="0.3"/><polygon points="98.89,115.95 119.91,127.45 119.91,124.68" fill="#cac9c2" stroke="#cac9c2" stroke-width="0.3"/><polygon points="96.05,127.19 118.85,139.66 118.85,134.99" fill="#aeaba1" stroke="#aeaba1" stroke-width="0.3"/><polygon points="119.91,119.14 141.42,110.97 141.42,108.20" fill="#e4e2db" stroke="#e4e2db" stroke-width="0.3"/><polygon points="118.85,139.66 118.85,144.33 142.22,130.78" fill="#c5c1b6" stroke="#c5c1b6" stroke-width="0.3"/><polygon points="98.89,113.18 119.91,124.68 119.91,121.91" fill="#cac9c2" stroke="#cac9c2" stroke-width="0.3"/><polygon points="119.91,124.68 119.91,127.45 141.42,116.51" fill="#e4e2db" stroke="#e4e2db" stroke-width="0.3"/><polygon points="98.89,110.41 119.91,121.91 119.91,119.14" fill="#cac9c2" stroke="#cac9c2" stroke-width="0.3"/><polygon points="96.05,122.52 118.85,134.99 118.85,130.32" fill="#aeaba1" stroke="#aeaba1" stroke-width="0.3"/><polygon points="118.85,134.99 118.85,139.66 142.22,126.11" fill="#c5c1b6" stroke="#c5c1b6" stroke-width="0.3"/><polygon points="119.91,121.91 119.91,124.68 141.42,113.74" fill="#e4e2db" stroke="#e4e2db" stroke-width="0.3"/><polygon points="98.89,107.64 119.91,119.14 119.91,116.38" fill="#cac9c2" stroke="#cac9c2" stroke-width="0.3"/><polygon points="119.91,119.14 119.91,121.91 141.42,110.97" fill="#e4e2db" stroke="#e4e2db" stroke-width="0.3"/><polygon points="118.85,130.32 118.85,134.99 142.22,121.44" fill="#c5c1b6" stroke="#c5c1b6" stroke-width="0.3"/><polygon points="119.91,116.38 119.91,119.14 141.42,108.20" fill="#e4e2db" stroke="#e4e2db" stroke-width="0.3"/></svg>
