<svg xmlns="http://www.w3.org/2000/svg" viewBox="0 0 240 168"><rect width="240" height="168" fill="#f3f3ec"/><ellipse cx="120" cy="148" rx="77" ry="8" fill="#24352e" opacity=".07"/><polygon points="96.36,75.49 116.66,67.78 116.66,57.16" fill="#c3a173" stroke="#c3a173" stroke-width="0.3"/><polygon points="96.36,64.87 116.66,57.16 116.66,46.55" fill="#c3a173" stroke="#c3a173" stroke-width="0.3"/><polygon points="96.36,64.87 96.36,75.49 116.66,57.16" fill="#c3a173" stroke="#c3a173" stroke-width="0.3"/><polygon points="96.36,54.26 116.66,46.55 116.66,35.93" fill="#c3a173" stroke="#c3a173" stroke-width="0.3"/><polygon points="96.36,54.26 96.36,64.87 116.66,46.55" fill="#c3a173" stroke="#c3a173" stroke-width="0.3"/><polygon points="76.07,83.20 96.36,75.49 96.36,64.87" fill="#c3a173" stroke="#c3a173" stroke-width="0.3"/><polygon points="113.49,23.58 112.43,23.00 93.19,31.29" fill="#cfaa7a" stroke="#cfaa7a" stroke-width="0.3"/><polygon points="96.36,43.64 116.66,35.93 116.66,25.31" fill="#c3a173" stroke="#c3a173" stroke-width="0.3"/><polygon points="112.43,45.93 92.14,53.64 116.22,66.81" fill="#a87f51" stroke="#a87f51" stroke-width="0.3"/><polygon points="114.55,24.16 113.49,23.58 94.25,31.87" fill="#cfaa7a" stroke="#cfaa7a" stroke-width="0.3"/><polygon points="96.36,43.64 96.36,54.26 116.66,35.93" fill="#c3a173" stroke="#c3a173" stroke-width="0.3"/><polygon points="115.61,24.73 114.55,24.16 95.31,32.45" fill="#cfaa7a" stroke="#cfaa7a" stroke-width="0.3"/><polygon points="116.66,25.31 115.61,24.73 96.36,33.02" fill="#cfaa7a" stroke="#cfaa7a" stroke-width="0.3"/><polygon points="76.07,72.58 96.36,64.87 96.36,54.26" fill="#c3a173" stroke="#c3a173" stroke-width="0.3"/><polygon points="112.43,23.00 92.14,30.71 93.19,31.29" fill="#cfaa7a" stroke="#cfaa7a" stroke-width="0.3"/><polygon points="136.52,59.10 112.43,45.93 116.22,66.81" fill="#a87f51" stroke="#a87f51" stroke-width="0.3"/><polygon points="76.07,72.58 76.07,83.20 96.36,64.87" fill="#c3a173" stroke="#c3a173" stroke-width="0.3"/><polygon points="113.49,23.58 93.19,31.29 94.25,31.87" fill="#cfaa7a" stroke="#cfaa7a" stroke-width="0.3"/><polygon points="114.55,24.16 94.25,31.87 95.31,32.45" fill="#cfaa7a" stroke="#cfaa7a" stroke-width="0.3"/><polygon points="96.36,33.02 96.36,43.64 116.66,25.31" fill="#c3a173" stroke="#c3a173" stroke-width="0.3"/><polygon points="115.61,24.73 95.31,32.45 96.36,33.02" fill="#cfaa7a" stroke="#cfaa7a" stroke-width="0.3"/><polygon points="76.07,61.97 96.36,54.26 96.36,43.64" fill="#c3a173" stroke="#c3a173" stroke-width="0.3"/><polygon points="76.07,61.97 76.07,72.58 96.36,54.26" fill="#c3a173" stroke="#c3a173" stroke-width="0.3"/><polygon points="113.19,38.24 94.86,45.20 117.06,57.35" fill="#f2f0e8" stroke="#f2f0e8" stroke-width="0.3"/><polygon points="55.77,90.91 76.07,83.20 76.07,72.58" fill="#c3a173" stroke="#c3a173" stroke-width="0.3"/><polygon points="93.19,31.29 92.14,30.71 72.89,39.00" fill="#cfaa7a" stroke="#cfaa7a" stroke-width="0.3"/><polygon points="76.07,51.35 96.36,43.64 96.36,33.02" fill="#c3a173" stroke="#c3a173" stroke-width="0.3"/><polygon points="92.14,53.64 71.84,61.35 95.92,74.53" fill="#a87f51" stroke="#a87f51" stroke-width="0.3"/><polygon points="94.25,31.87 93.19,31.29 73.95,39.58" fill="#cfaa7a" stroke="#cfaa7a" stroke-width="0.3"/><polygon points="76.07,51.35 76.07,61.97 96.36,43.64" fill="#c3a173" stroke="#c3a173" stroke-width="0.3"/><polygon points="135.39,50.39 113.19,38.24 117.06,57.35" fill="#f2f0e8" stroke="#f2f0e8" stroke-width="0.3"/><polygon points="95.31,32.45 94.25,31.87 75.01,40.16" fill="#cfaa7a" stroke="#cfaa7a" stroke-width="0.3"/><polygon points="96.36,33.02 95.31,32.45 76.07,40.74" fill="#cfaa7a" stroke="#cfaa7a" stroke-width="0.3"/><polygon points="55.77,80.29 76.07,72.58 76.07,61.97" fill="#c3a173" stroke="#c3a173" stroke-width="0.3"/><polygon points="92.14,30.71 71.84,38.42 72.89,39.00" fill="#cfaa7a" stroke="#cfaa7a" stroke-width="0.3"/><polygon points="116.22,66.81 92.14,53.64 95.92,74.53" fill="#a87f51" stroke="#a87f51" stroke-width="0.3"/><polygon points="55.77,80.29 55.77,90.91 76.07,72.58" fill="#c3a173" stroke="#c3a173" stroke-width="0.3"/><polygon points="93.19,31.29 72.89,39.00 73.95,39.58" fill="#cfaa7a" stroke="#cfaa7a" stroke-width="0.3"/><polygon points="94.25,31.87 73.95,39.58 75.01,40.16" fill="#cfaa7a" stroke="#cfaa7a" stroke-width="0.3"/><polygon points="76.07,40.74 76.07,51.35 96.36,33.02" fill="#c3a173" stroke="#c3a173" stroke-width="0.3"/><polygon points="95.31,32.45 75.01,40.16 76.07,40.74" fill="#cfaa7a" stroke="#cfaa7a" stroke-width="0.3"/><polygon points="115.92,42.06 111.45,39.62 102.72,47.07" fill="#dbd6cb" stroke="#dbd6cb" stroke-width="0.3"/><polygon points="55.77,69.68 76.07,61.97 76.07,51.35" fill="#c3a173" stroke="#c3a173" stroke-width="0.3"/><polygon points="111.45,39.62 98.26,44.63 102.72,47.07" fill="#dbd6cb" stroke="#dbd6cb" stroke-width="0.3"/><polygon points="55.77,69.68 55.77,80.29 76.07,61.97" fill="#c3a173" stroke="#c3a173" stroke-width="0.3"/><polygon points="136.52,59.10 116.22,66.81 140.30,79.99" fill="#a87f51" stroke="#a87f51" stroke-width="0.3"/><polygon points="94.86,45.20 76.54,52.16 98.74,64.31" fill="#f2f0e8" stroke="#f2f0e8" stroke-width="0.3"/><polygon points="120.38,44.50 115.92,42.06 107.19,49.51" fill="#dbd6cb" stroke="#dbd6cb" stroke-width="0.3"/><polygon points="35.47,98.62 55.77,90.91 55.77,80.29" fill="#c3a173" stroke="#c3a173" stroke-width="0.3"/><polygon points="115.92,42.06 102.72,47.07 107.19,49.51" fill="#dbd6cb" stroke="#dbd6cb" stroke-width="0.3"/><polygon points="72.89,39.00 71.84,38.42 52.59,46.71" fill="#cfaa7a" stroke="#cfaa7a" stroke-width="0.3"/><polygon points="55.77,59.06 76.07,51.35 76.07,40.74" fill="#c3a173" stroke="#c3a173" stroke-width="0.3"/><polygon points="160.60,72.28 136.52,59.10 140.30,79.99" fill="#a87f51" stroke="#a87f51" stroke-width="0.3"/><polygon points="117.06,57.35 94.86,45.20 98.74,64.31" fill="#f2f0e8" stroke="#f2f0e8" stroke-width="0.3"/><polygon points="71.84,61.35 51.54,69.06 75.62,82.24" fill="#a87f51" stroke="#a87f51" stroke-width="0.3"/><polygon points="73.95,39.58 72.89,39.00 53.65,47.29" fill="#cfaa7a" stroke="#cfaa7a" stroke-width="0.3"/><polygon points="55.77,59.06 55.77,69.68 76.07,51.35" fill="#c3a173" stroke="#c3a173" stroke-width="0.3"/><polygon points="75.01,40.16 73.95,39.58 54.71,47.87" fill="#cfaa7a" stroke="#cfaa7a" stroke-width="0.3"/><polygon points="124.84,46.94 120.38,44.50 111.65,51.96" fill="#dbd6cb" stroke="#dbd6cb" stroke-width="0.3"/><polygon points="102.72,47.07 98.26,44.63 89.53,52.08" fill="#dbd6cb" stroke="#dbd6cb" stroke-width="0.3"/><polygon points="76.07,40.74 75.01,40.16 55.77,48.45" fill="#cfaa7a" stroke="#cfaa7a" stroke-width="0.3"/><polygon points="35.47,88.01 55.77,80.29 55.77,69.68" fill="#c3a173" stroke="#c3a173" stroke-width="0.3"/><polygon points="120.38,44.50 107.19,49.51 111.65,51.96" fill="#dbd6cb" stroke="#dbd6cb" stroke-width="0.3"/><polygon points="71.84,38.42 51.54,46.13 52.59,46.71" fill="#cfaa7a" stroke="#cfaa7a" stroke-width="0.3"/><polygon points="98.26,44.63 85.06,49.64 89.53,52.08" fill="#dbd6cb" stroke="#dbd6cb" stroke-width="0.3"/><polygon points="95.92,74.53 71.84,61.35 75.62,82.24" fill="#a87f51" stroke="#a87f51" stroke-width="0.3"/><polygon points="116.11,63.54 129.31,58.53 129.31,56.25" fill="#cecabf" stroke="#cecabf" stroke-width="0.3"/><polygon points="31.24,96.31 32.30,96.89 32.30,86.27" fill="#ac8e65" stroke="#ac8e65" stroke-width="0.3"/><polygon points="35.47,88.01 35.47,98.62 55.77,80.29" fill="#c3a173" stroke="#c3a173" stroke-width="0.3"/><polygon points="72.89,39.00 52.59,46.71 53.65,47.29" fill="#cfaa7a" stroke="#cfaa7a" stroke-width="0.3"/><polygon points="116.11,61.26 129.31,56.25 129.31,53.96" fill="#cecabf" stroke="#cecabf" stroke-width="0.3"/><polygon points="32.30,96.89 33.35,97.46 33.35,86.85" fill="#ac8e65" stroke="#ac8e65" stroke-width="0.3"/><polygon points="31.24,85.69 31.24,96.31 32.30,86.27" fill="#ac8e65" stroke="#ac8e65" stroke-width="0.3"/><polygon points="73.95,39.58 53.65,47.29 54.71,47.87" fill="#cfaa7a" stroke="#cfaa7a" stroke-width="0.3"/><polygon points="55.77,48.45 55.77,59.06 76.07,40.74" fill="#c3a173" stroke="#c3a173" stroke-width="0.3"/><polygon points="135.39,50.39 117.06,57.35 139.27,69.49" fill="#f2f0e8" stroke="#f2f0e8" stroke-width="0.3"/><polygon points="116.11,58.97 129.31,53.96 129.31,51.67" fill="#cecabf" stroke="#cecabf" stroke-width="0.3"/><polygon points="33.35,97.46 34.41,98.04 34.41,87.43" fill="#ac8e65" stroke="#ac8e65" stroke-width="0.3"/><polygon points="129.31,49.39 124.84,46.94 116.11,54.40" fill="#dbd6cb" stroke="#dbd6cb" stroke-width="0.3"/><polygon points="32.30,86.27 32.30,96.89 33.35,86.85" fill="#ac8e65" stroke="#ac8e65" stroke-width="0.3"/><polygon points="107.19,49.51 102.72,47.07 93.99,54.53" fill="#dbd6cb" stroke="#dbd6cb" stroke-width="0.3"/><polygon points="75.01,40.16 54.71,47.87 55.77,48.45" fill="#cfaa7a" stroke="#cfaa7a" stroke-width="0.3"/><polygon points="116.11,56.68 129.31,51.67 129.31,49.39" fill="#cecabf" stroke="#cecabf" stroke-width="0.3"/><polygon points="116.11,61.26 116.11,63.54 129.31,56.25" fill="#cecabf" stroke="#cecabf" stroke-width="0.3"/><polygon points="34.41,98.04 35.47,98.62 35.47,88.01" fill="#ac8e65" stroke="#ac8e65" stroke-width="0.3"/><polygon points="33.35,86.85 33.35,97.46 34.41,87.43" fill="#ac8e65" stroke="#ac8e65" stroke-width="0.3"/><polygon points="124.84,46.94 111.65,51.96 116.11,54.40" fill="#dbd6cb" stroke="#dbd6cb" stroke-width="0.3"/><polygon points="102.72,47.07 89.53,52.08 93.99,54.53" fill="#dbd6cb" stroke="#dbd6cb" stroke-width="0.3"/><polygon points="116.11,58.97 116.11,61.26 129.31,53.96" fill="#cecabf" stroke="#cecabf" stroke-width="0.3"/><polygon points="35.47,77.39 55.77,69.68 55.77,59.06" fill="#c3a173" stroke="#c3a173" stroke-width="0.3"/><polygon points="34.41,87.43 34.41,98.04 35.47,88.01" fill="#ac8e65" stroke="#ac8e65" stroke-width="0.3"/><polygon points="157.59,62.53 135.39,50.39 139.27,69.49" fill="#f2f0e8" stroke="#f2f0e8" stroke-width="0.3"/><polygon points="76.54,52.16 58.21,59.12 80.41,71.27" fill="#f2f0e8" stroke="#f2f0e8" stroke-width="0.3"/><polygon points="31.24,85.69 32.30,86.27 32.30,75.65" fill="#ac8e65" stroke="#ac8e65" stroke-width="0.3"/><polygon points="116.11,56.68 116.11,58.97 129.31,51.67" fill="#cecabf" stroke="#cecabf" stroke-width="0.3"/><polygon points="35.47,77.39 35.47,88.01 55.77,69.68" fill="#c3a173" stroke="#c3a173" stroke-width="0.3"/><polygon points="32.30,86.27 33.35,86.85 33.35,76.23" fill="#ac8e65" stroke="#ac8e65" stroke-width="0.3"/><polygon points="116.22,66.81 95.92,74.53 120.00,87.70" fill="#a87f51" stroke="#a87f51" stroke-width="0.3"/><polygon points="116.11,54.40 116.11,56.68 129.31,49.39" fill="#cecabf" stroke="#cecabf" stroke-width="0.3"/><polygon points="31.24,75.08 31.24,85.69 32.30,75.65" fill="#ac8e65" stroke="#ac8e65" stroke-width="0.3"/><polygon points="111.65,51.96 107.19,49.51 98.46,56.97" fill="#dbd6cb" stroke="#dbd6cb" stroke-width="0.3"/><polygon points="89.53,52.08 85.06,49.64 76.33,57.10" fill="#dbd6cb" stroke="#dbd6cb" stroke-width="0.3"/><polygon points="31.24,91.42 31.24,96.31 55.32,104.60" fill="#8c6942" stroke="#8c6942" stroke-width="0.3"/><polygon points="33.35,86.85 34.41,87.43 34.41,76.81" fill="#ac8e65" stroke="#ac8e65" stroke-width="0.3"/><polygon points="32.30,75.65 32.30,86.27 33.35,76.23" fill="#ac8e65" stroke="#ac8e65" stroke-width="0.3"/><polygon points="98.74,64.31 76.54,52.16 80.41,71.27" fill="#f2f0e8" stroke="#f2f0e8" stroke-width="0.3"/><polygon points="34.41,87.43 35.47,88.01 35.47,77.39" fill="#ac8e65" stroke="#ac8e65" stroke-width="0.3"/><polygon points="107.19,49.51 93.99,54.53 98.46,56.97" fill="#dbd6cb" stroke="#dbd6cb" stroke-width="0.3"/><polygon points="33.35,76.23 33.35,86.85 34.41,76.81" fill="#ac8e65" stroke="#ac8e65" stroke-width="0.3"/><polygon points="85.06,49.64 71.87,54.65 76.33,57.10" fill="#dbd6cb" stroke="#dbd6cb" stroke-width="0.3"/><polygon points="102.92,68.56 116.11,63.54 116.11,61.26" fill="#cecabf" stroke="#cecabf" stroke-width="0.3"/><polygon points="52.59,46.71 51.54,46.13 32.30,54.42" fill="#cfaa7a" stroke="#cfaa7a" stroke-width="0.3"/><polygon points="35.47,66.77 55.77,59.06 55.77,48.45" fill="#c3a173" stroke="#c3a173" stroke-width="0.3"/><polygon points="140.30,79.99 116.22,66.81 120.00,87.70" fill="#a87f51" stroke="#a87f51" stroke-width="0.3"/><polygon points="31.24,86.54 31.24,91.42 55.32,99.71" fill="#8c6942" stroke="#8c6942" stroke-width="0.3"/><polygon points="34.41,76.81 34.41,87.43 35.47,77.39" fill="#ac8e65" stroke="#ac8e65" stroke-width="0.3"/><polygon points="102.92,66.27 116.11,61.26 116.11,58.97" fill="#cecabf" stroke="#cecabf" stroke-width="0.3"/><polygon points="31.24,75.08 32.30,75.65 32.30,65.04" fill="#ac8e65" stroke="#ac8e65" stroke-width="0.3"/><polygon points="51.54,69.06 31.24,76.77 55.32,89.95" fill="#a87f51" stroke="#a87f51" stroke-width="0.3"/><polygon points="53.65,47.29 52.59,46.71 33.35,55.00" fill="#cfaa7a" stroke="#cfaa7a" stroke-width="0.3"/><polygon points="35.47,66.77 35.47,77.39 55.77,59.06" fill="#c3a173" stroke="#c3a173" stroke-width="0.3"/><polygon points="102.92,63.98 116.11,58.97 116.11,56.68" fill="#cecabf" stroke="#cecabf" stroke-width="0.3"/><polygon points="32.30,75.65 33.35,76.23 33.35,65.62" fill="#ac8e65" stroke="#ac8e65" stroke-width="0.3"/><polygon points="116.11,54.40 111.65,51.96 102.92,59.41" fill="#dbd6cb" stroke="#dbd6cb" stroke-width="0.3"/><polygon points="54.71,47.87 53.65,47.29 34.41,55.58" fill="#cfaa7a" stroke="#cfaa7a" stroke-width="0.3"/><polygon points="31.24,64.46 31.24,75.08 32.30,65.04" fill="#ac8e65" stroke="#ac8e65" stroke-width="0.3"/><polygon points="93.99,54.53 89.53,52.08 80.80,59.54" fill="#dbd6cb" stroke="#dbd6cb" stroke-width="0.3"/><polygon points="31.24,81.66 31.24,86.54 55.32,94.83" fill="#8c6942" stroke="#8c6942" stroke-width="0.3"/><polygon points="102.92,61.70 116.11,56.68 116.11,54.40" fill="#cecabf" stroke="#cecabf" stroke-width="0.3"/><polygon points="102.92,66.27 102.92,68.56 116.11,61.26" fill="#cecabf" stroke="#cecabf" stroke-width="0.3"/><polygon points="33.35,76.23 34.41,76.81 34.41,66.20" fill="#ac8e65" stroke="#ac8e65" stroke-width="0.3"/><polygon points="55.77,48.45 54.71,47.87 35.47,56.16" fill="#cfaa7a" stroke="#cfaa7a" stroke-width="0.3"/><polygon points="32.30,65.04 32.30,75.65 33.35,65.62" fill="#ac8e65" stroke="#ac8e65" stroke-width="0.3"/><polygon points="111.65,51.96 98.46,56.97 102.92,59.41" fill="#dbd6cb" stroke="#dbd6cb" stroke-width="0.3"/><polygon points="89.53,52.08 76.33,57.10 80.80,59.54" fill="#dbd6cb" stroke="#dbd6cb" stroke-width="0.3"/><polygon points="102.92,63.98 102.92,66.27 116.11,58.97" fill="#cecabf" stroke="#cecabf" stroke-width="0.3"/><polygon points="34.41,76.81 35.47,77.39 35.47,66.77" fill="#ac8e65" stroke="#ac8e65" stroke-width="0.3"/><polygon points="51.54,46.13 31.24,53.84 32.30,54.42" fill="#cfaa7a" stroke="#cfaa7a" stroke-width="0.3"/><polygon points="75.62,82.24 51.54,69.06 55.32,89.95" fill="#a87f51" stroke="#a87f51" stroke-width="0.3"/><polygon points="33.35,65.62 33.35,76.23 34.41,66.20" fill="#ac8e65" stroke="#ac8e65" stroke-width="0.3"/><polygon points="31.24,76.77 31.24,81.66 55.32,89.95" fill="#8c6942" stroke="#8c6942" stroke-width="0.3"/><polygon points="102.92,61.70 102.92,63.98 116.11,56.68" fill="#cecabf" stroke="#cecabf" stroke-width="0.3"/><polygon points="31.24,96.31 55.32,109.48 55.32,104.60" fill="#8c6942" stroke="#8c6942" stroke-width="0.3"/><polygon points="117.06,57.35 98.74,64.31 120.94,76.45" fill="#f2f0e8" stroke="#f2f0e8" stroke-width="0.3"/><polygon points="52.59,46.71 32.30,54.42 33.35,55.00" fill="#cfaa7a" stroke="#cfaa7a" stroke-width="0.3"/><polygon points="34.41,66.20 34.41,76.81 35.47,66.77" fill="#ac8e65" stroke="#ac8e65" stroke-width="0.3"/><polygon points="31.24,64.46 32.30,65.04 32.30,54.42" fill="#ac8e65" stroke="#ac8e65" stroke-width="0.3"/><polygon points="102.92,59.41 102.92,61.70 116.11,54.40" fill="#cecabf" stroke="#cecabf" stroke-width="0.3"/><polygon points="53.65,47.29 33.35,55.00 34.41,55.58" fill="#cfaa7a" stroke="#cfaa7a" stroke-width="0.3"/><polygon points="35.47,56.16 35.47,66.77 55.77,48.45" fill="#c3a173" stroke="#c3a173" stroke-width="0.3"/><polygon points="98.46,56.97 93.99,54.53 85.26,61.98" fill="#dbd6cb" stroke="#dbd6cb" stroke-width="0.3"/><polygon points="160.60,72.28 140.30,79.99 164.38,93.16" fill="#a87f51" stroke="#a87f51" stroke-width="0.3"/><polygon points="76.33,57.10 71.87,54.65 63.14,62.11" fill="#dbd6cb" stroke="#dbd6cb" stroke-width="0.3"/><polygon points="32.30,65.04 33.35,65.62 33.35,55.00" fill="#ac8e65" stroke="#ac8e65" stroke-width="0.3"/><polygon points="31.24,53.84 31.24,64.46 32.30,54.42" fill="#ac8e65" stroke="#ac8e65" stroke-width="0.3"/><polygon points="31.24,91.42 55.32,104.60 55.32,99.71" fill="#8c6942" stroke="#8c6942" stroke-width="0.3"/><polygon points="54.71,47.87 34.41,55.58 35.47,56.16" fill="#cfaa7a" stroke="#cfaa7a" stroke-width="0.3"/><polygon points="58.67,66.53 58.67,68.81 63.14,68.97" fill="#b7b2a9" stroke="#b7b2a9" stroke-width="0.3"/><polygon points="39.88,74.91 39.88,77.85 62.09,87.05" fill="#cac9c2" stroke="#cac9c2" stroke-width="0.3"/><polygon points="33.35,65.62 34.41,66.20 34.41,55.58" fill="#ac8e65" stroke="#ac8e65" stroke-width="0.3"/><polygon points="93.99,54.53 80.80,59.54 85.26,61.98" fill="#dbd6cb" stroke="#dbd6cb" stroke-width="0.3"/><polygon points="139.27,69.49 117.06,57.35 120.94,76.45" fill="#f2f0e8" stroke="#f2f0e8" stroke-width="0.3"/><polygon points="32.30,54.42 32.30,65.04 33.35,55.00" fill="#ac8e65" stroke="#ac8e65" stroke-width="0.3"/><polygon points="58.21,59.12 39.88,66.09 62.09,78.23" fill="#f2f0e8" stroke="#f2f0e8" stroke-width="0.3"/><polygon points="71.87,54.65 58.67,59.67 63.14,62.11" fill="#dbd6cb" stroke="#dbd6cb" stroke-width="0.3"/><polygon points="89.73,73.57 102.92,68.56 102.92,66.27" fill="#cecabf" stroke="#cecabf" stroke-width="0.3"/><polygon points="58.67,64.24 58.67,66.53 63.14,66.68" fill="#b7b2a9" stroke="#b7b2a9" stroke-width="0.3"/><polygon points="58.67,68.81 63.14,71.25 63.14,68.97" fill="#b7b2a9" stroke="#b7b2a9" stroke-width="0.3"/><polygon points="34.41,66.20 35.47,66.77 35.47,56.16" fill="#ac8e65" stroke="#ac8e65" stroke-width="0.3"/><polygon points="39.88,71.97 39.88,74.91 62.09,84.11" fill="#cac9c2" stroke="#cac9c2" stroke-width="0.3"/><polygon points="33.35,55.00 33.35,65.62 34.41,55.58" fill="#ac8e65" stroke="#ac8e65" stroke-width="0.3"/><polygon points="89.73,71.28 102.92,66.27 102.92,63.98" fill="#cecabf" stroke="#cecabf" stroke-width="0.3"/><polygon points="31.24,86.54 55.32,99.71 55.32,94.83" fill="#8c6942" stroke="#8c6942" stroke-width="0.3"/><polygon points="58.67,61.95 58.67,64.24 63.14,64.40" fill="#b7b2a9" stroke="#b7b2a9" stroke-width="0.3"/><polygon points="58.67,66.53 63.14,68.97 63.14,66.68" fill="#b7b2a9" stroke="#b7b2a9" stroke-width="0.3"/><polygon points="184.68,85.45 160.60,72.28 164.38,93.16" fill="#a87f51" stroke="#a87f51" stroke-width="0.3"/><polygon points="34.41,55.58 34.41,66.20 35.47,56.16" fill="#ac8e65" stroke="#ac8e65" stroke-width="0.3"/><polygon points="39.88,69.03 39.88,71.97 62.09,81.17" fill="#cac9c2" stroke="#cac9c2" stroke-width="0.3"/><polygon points="89.73,69.00 102.92,63.98 102.92,61.70" fill="#cecabf" stroke="#cecabf" stroke-width="0.3"/><polygon points="95.92,74.53 75.62,82.24 99.70,95.41" fill="#a87f51" stroke="#a87f51" stroke-width="0.3"/><polygon points="102.92,59.41 98.46,56.97 89.73,64.42" fill="#dbd6cb" stroke="#dbd6cb" stroke-width="0.3"/><polygon points="58.67,59.67 58.67,61.95 63.14,62.11" fill="#b7b2a9" stroke="#b7b2a9" stroke-width="0.3"/><polygon points="58.67,64.24 63.14,66.68 63.14,64.40" fill="#b7b2a9" stroke="#b7b2a9" stroke-width="0.3"/><polygon points="80.80,59.54 76.33,57.10 67.60,64.55" fill="#dbd6cb" stroke="#dbd6cb" stroke-width="0.3"/><polygon points="80.41,71.27 58.21,59.12 62.09,78.23" fill="#f2f0e8" stroke="#f2f0e8" stroke-width="0.3"/><polygon points="89.73,66.71 102.92,61.70 102.92,59.41" fill="#cecabf" stroke="#cecabf" stroke-width="0.3"/><polygon points="89.73,71.28 89.73,73.57 102.92,66.27" fill="#cecabf" stroke="#cecabf" stroke-width="0.3"/><polygon points="31.24,81.66 55.32,94.83 55.32,89.95" fill="#8c6942" stroke="#8c6942" stroke-width="0.3"/><polygon points="39.88,66.09 39.88,69.03 62.09,78.23" fill="#cac9c2" stroke="#cac9c2" stroke-width="0.3"/><polygon points="58.67,61.95 63.14,64.40 63.14,62.11" fill="#b7b2a9" stroke="#b7b2a9" stroke-width="0.3"/><polygon points="63.14,68.97 63.14,71.25 67.60,71.41" fill="#b7b2a9" stroke="#b7b2a9" stroke-width="0.3"/><polygon points="98.46,56.97 85.26,61.98 89.73,64.42" fill="#dbd6cb" stroke="#dbd6cb" stroke-width="0.3"/><polygon points="76.33,57.10 63.14,62.11 67.60,64.55" fill="#dbd6cb" stroke="#dbd6cb" stroke-width="0.3"/><polygon points="89.73,69.00 89.73,71.28 102.92,63.98" fill="#cecabf" stroke="#cecabf" stroke-width="0.3"/><polygon points="63.14,66.68 63.14,68.97 67.60,69.12" fill="#b7b2a9" stroke="#b7b2a9" stroke-width="0.3"/><polygon points="63.14,71.25 67.60,73.70 67.60,71.41" fill="#b7b2a9" stroke="#b7b2a9" stroke-width="0.3"/><polygon points="89.73,66.71 89.73,69.00 102.92,61.70" fill="#cecabf" stroke="#cecabf" stroke-width="0.3"/><polygon points="120.00,87.70 95.92,74.53 99.70,95.41" fill="#a87f51" stroke="#a87f51" stroke-width="0.3"/><polygon points="63.14,64.40 63.14,66.68 67.60,66.84" fill="#b7b2a9" stroke="#b7b2a9" stroke-width="0.3"/><polygon points="63.14,68.97 67.60,71.41 67.60,69.12" fill="#b7b2a9" stroke="#b7b2a9" stroke-width="0.3"/><polygon points="157.59,62.53 139.27,69.49 161.47,81.64" fill="#f2f0e8" stroke="#f2f0e8" stroke-width="0.3"/><polygon points="39.88,77.85 62.09,89.99 62.09,87.05" fill="#cac9c2" stroke="#cac9c2" stroke-width="0.3"/><polygon points="89.73,64.42 89.73,66.71 102.92,59.41" fill="#cecabf" stroke="#cecabf" stroke-width="0.3"/><polygon points="63.14,62.11 63.14,64.40 67.60,64.55" fill="#b7b2a9" stroke="#b7b2a9" stroke-width="0.3"/><polygon points="63.14,66.68 67.60,69.12 67.60,66.84" fill="#b7b2a9" stroke="#b7b2a9" stroke-width="0.3"/><polygon points="85.26,61.98 80.80,59.54 72.07,66.99" fill="#dbd6cb" stroke="#dbd6cb" stroke-width="0.3"/><polygon points="39.88,74.91 62.09,87.05 62.09,84.11" fill="#cac9c2" stroke="#cac9c2" stroke-width="0.3"/><polygon points="63.14,64.40 67.60,66.84 67.60,64.55" fill="#b7b2a9" stroke="#b7b2a9" stroke-width="0.3"/><polygon points="67.60,71.41 67.60,73.70 72.07,73.85" fill="#b7b2a9" stroke="#b7b2a9" stroke-width="0.3"/><polygon points="80.80,59.54 67.60,64.55 72.07,66.99" fill="#dbd6cb" stroke="#dbd6cb" stroke-width="0.3"/><polygon points="39.88,71.97 62.09,84.11 62.09,81.17" fill="#cac9c2" stroke="#cac9c2" stroke-width="0.3"/><polygon points="179.79,74.68 157.59,62.53 161.47,81.64" fill="#f2f0e8" stroke="#f2f0e8" stroke-width="0.3"/><polygon points="76.53,78.58 89.73,73.57 89.73,71.28" fill="#cecabf" stroke="#cecabf" stroke-width="0.3"/><polygon points="98.74,64.31 80.41,71.27 102.61,83.41" fill="#f2f0e8" stroke="#f2f0e8" stroke-width="0.3"/><polygon points="67.60,69.12 67.60,71.41 72.07,71.57" fill="#b7b2a9" stroke="#b7b2a9" stroke-width="0.3"/><polygon points="67.60,73.70 72.07,76.14 72.07,73.85" fill="#b7b2a9" stroke="#b7b2a9" stroke-width="0.3"/><polygon points="76.53,76.29 89.73,71.28 89.73,69.00" fill="#cecabf" stroke="#cecabf" stroke-width="0.3"/><polygon points="67.60,66.84 67.60,69.12 72.07,69.28" fill="#b7b2a9" stroke="#b7b2a9" stroke-width="0.3"/><polygon points="67.60,71.41 72.07,73.85 72.07,71.57" fill="#b7b2a9" stroke="#b7b2a9" stroke-width="0.3"/><polygon points="39.88,69.03 62.09,81.17 62.09,78.23" fill="#cac9c2" stroke="#cac9c2" stroke-width="0.3"/><polygon points="76.53,74.01 89.73,69.00 89.73,66.71" fill="#cecabf" stroke="#cecabf" stroke-width="0.3"/><polygon points="67.60,64.55 67.60,66.84 72.07,66.99" fill="#b7b2a9" stroke="#b7b2a9" stroke-width="0.3"/><polygon points="67.60,69.12 72.07,71.57 72.07,69.28" fill="#b7b2a9" stroke="#b7b2a9" stroke-width="0.3"/><polygon points="89.73,64.42 85.26,61.98 76.53,69.43" fill="#dbd6cb" stroke="#dbd6cb" stroke-width="0.3"/><polygon points="140.30,79.99 120.00,87.70 144.08,100.87" fill="#a87f51" stroke="#a87f51" stroke-width="0.3"/><polygon points="120.94,76.45 98.74,64.31 102.61,83.41" fill="#f2f0e8" stroke="#f2f0e8" stroke-width="0.3"/><polygon points="76.53,71.72 89.73,66.71 89.73,64.42" fill="#cecabf" stroke="#cecabf" stroke-width="0.3"/><polygon points="76.53,76.29 76.53,78.58 89.73,71.28" fill="#cecabf" stroke="#cecabf" stroke-width="0.3"/><polygon points="67.60,66.84 72.07,69.28 72.07,66.99" fill="#b7b2a9" stroke="#b7b2a9" stroke-width="0.3"/><polygon points="72.07,73.85 72.07,76.14 76.53,76.29" fill="#b7b2a9" stroke="#b7b2a9" stroke-width="0.3"/><polygon points="85.26,61.98 72.07,66.99 76.53,69.43" fill="#dbd6cb" stroke="#dbd6cb" stroke-width="0.3"/><polygon points="55.32,104.60 55.32,109.48 79.40,117.77" fill="#8c6942" stroke="#8c6942" stroke-width="0.3"/><polygon points="76.53,74.01 76.53,76.29 89.73,69.00" fill="#cecabf" stroke="#cecabf" stroke-width="0.3"/><polygon points="72.07,71.57 72.07,73.85 76.53,74.01" fill="#b7b2a9" stroke="#b7b2a9" stroke-width="0.3"/><polygon points="72.07,76.14 76.53,78.58 76.53,76.29" fill="#b7b2a9" stroke="#b7b2a9" stroke-width="0.3"/><polygon points="76.53,71.72 76.53,74.01 89.73,66.71" fill="#cecabf" stroke="#cecabf" stroke-width="0.3"/><polygon points="72.07,69.28 72.07,71.57 76.53,71.72" fill="#b7b2a9" stroke="#b7b2a9" stroke-width="0.3"/><polygon points="72.07,73.85 76.53,76.29 76.53,74.01" fill="#b7b2a9" stroke="#b7b2a9" stroke-width="0.3"/><polygon points="164.38,93.16 140.30,79.99 144.08,100.87" fill="#a87f51" stroke="#a87f51" stroke-width="0.3"/><polygon points="55.32,99.71 55.32,104.60 79.40,112.89" fill="#8c6942" stroke="#8c6942" stroke-width="0.3"/><polygon points="76.53,69.43 76.53,71.72 89.73,64.42" fill="#cecabf" stroke="#cecabf" stroke-width="0.3"/><polygon points="72.07,66.99 72.07,69.28 76.53,69.43" fill="#b7b2a9" stroke="#b7b2a9" stroke-width="0.3"/><polygon points="72.07,71.57 76.53,74.01 76.53,71.72" fill="#b7b2a9" stroke="#b7b2a9" stroke-width="0.3"/><polygon points="75.62,82.24 55.32,89.95 79.40,103.12" fill="#a87f51" stroke="#a87f51" stroke-width="0.3"/><polygon points="72.07,69.28 76.53,71.72 76.53,69.43" fill="#b7b2a9" stroke="#b7b2a9" stroke-width="0.3"/><polygon points="55.32,94.83 55.32,99.71 79.40,108.00" fill="#8c6942" stroke="#8c6942" stroke-width="0.3"/><polygon points="139.27,69.49 120.94,76.45 143.14,88.60" fill="#f2f0e8" stroke="#f2f0e8" stroke-width="0.3"/><polygon points="99.70,95.41 75.62,82.24 79.40,103.12" fill="#a87f51" stroke="#a87f51" stroke-width="0.3"/><polygon points="55.32,89.95 55.32,94.83 79.40,103.12" fill="#8c6942" stroke="#8c6942" stroke-width="0.3"/><polygon points="55.32,109.48 79.40,122.65 79.40,117.77" fill="#8c6942" stroke="#8c6942" stroke-width="0.3"/><polygon points="62.09,87.05 62.09,89.99 84.29,99.20" fill="#cac9c2" stroke="#cac9c2" stroke-width="0.3"/><polygon points="161.47,81.64 139.27,69.49 143.14,88.60" fill="#f2f0e8" stroke="#f2f0e8" stroke-width="0.3"/><polygon points="80.41,71.27 62.09,78.23 84.29,90.38" fill="#f2f0e8" stroke="#f2f0e8" stroke-width="0.3"/><polygon points="184.68,85.45 164.38,93.16 188.46,106.33" fill="#a87f51" stroke="#a87f51" stroke-width="0.3"/><polygon points="55.32,104.60 79.40,117.77 79.40,112.89" fill="#8c6942" stroke="#8c6942" stroke-width="0.3"/><polygon points="62.09,84.11 62.09,87.05 84.29,96.26" fill="#cac9c2" stroke="#cac9c2" stroke-width="0.3"/><polygon points="62.09,81.17 62.09,84.11 84.29,93.32" fill="#cac9c2" stroke="#cac9c2" stroke-width="0.3"/><polygon points="188.46,125.87 208.76,118.16 208.76,113.27" fill="#9f774c" stroke="#9f774c" stroke-width="0.3"/><polygon points="102.61,83.41 80.41,71.27 84.29,90.38" fill="#f2f0e8" stroke="#f2f0e8" stroke-width="0.3"/><polygon points="55.32,99.71 79.40,112.89 79.40,108.00" fill="#8c6942" stroke="#8c6942" stroke-width="0.3"/><polygon points="208.76,98.62 184.68,85.45 188.46,106.33" fill="#a87f51" stroke="#a87f51" stroke-width="0.3"/><polygon points="62.09,78.23 62.09,81.17 84.29,90.38" fill="#cac9c2" stroke="#cac9c2" stroke-width="0.3"/><polygon points="120.00,87.70 99.70,95.41 123.78,108.58" fill="#a87f51" stroke="#a87f51" stroke-width="0.3"/><polygon points="188.46,120.98 208.76,113.27 208.76,108.39" fill="#9f774c" stroke="#9f774c" stroke-width="0.3"/><polygon points="55.32,94.83 79.40,108.00 79.40,103.12" fill="#8c6942" stroke="#8c6942" stroke-width="0.3"/><polygon points="179.79,74.68 161.47,81.64 183.67,93.78" fill="#f2f0e8" stroke="#f2f0e8" stroke-width="0.3"/><polygon points="62.09,89.99 84.29,102.14 84.29,99.20" fill="#cac9c2" stroke="#cac9c2" stroke-width="0.3"/><polygon points="144.08,100.87 120.00,87.70 123.78,108.58" fill="#a87f51" stroke="#a87f51" stroke-width="0.3"/><polygon points="188.46,116.10 208.76,108.39 208.76,103.51" fill="#9f774c" stroke="#9f774c" stroke-width="0.3"/><polygon points="62.09,87.05 84.29,99.20 84.29,96.26" fill="#cac9c2" stroke="#cac9c2" stroke-width="0.3"/><polygon points="188.46,120.98 188.46,125.87 208.76,113.27" fill="#9f774c" stroke="#9f774c" stroke-width="0.3"/><polygon points="62.09,84.11 84.29,96.26 84.29,93.32" fill="#cac9c2" stroke="#cac9c2" stroke-width="0.3"/><polygon points="202.00,86.82 179.79,74.68 183.67,93.78" fill="#f2f0e8" stroke="#f2f0e8" stroke-width="0.3"/><polygon points="120.94,76.45 102.61,83.41 124.82,95.56" fill="#f2f0e8" stroke="#f2f0e8" stroke-width="0.3"/><polygon points="188.46,111.22 208.76,103.51 208.76,98.62" fill="#9f774c" stroke="#9f774c" stroke-width="0.3"/><polygon points="62.09,81.17 84.29,93.32 84.29,90.38" fill="#cac9c2" stroke="#cac9c2" stroke-width="0.3"/><polygon points="188.46,116.10 188.46,120.98 208.76,108.39" fill="#9f774c" stroke="#9f774c" stroke-width="0.3"/><polygon points="183.67,105.54 202.00,98.58 202.00,95.64" fill="#e4e2db" stroke="#e4e2db" stroke-width="0.3"/><polygon points="143.14,88.60 120.94,76.45 124.82,95.56" fill="#f2f0e8" stroke="#f2f0e8" stroke-width="0.3"/><polygon points="183.67,102.60 202.00,95.64 202.00,92.70" fill="#e4e2db" stroke="#e4e2db" stroke-width="0.3"/><polygon points="188.46,111.22 188.46,116.10 208.76,103.51" fill="#9f774c" stroke="#9f774c" stroke-width="0.3"/><polygon points="164.38,93.16 144.08,100.87 168.16,114.04" fill="#a87f51" stroke="#a87f51" stroke-width="0.3"/><polygon points="183.67,99.66 202.00,92.70 202.00,89.76" fill="#e4e2db" stroke="#e4e2db" stroke-width="0.3"/><polygon points="79.40,117.77 79.40,122.65 103.48,130.94" fill="#8c6942" stroke="#8c6942" stroke-width="0.3"/><polygon points="188.46,106.33 188.46,111.22 208.76,98.62" fill="#9f774c" stroke="#9f774c" stroke-width="0.3"/><polygon points="183.67,96.72 202.00,89.76 202.00,86.82" fill="#e4e2db" stroke="#e4e2db" stroke-width="0.3"/><polygon points="183.67,102.60 183.67,105.54 202.00,95.64" fill="#e4e2db" stroke="#e4e2db" stroke-width="0.3"/><polygon points="168.16,133.58 188.46,125.87 188.46,120.98" fill="#9f774c" stroke="#9f774c" stroke-width="0.3"/><polygon points="183.67,99.66 183.67,102.60 202.00,92.70" fill="#e4e2db" stroke="#e4e2db" stroke-width="0.3"/><polygon points="188.46,106.33 164.38,93.16 168.16,114.04" fill="#a87f51" stroke="#a87f51" stroke-width="0.3"/><polygon points="79.40,112.89 79.40,117.77 103.48,126.06" fill="#8c6942" stroke="#8c6942" stroke-width="0.3"/><polygon points="99.70,95.41 79.40,103.12 103.48,116.29" fill="#a87f51" stroke="#a87f51" stroke-width="0.3"/><polygon points="161.47,81.64 143.14,88.60 165.34,100.74" fill="#f2f0e8" stroke="#f2f0e8" stroke-width="0.3"/><polygon points="183.67,96.72 183.67,99.66 202.00,89.76" fill="#e4e2db" stroke="#e4e2db" stroke-width="0.3"/><polygon points="168.16,128.69 188.46,120.98 188.46,116.10" fill="#9f774c" stroke="#9f774c" stroke-width="0.3"/><polygon points="79.40,108.00 79.40,112.89 103.48,121.18" fill="#8c6942" stroke="#8c6942" stroke-width="0.3"/><polygon points="183.67,93.78 183.67,96.72 202.00,86.82" fill="#e4e2db" stroke="#e4e2db" stroke-width="0.3"/><polygon points="84.29,99.20 84.29,102.14 106.49,111.34" fill="#cac9c2" stroke="#cac9c2" stroke-width="0.3"/><polygon points="123.78,108.58 99.70,95.41 103.48,116.29" fill="#a87f51" stroke="#a87f51" stroke-width="0.3"/><polygon points="168.16,123.81 188.46,116.10 188.46,111.22" fill="#9f774c" stroke="#9f774c" stroke-width="0.3"/><polygon points="183.67,93.78 161.47,81.64 165.34,100.74" fill="#f2f0e8" stroke="#f2f0e8" stroke-width="0.3"/><polygon points="102.61,83.41 84.29,90.38 106.49,102.52" fill="#f2f0e8" stroke="#f2f0e8" stroke-width="0.3"/><polygon points="79.40,103.12 79.40,108.00 103.48,116.29" fill="#8c6942" stroke="#8c6942" stroke-width="0.3"/><polygon points="168.16,128.69 168.16,133.58 188.46,120.98" fill="#9f774c" stroke="#9f774c" stroke-width="0.3"/><polygon points="79.40,122.65 103.48,135.83 103.48,130.94" fill="#8c6942" stroke="#8c6942" stroke-width="0.3"/><polygon points="84.29,96.26 84.29,99.20 106.49,108.40" fill="#cac9c2" stroke="#cac9c2" stroke-width="0.3"/><polygon points="168.16,118.93 188.46,111.22 188.46,106.33" fill="#9f774c" stroke="#9f774c" stroke-width="0.3"/><polygon points="165.34,112.50 183.67,105.54 183.67,102.60" fill="#e4e2db" stroke="#e4e2db" stroke-width="0.3"/><polygon points="84.29,93.32 84.29,96.26 106.49,105.46" fill="#cac9c2" stroke="#cac9c2" stroke-width="0.3"/><polygon points="168.16,123.81 168.16,128.69 188.46,116.10" fill="#9f774c" stroke="#9f774c" stroke-width="0.3"/><polygon points="79.40,117.77 103.48,130.94 103.48,126.06" fill="#8c6942" stroke="#8c6942" stroke-width="0.3"/><polygon points="124.82,95.56 102.61,83.41 106.49,102.52" fill="#f2f0e8" stroke="#f2f0e8" stroke-width="0.3"/><polygon points="165.34,109.56 183.67,102.60 183.67,99.66" fill="#e4e2db" stroke="#e4e2db" stroke-width="0.3"/><polygon points="84.29,90.38 84.29,93.32 106.49,102.52" fill="#cac9c2" stroke="#cac9c2" stroke-width="0.3"/><polygon points="165.34,106.62 183.67,99.66 183.67,96.72" fill="#e4e2db" stroke="#e4e2db" stroke-width="0.3"/><polygon points="168.16,118.93 168.16,123.81 188.46,111.22" fill="#9f774c" stroke="#9f774c" stroke-width="0.3"/><polygon points="79.40,112.89 103.48,126.06 103.48,121.18" fill="#8c6942" stroke="#8c6942" stroke-width="0.3"/><polygon points="144.08,100.87 123.78,108.58 147.86,121.76" fill="#a87f51" stroke="#a87f51" stroke-width="0.3"/><polygon points="165.34,103.68 183.67,96.72 183.67,93.78" fill="#e4e2db" stroke="#e4e2db" stroke-width="0.3"/><polygon points="84.29,102.14 106.49,114.28 106.49,111.34" fill="#cac9c2" stroke="#cac9c2" stroke-width="0.3"/><polygon points="165.34,109.56 165.34,112.50 183.67,102.60" fill="#e4e2db" stroke="#e4e2db" stroke-width="0.3"/><polygon points="168.16,114.04 168.16,118.93 188.46,106.33" fill="#9f774c" stroke="#9f774c" stroke-width="0.3"/><polygon points="79.40,108.00 103.48,121.18 103.48,116.29" fill="#8c6942" stroke="#8c6942" stroke-width="0.3"/><polygon points="84.29,99.20 106.49,111.34 106.49,108.40" fill="#cac9c2" stroke="#cac9c2" stroke-width="0.3"/><polygon points="165.34,106.62 165.34,109.56 183.67,99.66" fill="#e4e2db" stroke="#e4e2db" stroke-width="0.3"/><polygon points="147.86,141.29 168.16,133.58 168.16,128.69" fill="#9f774c" stroke="#9f774c" stroke-width="0.3"/><polygon points="84.29,96.26 106.49,108.40 106.49,105.46" fill="#cac9c2" stroke="#cac9c2" stroke-width="0.3"/><polygon points="143.14,88.60 124.82,95.56 147.02,107.70" fill="#f2f0e8" stroke="#f2f0e8" stroke-width="0.3"/><polygon points="168.16,114.04 144.08,100.87 147.86,121.76" fill="#a87f51" stroke="#a87f51" stroke-width="0.3"/><polygon points="165.34,103.68 165.34,106.62 183.67,96.72" fill="#e4e2db" stroke="#e4e2db" stroke-width="0.3"/><polygon points="84.29,93.32 106.49,105.46 106.49,102.52" fill="#cac9c2" stroke="#cac9c2" stroke-width="0.3"/><polygon points="165.34,100.74 165.34,103.68 183.67,93.78" fill="#e4e2db" stroke="#e4e2db" stroke-width="0.3"/><polygon points="147.86,136.41 168.16,128.69 168.16,123.81" fill="#9f774c" stroke="#9f774c" stroke-width="0.3"/><polygon points="165.34,100.74 143.14,88.60 147.02,107.70" fill="#f2f0e8" stroke="#f2f0e8" stroke-width="0.3"/><polygon points="147.86,131.52 168.16,123.81 168.16,118.93" fill="#9f774c" stroke="#9f774c" stroke-width="0.3"/><polygon points="147.86,136.41 147.86,141.29 168.16,128.69" fill="#9f774c" stroke="#9f774c" stroke-width="0.3"/><polygon points="147.02,119.46 165.34,112.50 165.34,109.56" fill="#e4e2db" stroke="#e4e2db" stroke-width="0.3"/><polygon points="147.86,126.64 168.16,118.93 168.16,114.04" fill="#9f774c" stroke="#9f774c" stroke-width="0.3"/><polygon points="147.02,116.52 165.34,109.56 165.34,106.62" fill="#e4e2db" stroke="#e4e2db" stroke-width="0.3"/><polygon points="147.86,131.52 147.86,136.41 168.16,123.81" fill="#9f774c" stroke="#9f774c" stroke-width="0.3"/><polygon points="103.48,130.94 103.48,135.83 127.57,144.12" fill="#8c6942" stroke="#8c6942" stroke-width="0.3"/><polygon points="147.02,113.58 165.34,106.62 165.34,103.68" fill="#e4e2db" stroke="#e4e2db" stroke-width="0.3"/><polygon points="147.02,110.64 165.34,103.68 165.34,100.74" fill="#e4e2db" stroke="#e4e2db" stroke-width="0.3"/><polygon points="147.86,126.64 147.86,131.52 168.16,118.93" fill="#9f774c" stroke="#9f774c" stroke-width="0.3"/><polygon points="147.02,116.52 147.02,119.46 165.34,109.56" fill="#e4e2db" stroke="#e4e2db" stroke-width="0.3"/><polygon points="103.48,126.06 103.48,130.94 127.57,139.23" fill="#8c6942" stroke="#8c6942" stroke-width="0.3"/><polygon points="123.78,108.58 103.48,116.29 127.57,129.47" fill="#a87f51" stroke="#a87f51" stroke-width="0.3"/><polygon points="147.02,113.58 147.02,116.52 165.34,106.62" fill="#e4e2db" stroke="#e4e2db" stroke-width="0.3"/><polygon points="147.86,121.76 147.86,126.64 168.16,114.04" fill="#9f774c" stroke="#9f774c" stroke-width="0.3"/><polygon points="106.49,111.34 106.49,114.28 128.69,123.49" fill="#cac9c2" stroke="#cac9c2" stroke-width="0.3"/><polygon points="103.48,121.18 103.48,126.06 127.57,134.35" fill="#8c6942" stroke="#8c6942" stroke-width="0.3"/><polygon points="124.82,95.56 106.49,102.52 128.69,114.67" fill="#f2f0e8" stroke="#f2f0e8" stroke-width="0.3"/><polygon points="147.02,110.64 147.02,113.58 165.34,103.68" fill="#e4e2db" stroke="#e4e2db" stroke-width="0.3"/><polygon points="106.49,108.40 106.49,111.34 128.69,120.55" fill="#cac9c2" stroke="#cac9c2" stroke-width="0.3"/><polygon points="127.57,149.00 147.86,141.29 147.86,136.41" fill="#9f774c" stroke="#9f774c" stroke-width="0.3"/><polygon points="147.86,121.76 123.78,108.58 127.57,129.47" fill="#a87f51" stroke="#a87f51" stroke-width="0.3"/><polygon points="147.02,107.70 147.02,110.64 165.34,100.74" fill="#e4e2db" stroke="#e4e2db" stroke-width="0.3"/><polygon points="103.48,116.29 103.48,121.18 127.57,129.47" fill="#8c6942" stroke="#8c6942" stroke-width="0.3"/><polygon points="103.48,135.83 127.57,149.00 127.57,144.12" fill="#8c6942" stroke="#8c6942" stroke-width="0.3"/><polygon points="106.49,105.46 106.49,108.40 128.69,117.61" fill="#cac9c2" stroke="#cac9c2" stroke-width="0.3"/><polygon points="147.02,107.70 124.82,95.56 128.69,114.67" fill="#f2f0e8" stroke="#f2f0e8" stroke-width="0.3"/><polygon points="127.57,144.12 147.86,136.41 147.86,131.52" fill="#9f774c" stroke="#9f774c" stroke-width="0.3"/><polygon points="106.49,102.52 106.49,105.46 128.69,114.67" fill="#cac9c2" stroke="#cac9c2" stroke-width="0.3"/><polygon points="103.48,130.94 127.57,144.12 127.57,139.23" fill="#8c6942" stroke="#8c6942" stroke-width="0.3"/><polygon points="128.69,126.42 147.02,119.46 147.02,116.52" fill="#e4e2db" stroke="#e4e2db" stroke-width="0.3"/><polygon points="127.57,139.23 147.86,131.52 147.86,126.64" fill="#9f774c" stroke="#9f774c" stroke-width="0.3"/><polygon points="127.57,144.12 127.57,149.00 147.86,136.41" fill="#9f774c" stroke="#9f774c" stroke-width="0.3"/><polygon points="106.49,114.28 128.69,126.42 128.69,123.49" fill="#cac9c2" stroke="#cac9c2" stroke-width="0.3"/><polygon points="128.69,123.49 147.02,116.52 147.02,113.58" fill="#e4e2db" stroke="#e4e2db" stroke-width="0.3"/><polygon points="103.48,126.06 127.57,139.23 127.57,134.35" fill="#8c6942" stroke="#8c6942" stroke-width="0.3"/><polygon points="106.49,111.34 128.69,123.49 128.69,120.55" fill="#cac9c2" stroke="#cac9c2" stroke-width="0.3"/><polygon points="127.57,134.35 147.86,126.64 147.86,121.76" fill="#9f774c" stroke="#9f774c" stroke-width="0.3"/><polygon points="128.69,120.55 147.02,113.58 147.02,110.64" fill="#e4e2db" stroke="#e4e2db" stroke-width="0.3"/><polygon points="127.57,139.23 127.57,144.12 147.86,131.52" fill="#9f774c" stroke="#9f774c" stroke-width="0.3"/><polygon points="106.49,108.40 128.69,120.55 128.69,117.61" fill="#cac9c2" stroke="#cac9c2" stroke-width="0.3"/><polygon points="103.48,121.18 127.57,134.35 127.57,129.47" fill="#8c6942" stroke="#8c6942" stroke-width="0.3"/><polygon points="128.69,117.61 147.02,110.64 147.02,107.70" fill="#e4e2db" stroke="#e4e2db" stroke-width="0.3"/><polygon points="128.69,123.49 128.69,126.42 147.02,116.52" fill="#e4e2db" stroke="#e4e2db" stroke-width="0.3"/><polygon points="106.49,105.46 128.69,117.61 128.69,114.67" fill="#cac9c2" stroke="#cac9c2" stroke-width="0.3"/><polygon points="127.57,134.35 127.57,139.23 147.86,126.64" fill="#9f774c" stroke="#9f774c" stroke-width="0.3"/><polygon points="128.69,120.55 128.69,123.49 147.02,113.58" fill="#e4e2db" stroke="#e4e2db" stroke-width="0.3"/><polygon points="128.69,117.61 128.69,120.55 147.02,110.64" fill="#e4e2db" stroke="#e4e2db" stroke-width="0.3"/><polygon points="127.57,129.47 127.57,134.35 147.86,121.76" fill="#9f774c" stroke="#9f774c" stroke-width="0.3"/><polygon points="128.69,114.67 128.69,117.61 147.02,107.70" fill="#e4e2db" stroke="#e4e2db" stroke-width="0.3"/></svg>
