<svg xmlns="http://www.w3.org/2000/svg" viewBox="0 0 240 168"><rect width="240" height="168" fill="#f3f3ec"/><ellipse cx="120" cy="148" rx="77" ry="8" fill="#24352e" opacity=".07"/><polygon points="122.25,124.90 116.41,127.12 121.17,129.72" fill="#d9d5cc" stroke="#d9d5cc" stroke-width="0.3"/><polygon points="127.01,127.50 122.25,124.90 121.17,129.72" fill="#d9d5cc" stroke="#d9d5cc" stroke-width="0.3"/><polygon points="116.41,127.12 110.57,129.34 115.33,131.94" fill="#d9d5cc" stroke="#d9d5cc" stroke-width="0.3"/><polygon points="121.17,129.72 116.41,127.12 115.33,131.94" fill="#d9d5cc" stroke="#d9d5cc" stroke-width="0.3"/><polygon points="127.01,127.50 121.17,129.72 125.93,132.33" fill="#d9d5cc" stroke="#d9d5cc" stroke-width="0.3"/><polygon points="131.77,130.11 127.01,127.50 125.93,132.33" fill="#d9d5cc" stroke="#d9d5cc" stroke-width="0.3"/><polygon points="110.57,129.34 104.73,131.56 109.49,134.16" fill="#d9d5cc" stroke="#d9d5cc" stroke-width="0.3"/><polygon points="115.33,131.94 110.57,129.34 109.49,134.16" fill="#d9d5cc" stroke="#d9d5cc" stroke-width="0.3"/><polygon points="121.17,129.72 115.33,131.94 120.09,134.54" fill="#d9d5cc" stroke="#d9d5cc" stroke-width="0.3"/><polygon points="125.93,132.33 121.17,129.72 120.09,134.54" fill="#d9d5cc" stroke="#d9d5cc" stroke-width="0.3"/><polygon points="131.77,130.11 125.93,132.33 130.69,134.93" fill="#d9d5cc" stroke="#d9d5cc" stroke-width="0.3"/><polygon points="136.53,132.71 131.77,130.11 130.69,134.93" fill="#d9d5cc" stroke="#d9d5cc" stroke-width="0.3"/><polygon points="98.89,137.38 98.89,138.59 103.65,139.99" fill="#b5b2aa" stroke="#b5b2aa" stroke-width="0.3"/><polygon points="104.73,131.56 98.89,133.78 103.65,136.38" fill="#d9d5cc" stroke="#d9d5cc" stroke-width="0.3"/><polygon points="98.89,136.18 98.89,137.38 103.65,138.78" fill="#b5b2aa" stroke="#b5b2aa" stroke-width="0.3"/><polygon points="109.49,134.16 104.73,131.56 103.65,136.38" fill="#d9d5cc" stroke="#d9d5cc" stroke-width="0.3"/><polygon points="98.89,134.98 98.89,136.18 103.65,137.58" fill="#b5b2aa" stroke="#b5b2aa" stroke-width="0.3"/><polygon points="115.33,131.94 109.49,134.16 114.25,136.76" fill="#d9d5cc" stroke="#d9d5cc" stroke-width="0.3"/><polygon points="98.89,138.59 103.65,141.19 103.65,139.99" fill="#b5b2aa" stroke="#b5b2aa" stroke-width="0.3"/><polygon points="120.09,134.54 115.33,131.94 114.25,136.76" fill="#d9d5cc" stroke="#d9d5cc" stroke-width="0.3"/><polygon points="98.89,133.78 98.89,134.98 103.65,136.38" fill="#b5b2aa" stroke="#b5b2aa" stroke-width="0.3"/><polygon points="98.89,137.38 103.65,139.99 103.65,138.78" fill="#b5b2aa" stroke="#b5b2aa" stroke-width="0.3"/><polygon points="125.93,132.33 120.09,134.54 124.85,137.15" fill="#d9d5cc" stroke="#d9d5cc" stroke-width="0.3"/><polygon points="130.69,134.93 125.93,132.33 124.85,137.15" fill="#d9d5cc" stroke="#d9d5cc" stroke-width="0.3"/><polygon points="135.45,142.34 141.29,140.13 141.29,138.92" fill="#ccc9c0" stroke="#ccc9c0" stroke-width="0.3"/><polygon points="98.89,136.18 103.65,138.78 103.65,137.58" fill="#b5b2aa" stroke="#b5b2aa" stroke-width="0.3"/><polygon points="136.53,132.71 130.69,134.93 135.45,137.53" fill="#d9d5cc" stroke="#d9d5cc" stroke-width="0.3"/><polygon points="141.29,135.31 136.53,132.71 135.45,137.53" fill="#d9d5cc" stroke="#d9d5cc" stroke-width="0.3"/><polygon points="135.45,141.14 141.29,138.92 141.29,137.72" fill="#ccc9c0" stroke="#ccc9c0" stroke-width="0.3"/><polygon points="98.89,134.98 103.65,137.58 103.65,136.38" fill="#b5b2aa" stroke="#b5b2aa" stroke-width="0.3"/><polygon points="135.45,139.94 141.29,137.72 141.29,136.52" fill="#ccc9c0" stroke="#ccc9c0" stroke-width="0.3"/><polygon points="135.45,141.14 135.45,142.34 141.29,138.92" fill="#ccc9c0" stroke="#ccc9c0" stroke-width="0.3"/><polygon points="135.45,138.74 141.29,136.52 141.29,135.31" fill="#ccc9c0" stroke="#ccc9c0" stroke-width="0.3"/><polygon points="135.45,139.94 135.45,141.14 141.29,137.72" fill="#ccc9c0" stroke="#ccc9c0" stroke-width="0.3"/><polygon points="103.65,139.99 103.65,141.19 108.41,142.59" fill="#b5b2aa" stroke="#b5b2aa" stroke-width="0.3"/><polygon points="135.45,138.74 135.45,139.94 141.29,136.52" fill="#ccc9c0" stroke="#ccc9c0" stroke-width="0.3"/><polygon points="109.49,134.16 103.65,136.38 108.41,138.98" fill="#d9d5cc" stroke="#d9d5cc" stroke-width="0.3"/><polygon points="103.65,138.78 103.65,139.99 108.41,141.39" fill="#b5b2aa" stroke="#b5b2aa" stroke-width="0.3"/><polygon points="114.25,136.76 109.49,134.16 108.41,138.98" fill="#d9d5cc" stroke="#d9d5cc" stroke-width="0.3"/><polygon points="135.45,137.53 135.45,138.74 141.29,135.31" fill="#ccc9c0" stroke="#ccc9c0" stroke-width="0.3"/><polygon points="103.65,137.58 103.65,138.78 108.41,140.18" fill="#b5b2aa" stroke="#b5b2aa" stroke-width="0.3"/><polygon points="120.09,134.54 114.25,136.76 119.00,139.37" fill="#d9d5cc" stroke="#d9d5cc" stroke-width="0.3"/><polygon points="103.65,141.19 108.41,143.79 108.41,142.59" fill="#b5b2aa" stroke="#b5b2aa" stroke-width="0.3"/><polygon points="124.85,137.15 120.09,134.54 119.00,139.37" fill="#d9d5cc" stroke="#d9d5cc" stroke-width="0.3"/><polygon points="129.60,144.56 135.45,142.34 135.45,141.14" fill="#ccc9c0" stroke="#ccc9c0" stroke-width="0.3"/><polygon points="103.65,136.38 103.65,137.58 108.41,138.98" fill="#b5b2aa" stroke="#b5b2aa" stroke-width="0.3"/><polygon points="103.65,139.99 108.41,142.59 108.41,141.39" fill="#b5b2aa" stroke="#b5b2aa" stroke-width="0.3"/><polygon points="130.69,134.93 124.85,137.15 129.60,139.75" fill="#d9d5cc" stroke="#d9d5cc" stroke-width="0.3"/><polygon points="135.45,137.53 130.69,134.93 129.60,139.75" fill="#d9d5cc" stroke="#d9d5cc" stroke-width="0.3"/><polygon points="129.60,143.36 135.45,141.14 135.45,139.94" fill="#ccc9c0" stroke="#ccc9c0" stroke-width="0.3"/><polygon points="103.65,138.78 108.41,141.39 108.41,140.18" fill="#b5b2aa" stroke="#b5b2aa" stroke-width="0.3"/><polygon points="129.60,142.16 135.45,139.94 135.45,138.74" fill="#ccc9c0" stroke="#ccc9c0" stroke-width="0.3"/><polygon points="103.65,137.58 108.41,140.18 108.41,138.98" fill="#b5b2aa" stroke="#b5b2aa" stroke-width="0.3"/><polygon points="129.60,143.36 129.60,144.56 135.45,141.14" fill="#ccc9c0" stroke="#ccc9c0" stroke-width="0.3"/><polygon points="96.94,133.91 101.98,136.67 101.98,111.41" fill="#b5b2aa" stroke="#b5b2aa" stroke-width="0.3"/><polygon points="129.60,140.95 135.45,138.74 135.45,137.53" fill="#ccc9c0" stroke="#ccc9c0" stroke-width="0.3"/><polygon points="136.57,137.55 143.06,135.08 143.06,109.82" fill="#ccc9c0" stroke="#ccc9c0" stroke-width="0.3"/><polygon points="129.60,142.16 129.60,143.36 135.45,139.94" fill="#ccc9c0" stroke="#ccc9c0" stroke-width="0.3"/><polygon points="129.60,140.95 129.60,142.16 135.45,138.74" fill="#ccc9c0" stroke="#ccc9c0" stroke-width="0.3"/><polygon points="108.41,142.59 108.41,143.79 113.16,145.19" fill="#b5b2aa" stroke="#b5b2aa" stroke-width="0.3"/><polygon points="129.60,139.75 129.60,140.95 135.45,137.53" fill="#ccc9c0" stroke="#ccc9c0" stroke-width="0.3"/><polygon points="114.25,136.76 108.41,138.98 113.16,141.58" fill="#d9d5cc" stroke="#d9d5cc" stroke-width="0.3"/><polygon points="108.41,141.39 108.41,142.59 113.16,143.99" fill="#b5b2aa" stroke="#b5b2aa" stroke-width="0.3"/><polygon points="137.00,137.30 142.97,135.03 142.97,110.25" fill="#e7e5df" stroke="#e7e5df" stroke-width="0.3"/><polygon points="119.00,139.37 114.25,136.76 113.16,141.58" fill="#d9d5cc" stroke="#d9d5cc" stroke-width="0.3"/><polygon points="96.94,108.65 96.94,133.91 101.98,111.41" fill="#b5b2aa" stroke="#b5b2aa" stroke-width="0.3"/><polygon points="123.76,146.78 129.60,144.56 129.60,143.36" fill="#ccc9c0" stroke="#ccc9c0" stroke-width="0.3"/><polygon points="108.41,140.18 108.41,141.39 113.16,142.79" fill="#b5b2aa" stroke="#b5b2aa" stroke-width="0.3"/><polygon points="124.85,137.15 119.00,139.37 123.76,141.97" fill="#d9d5cc" stroke="#d9d5cc" stroke-width="0.3"/><polygon points="108.41,143.79 113.16,146.40 113.16,145.19" fill="#b5b2aa" stroke="#b5b2aa" stroke-width="0.3"/><polygon points="129.60,139.75 124.85,137.15 123.76,141.97" fill="#d9d5cc" stroke="#d9d5cc" stroke-width="0.3"/><polygon points="123.76,145.58 129.60,143.36 129.60,142.16" fill="#ccc9c0" stroke="#ccc9c0" stroke-width="0.3"/><polygon points="108.41,138.98 108.41,140.18 113.16,141.58" fill="#b5b2aa" stroke="#b5b2aa" stroke-width="0.3"/><polygon points="108.41,142.59 113.16,145.19 113.16,143.99" fill="#b5b2aa" stroke="#b5b2aa" stroke-width="0.3"/><polygon points="123.76,144.38 129.60,142.16 129.60,140.95" fill="#ccc9c0" stroke="#ccc9c0" stroke-width="0.3"/><polygon points="123.76,145.58 123.76,146.78 129.60,143.36" fill="#ccc9c0" stroke="#ccc9c0" stroke-width="0.3"/><polygon points="108.41,141.39 113.16,143.99 113.16,142.79" fill="#b5b2aa" stroke="#b5b2aa" stroke-width="0.3"/><polygon points="123.76,143.17 129.60,140.95 129.60,139.75" fill="#ccc9c0" stroke="#ccc9c0" stroke-width="0.3"/><polygon points="123.76,144.38 123.76,145.58 129.60,142.16" fill="#ccc9c0" stroke="#ccc9c0" stroke-width="0.3"/><polygon points="108.41,140.18 113.16,142.79 113.16,141.58" fill="#b5b2aa" stroke="#b5b2aa" stroke-width="0.3"/><polygon points="130.08,140.01 136.57,137.55 136.57,112.28" fill="#ccc9c0" stroke="#ccc9c0" stroke-width="0.3"/><polygon points="101.98,136.67 107.02,139.43 107.02,114.16" fill="#b5b2aa" stroke="#b5b2aa" stroke-width="0.3"/><polygon points="123.76,143.17 123.76,144.38 129.60,140.95" fill="#ccc9c0" stroke="#ccc9c0" stroke-width="0.3"/><polygon points="123.76,141.97 123.76,143.17 129.60,139.75" fill="#ccc9c0" stroke="#ccc9c0" stroke-width="0.3"/><polygon points="136.57,112.28 136.57,137.55 143.06,109.82" fill="#ccc9c0" stroke="#ccc9c0" stroke-width="0.3"/><polygon points="113.16,145.19 113.16,146.40 117.92,147.80" fill="#b5b2aa" stroke="#b5b2aa" stroke-width="0.3"/><polygon points="131.03,139.57 137.00,137.30 137.00,112.52" fill="#e7e5df" stroke="#e7e5df" stroke-width="0.3"/><polygon points="117.92,149.00 123.76,146.78 123.76,145.58" fill="#ccc9c0" stroke="#ccc9c0" stroke-width="0.3"/><polygon points="119.00,139.37 113.16,141.58 117.92,144.19" fill="#d9d5cc" stroke="#d9d5cc" stroke-width="0.3"/><polygon points="113.16,143.99 113.16,145.19 117.92,146.59" fill="#b5b2aa" stroke="#b5b2aa" stroke-width="0.3"/><polygon points="123.76,141.97 119.00,139.37 117.92,144.19" fill="#d9d5cc" stroke="#d9d5cc" stroke-width="0.3"/><polygon points="117.92,147.80 123.76,145.58 123.76,144.38" fill="#ccc9c0" stroke="#ccc9c0" stroke-width="0.3"/><polygon points="101.98,111.41 101.98,136.67 107.02,114.16" fill="#b5b2aa" stroke="#b5b2aa" stroke-width="0.3"/><polygon points="113.16,142.79 113.16,143.99 117.92,145.39" fill="#b5b2aa" stroke="#b5b2aa" stroke-width="0.3"/><polygon points="137.00,112.52 137.00,137.30 142.97,110.25" fill="#e7e5df" stroke="#e7e5df" stroke-width="0.3"/><polygon points="113.16,146.40 117.92,149.00 117.92,147.80" fill="#b5b2aa" stroke="#b5b2aa" stroke-width="0.3"/><polygon points="117.92,146.59 123.76,144.38 123.76,143.17" fill="#ccc9c0" stroke="#ccc9c0" stroke-width="0.3"/><polygon points="113.16,141.58 113.16,142.79 117.92,144.19" fill="#b5b2aa" stroke="#b5b2aa" stroke-width="0.3"/><polygon points="117.92,147.80 117.92,149.00 123.76,145.58" fill="#ccc9c0" stroke="#ccc9c0" stroke-width="0.3"/><polygon points="113.16,145.19 117.92,147.80 117.92,146.59" fill="#b5b2aa" stroke="#b5b2aa" stroke-width="0.3"/><polygon points="117.92,145.39 123.76,143.17 123.76,141.97" fill="#ccc9c0" stroke="#ccc9c0" stroke-width="0.3"/><polygon points="117.92,146.59 117.92,147.80 123.76,144.38" fill="#ccc9c0" stroke="#ccc9c0" stroke-width="0.3"/><polygon points="113.16,143.99 117.92,146.59 117.92,145.39" fill="#b5b2aa" stroke="#b5b2aa" stroke-width="0.3"/><polygon points="117.92,145.39 117.92,146.59 123.76,143.17" fill="#ccc9c0" stroke="#ccc9c0" stroke-width="0.3"/><polygon points="123.59,142.48 130.08,140.01 130.08,114.75" fill="#ccc9c0" stroke="#ccc9c0" stroke-width="0.3"/><polygon points="113.16,142.79 117.92,145.39 117.92,144.19" fill="#b5b2aa" stroke="#b5b2aa" stroke-width="0.3"/><polygon points="117.92,144.19 117.92,145.39 123.76,141.97" fill="#ccc9c0" stroke="#ccc9c0" stroke-width="0.3"/><polygon points="107.02,139.43 112.06,142.18 112.06,116.92" fill="#b5b2aa" stroke="#b5b2aa" stroke-width="0.3"/><polygon points="130.08,114.75 130.08,140.01 136.57,112.28" fill="#ccc9c0" stroke="#ccc9c0" stroke-width="0.3"/><polygon points="125.06,141.84 131.03,139.57 131.03,114.79" fill="#e7e5df" stroke="#e7e5df" stroke-width="0.3"/><polygon points="131.03,114.79 131.03,139.57 137.00,112.52" fill="#e7e5df" stroke="#e7e5df" stroke-width="0.3"/><polygon points="96.94,108.65 101.98,111.41 101.98,86.14" fill="#b5b2aa" stroke="#b5b2aa" stroke-width="0.3"/><polygon points="136.57,112.28 143.06,109.82 143.06,84.55" fill="#ccc9c0" stroke="#ccc9c0" stroke-width="0.3"/><polygon points="107.02,114.16 107.02,139.43 112.06,116.92" fill="#b5b2aa" stroke="#b5b2aa" stroke-width="0.3"/><polygon points="117.10,144.94 123.59,142.48 123.59,117.21" fill="#ccc9c0" stroke="#ccc9c0" stroke-width="0.3"/><polygon points="137.00,112.52 142.97,110.25 142.97,85.47" fill="#e7e5df" stroke="#e7e5df" stroke-width="0.3"/><polygon points="96.94,83.39 96.94,108.65 101.98,86.14" fill="#b5b2aa" stroke="#b5b2aa" stroke-width="0.3"/><polygon points="119.09,144.11 125.06,141.84 125.06,117.06" fill="#e7e5df" stroke="#e7e5df" stroke-width="0.3"/><polygon points="123.59,117.21 123.59,142.48 130.08,114.75" fill="#ccc9c0" stroke="#ccc9c0" stroke-width="0.3"/><polygon points="112.06,142.18 117.10,144.94 117.10,119.68" fill="#b5b2aa" stroke="#b5b2aa" stroke-width="0.3"/><polygon points="125.06,117.06 125.06,141.84 131.03,114.79" fill="#e7e5df" stroke="#e7e5df" stroke-width="0.3"/><polygon points="118.23,143.63 118.44,143.75 118.44,118.97" fill="#cdcbc6" stroke="#cdcbc6" stroke-width="0.3"/><polygon points="130.08,114.75 136.57,112.28 136.57,87.02" fill="#ccc9c0" stroke="#ccc9c0" stroke-width="0.3"/><polygon points="118.44,143.75 118.66,143.87 118.66,119.09" fill="#cdcbc6" stroke="#cdcbc6" stroke-width="0.3"/><polygon points="118.66,143.87 118.88,143.99 118.88,119.20" fill="#cdcbc6" stroke="#cdcbc6" stroke-width="0.3"/><polygon points="101.98,111.41 107.02,114.16 107.02,88.90" fill="#b5b2aa" stroke="#b5b2aa" stroke-width="0.3"/><polygon points="118.88,143.99 119.09,144.11 119.09,119.32" fill="#cdcbc6" stroke="#cdcbc6" stroke-width="0.3"/><polygon points="112.06,116.92 112.06,142.18 117.10,119.68" fill="#b5b2aa" stroke="#b5b2aa" stroke-width="0.3"/><polygon points="136.57,87.02 136.57,112.28 143.06,84.55" fill="#ccc9c0" stroke="#ccc9c0" stroke-width="0.3"/><polygon points="131.03,114.79 137.00,112.52 137.00,87.74" fill="#e7e5df" stroke="#e7e5df" stroke-width="0.3"/><polygon points="117.10,119.68 117.10,144.94 123.59,117.21" fill="#ccc9c0" stroke="#ccc9c0" stroke-width="0.3"/><polygon points="137.00,87.74 137.00,112.52 142.97,85.47" fill="#e7e5df" stroke="#e7e5df" stroke-width="0.3"/><polygon points="101.98,86.14 101.98,111.41 107.02,88.90" fill="#b5b2aa" stroke="#b5b2aa" stroke-width="0.3"/><polygon points="119.09,119.32 119.09,144.11 125.06,117.06" fill="#e7e5df" stroke="#e7e5df" stroke-width="0.3"/><polygon points="118.23,118.85 118.23,143.63 118.44,118.97" fill="#cdcbc6" stroke="#cdcbc6" stroke-width="0.3"/><polygon points="118.44,118.97 118.44,143.75 118.66,119.09" fill="#cdcbc6" stroke="#cdcbc6" stroke-width="0.3"/><polygon points="118.66,119.09 118.66,143.87 118.88,119.20" fill="#cdcbc6" stroke="#cdcbc6" stroke-width="0.3"/><polygon points="118.88,119.20 118.88,143.99 119.09,119.32" fill="#cdcbc6" stroke="#cdcbc6" stroke-width="0.3"/><polygon points="123.59,117.21 130.08,114.75 130.08,89.48" fill="#ccc9c0" stroke="#ccc9c0" stroke-width="0.3"/><polygon points="107.02,114.16 112.06,116.92 112.06,91.66" fill="#b5b2aa" stroke="#b5b2aa" stroke-width="0.3"/><polygon points="125.06,117.06 131.03,114.79 131.03,90.01" fill="#e7e5df" stroke="#e7e5df" stroke-width="0.3"/><polygon points="130.08,89.48 130.08,114.75 136.57,87.02" fill="#ccc9c0" stroke="#ccc9c0" stroke-width="0.3"/><polygon points="131.03,90.01 131.03,114.79 137.00,87.74" fill="#e7e5df" stroke="#e7e5df" stroke-width="0.3"/><polygon points="96.94,83.39 101.98,86.14 101.98,60.88" fill="#b5b2aa" stroke="#b5b2aa" stroke-width="0.3"/><polygon points="136.57,87.02 143.06,84.55 143.06,59.29" fill="#ccc9c0" stroke="#ccc9c0" stroke-width="0.3"/><polygon points="107.02,88.90 107.02,114.16 112.06,91.66" fill="#b5b2aa" stroke="#b5b2aa" stroke-width="0.3"/><polygon points="117.10,119.68 123.59,117.21 123.59,91.95" fill="#ccc9c0" stroke="#ccc9c0" stroke-width="0.3"/><polygon points="137.00,87.74 142.97,85.47 142.97,60.69" fill="#e7e5df" stroke="#e7e5df" stroke-width="0.3"/><polygon points="119.09,119.32 125.06,117.06 125.06,92.27" fill="#e7e5df" stroke="#e7e5df" stroke-width="0.3"/><polygon points="96.94,58.12 96.94,83.39 101.98,60.88" fill="#b5b2aa" stroke="#b5b2aa" stroke-width="0.3"/><polygon points="123.59,91.95 123.59,117.21 130.08,89.48" fill="#ccc9c0" stroke="#ccc9c0" stroke-width="0.3"/><polygon points="112.06,116.92 117.10,119.68 117.10,94.42" fill="#b5b2aa" stroke="#b5b2aa" stroke-width="0.3"/><polygon points="122.90,23.00 116.41,25.47 121.45,28.22" fill="#d9d5cc" stroke="#d9d5cc" stroke-width="0.3"/><polygon points="125.06,92.27 125.06,117.06 131.03,90.01" fill="#e7e5df" stroke="#e7e5df" stroke-width="0.3"/><polygon points="127.94,25.76 122.90,23.00 121.45,28.22" fill="#d9d5cc" stroke="#d9d5cc" stroke-width="0.3"/><polygon points="118.23,118.85 118.44,118.97 118.44,94.19" fill="#cdcbc6" stroke="#cdcbc6" stroke-width="0.3"/><polygon points="118.44,118.97 118.66,119.09 118.66,94.30" fill="#cdcbc6" stroke="#cdcbc6" stroke-width="0.3"/><polygon points="130.08,89.48 136.57,87.02 136.57,61.76" fill="#ccc9c0" stroke="#ccc9c0" stroke-width="0.3"/><polygon points="118.66,119.09 118.88,119.20 118.88,94.42" fill="#cdcbc6" stroke="#cdcbc6" stroke-width="0.3"/><polygon points="118.88,119.20 119.09,119.32 119.09,94.54" fill="#cdcbc6" stroke="#cdcbc6" stroke-width="0.3"/><polygon points="101.98,86.14 107.02,88.90 107.02,63.64" fill="#b5b2aa" stroke="#b5b2aa" stroke-width="0.3"/><polygon points="112.06,91.66 112.06,116.92 117.10,94.42" fill="#b5b2aa" stroke="#b5b2aa" stroke-width="0.3"/><polygon points="136.57,61.76 136.57,87.02 143.06,59.29" fill="#ccc9c0" stroke="#ccc9c0" stroke-width="0.3"/><polygon points="131.03,90.01 137.00,87.74 137.00,62.96" fill="#e7e5df" stroke="#e7e5df" stroke-width="0.3"/><polygon points="137.00,62.96 137.00,87.74 142.97,60.69" fill="#e7e5df" stroke="#e7e5df" stroke-width="0.3"/><polygon points="117.10,94.42 117.10,119.68 123.59,91.95" fill="#ccc9c0" stroke="#ccc9c0" stroke-width="0.3"/><polygon points="101.98,60.88 101.98,86.14 107.02,63.64" fill="#b5b2aa" stroke="#b5b2aa" stroke-width="0.3"/><polygon points="119.09,94.54 119.09,119.32 125.06,92.27" fill="#e7e5df" stroke="#e7e5df" stroke-width="0.3"/><polygon points="116.41,25.47 109.92,27.93 114.96,30.69" fill="#d9d5cc" stroke="#d9d5cc" stroke-width="0.3"/><polygon points="121.45,28.22 116.41,25.47 114.96,30.69" fill="#d9d5cc" stroke="#d9d5cc" stroke-width="0.3"/><polygon points="118.23,94.07 118.23,118.85 118.44,94.19" fill="#cdcbc6" stroke="#cdcbc6" stroke-width="0.3"/><polygon points="118.44,94.19 118.44,118.97 118.66,94.30" fill="#cdcbc6" stroke="#cdcbc6" stroke-width="0.3"/><polygon points="127.94,25.76 121.45,28.22 126.49,30.98" fill="#d9d5cc" stroke="#d9d5cc" stroke-width="0.3"/><polygon points="118.66,94.30 118.66,119.09 118.88,94.42" fill="#cdcbc6" stroke="#cdcbc6" stroke-width="0.3"/><polygon points="132.98,28.51 127.94,25.76 126.49,30.98" fill="#d9d5cc" stroke="#d9d5cc" stroke-width="0.3"/><polygon points="118.88,94.42 118.88,119.20 119.09,94.54" fill="#cdcbc6" stroke="#cdcbc6" stroke-width="0.3"/><polygon points="123.59,91.95 130.08,89.48 130.08,64.22" fill="#ccc9c0" stroke="#ccc9c0" stroke-width="0.3"/><polygon points="121.92,98.76 122.10,98.69 122.10,96.28" fill="#63625a" stroke="#63625a" stroke-width="0.3"/><polygon points="120.86,98.68 120.99,98.75 120.99,96.35" fill="#56564f" stroke="#56564f" stroke-width="0.3"/><polygon points="121.74,98.83 121.92,98.76 121.92,96.35" fill="#63625a" stroke="#63625a" stroke-width="0.3"/><polygon points="125.06,92.27 131.03,90.01 131.03,65.22" fill="#e7e5df" stroke="#e7e5df" stroke-width="0.3"/><polygon points="120.99,98.75 121.12,98.82 121.12,96.42" fill="#56564f" stroke="#56564f" stroke-width="0.3"/><polygon points="107.02,88.90 112.06,91.66 112.06,66.39" fill="#b5b2aa" stroke="#b5b2aa" stroke-width="0.3"/><polygon points="121.56,98.90 121.74,98.83 121.74,96.42" fill="#63625a" stroke="#63625a" stroke-width="0.3"/><polygon points="121.12,98.82 121.25,98.90 121.25,96.49" fill="#56564f" stroke="#56564f" stroke-width="0.3"/><polygon points="120.86,96.28 120.86,98.68 120.99,96.35" fill="#56564f" stroke="#56564f" stroke-width="0.3"/><polygon points="121.38,98.97 121.56,98.90 121.56,96.49" fill="#63625a" stroke="#63625a" stroke-width="0.3"/><polygon points="121.25,98.90 121.38,98.97 121.38,96.56" fill="#56564f" stroke="#56564f" stroke-width="0.3"/><polygon points="130.08,64.22 130.08,89.48 136.57,61.76" fill="#ccc9c0" stroke="#ccc9c0" stroke-width="0.3"/><polygon points="121.92,96.35 121.92,98.76 122.10,96.28" fill="#63625a" stroke="#63625a" stroke-width="0.3"/><polygon points="120.99,96.35 120.99,98.75 121.12,96.42" fill="#56564f" stroke="#56564f" stroke-width="0.3"/><polygon points="121.74,96.42 121.74,98.83 121.92,96.35" fill="#63625a" stroke="#63625a" stroke-width="0.3"/><polygon points="121.12,96.42 121.12,98.82 121.25,96.49" fill="#56564f" stroke="#56564f" stroke-width="0.3"/><polygon points="121.56,96.49 121.56,98.90 121.74,96.42" fill="#63625a" stroke="#63625a" stroke-width="0.3"/><polygon points="121.25,96.49 121.25,98.90 121.38,96.56" fill="#56564f" stroke="#56564f" stroke-width="0.3"/><polygon points="121.38,96.56 121.38,98.97 121.56,96.49" fill="#63625a" stroke="#63625a" stroke-width="0.3"/><polygon points="121.92,96.35 122.10,96.28 122.10,93.88" fill="#63625a" stroke="#63625a" stroke-width="0.3"/><polygon points="120.86,96.28 120.99,96.35 120.99,93.94" fill="#56564f" stroke="#56564f" stroke-width="0.3"/><polygon points="121.74,96.42 121.92,96.35 121.92,93.95" fill="#63625a" stroke="#63625a" stroke-width="0.3"/><polygon points="120.99,96.35 121.12,96.42 121.12,94.01" fill="#56564f" stroke="#56564f" stroke-width="0.3"/><polygon points="131.03,65.22 131.03,90.01 137.00,62.96" fill="#e7e5df" stroke="#e7e5df" stroke-width="0.3"/><polygon points="121.56,96.49 121.74,96.42 121.74,94.02" fill="#63625a" stroke="#63625a" stroke-width="0.3"/><polygon points="121.12,96.42 121.25,96.49 121.25,94.08" fill="#56564f" stroke="#56564f" stroke-width="0.3"/><polygon points="120.86,93.87 120.86,96.28 120.99,93.94" fill="#56564f" stroke="#56564f" stroke-width="0.3"/><polygon points="121.38,96.56 121.56,96.49 121.56,94.09" fill="#63625a" stroke="#63625a" stroke-width="0.3"/><polygon points="121.25,96.49 121.38,96.56 121.38,94.15" fill="#56564f" stroke="#56564f" stroke-width="0.3"/><polygon points="121.92,93.95 121.92,96.35 122.10,93.88" fill="#63625a" stroke="#63625a" stroke-width="0.3"/><polygon points="120.99,93.94 120.99,96.35 121.12,94.01" fill="#56564f" stroke="#56564f" stroke-width="0.3"/><polygon points="121.74,94.02 121.74,96.42 121.92,93.95" fill="#63625a" stroke="#63625a" stroke-width="0.3"/><polygon points="121.12,94.01 121.12,96.42 121.25,94.08" fill="#56564f" stroke="#56564f" stroke-width="0.3"/><polygon points="121.56,94.09 121.56,96.49 121.74,94.02" fill="#63625a" stroke="#63625a" stroke-width="0.3"/><polygon points="121.25,94.08 121.25,96.49 121.38,94.15" fill="#56564f" stroke="#56564f" stroke-width="0.3"/><polygon points="121.38,94.15 121.38,96.56 121.56,94.09" fill="#63625a" stroke="#63625a" stroke-width="0.3"/><polygon points="96.94,58.12 101.98,60.88 101.98,35.62" fill="#b5b2aa" stroke="#b5b2aa" stroke-width="0.3"/><polygon points="121.92,93.95 122.10,93.88 122.10,91.47" fill="#63625a" stroke="#63625a" stroke-width="0.3"/><polygon points="120.86,93.87 120.99,93.94 120.99,91.54" fill="#56564f" stroke="#56564f" stroke-width="0.3"/><polygon points="121.74,94.02 121.92,93.95 121.92,91.54" fill="#63625a" stroke="#63625a" stroke-width="0.3"/><polygon points="120.99,93.94 121.12,94.01 121.12,91.61" fill="#56564f" stroke="#56564f" stroke-width="0.3"/><polygon points="136.57,61.76 143.06,59.29 143.06,34.03" fill="#ccc9c0" stroke="#ccc9c0" stroke-width="0.3"/><polygon points="107.02,63.64 107.02,88.90 112.06,66.39" fill="#b5b2aa" stroke="#b5b2aa" stroke-width="0.3"/><polygon points="121.56,94.09 121.74,94.02 121.74,91.61" fill="#63625a" stroke="#63625a" stroke-width="0.3"/><polygon points="121.12,94.01 121.25,94.08 121.25,91.68" fill="#56564f" stroke="#56564f" stroke-width="0.3"/><polygon points="109.92,27.93 103.43,30.40 108.47,33.15" fill="#d9d5cc" stroke="#d9d5cc" stroke-width="0.3"/><polygon points="120.86,91.46 120.86,93.87 120.99,91.54" fill="#56564f" stroke="#56564f" stroke-width="0.3"/><polygon points="121.38,94.15 121.56,94.09 121.56,91.68" fill="#63625a" stroke="#63625a" stroke-width="0.3"/><polygon points="121.25,94.08 121.38,94.15 121.38,91.75" fill="#56564f" stroke="#56564f" stroke-width="0.3"/><polygon points="121.92,91.54 121.92,93.95 122.10,91.47" fill="#63625a" stroke="#63625a" stroke-width="0.3"/><polygon points="114.96,30.69 109.92,27.93 108.47,33.15" fill="#d9d5cc" stroke="#d9d5cc" stroke-width="0.3"/><polygon points="120.99,91.54 120.99,93.94 121.12,91.61" fill="#56564f" stroke="#56564f" stroke-width="0.3"/><polygon points="121.74,91.61 121.74,94.02 121.92,91.54" fill="#63625a" stroke="#63625a" stroke-width="0.3"/><polygon points="121.12,91.61 121.12,94.01 121.25,91.68" fill="#56564f" stroke="#56564f" stroke-width="0.3"/><polygon points="121.56,91.68 121.56,94.09 121.74,91.61" fill="#63625a" stroke="#63625a" stroke-width="0.3"/><polygon points="121.25,91.68 121.25,94.08 121.38,91.75" fill="#56564f" stroke="#56564f" stroke-width="0.3"/><polygon points="121.38,91.75 121.38,94.15 121.56,91.68" fill="#63625a" stroke="#63625a" stroke-width="0.3"/><polygon points="121.45,28.22 114.96,30.69 120.00,33.44" fill="#d9d5cc" stroke="#d9d5cc" stroke-width="0.3"/><polygon points="126.49,30.98 121.45,28.22 120.00,33.44" fill="#d9d5cc" stroke="#d9d5cc" stroke-width="0.3"/><polygon points="121.92,91.54 122.10,91.47 122.10,89.07" fill="#63625a" stroke="#63625a" stroke-width="0.3"/><polygon points="120.86,91.46 120.99,91.54 120.99,89.13" fill="#56564f" stroke="#56564f" stroke-width="0.3"/><polygon points="121.74,91.61 121.92,91.54 121.92,89.14" fill="#63625a" stroke="#63625a" stroke-width="0.3"/><polygon points="120.99,91.54 121.12,91.61 121.12,89.20" fill="#56564f" stroke="#56564f" stroke-width="0.3"/><polygon points="132.98,28.51 126.49,30.98 131.53,33.74" fill="#d9d5cc" stroke="#d9d5cc" stroke-width="0.3"/><polygon points="121.56,91.68 121.74,91.61 121.74,89.20" fill="#63625a" stroke="#63625a" stroke-width="0.3"/><polygon points="137.00,62.96 142.97,60.69 142.97,35.91" fill="#e7e5df" stroke="#e7e5df" stroke-width="0.3"/><polygon points="121.12,91.61 121.25,91.68 121.25,89.27" fill="#56564f" stroke="#56564f" stroke-width="0.3"/><polygon points="121.58,88.78 121.40,88.85 121.53,88.92" fill="#696860" stroke="#696860" stroke-width="0.3"/><polygon points="121.71,88.85 121.58,88.78 121.53,88.92" fill="#696860" stroke="#696860" stroke-width="0.3"/><polygon points="120.86,89.06 120.86,91.46 120.99,89.13" fill="#56564f" stroke="#56564f" stroke-width="0.3"/><polygon points="121.38,91.75 121.56,91.68 121.56,89.27" fill="#63625a" stroke="#63625a" stroke-width="0.3"/><polygon points="138.02,31.27 132.98,28.51 131.53,33.74" fill="#d9d5cc" stroke="#d9d5cc" stroke-width="0.3"/><polygon points="121.25,91.68 121.38,91.75 121.38,89.34" fill="#56564f" stroke="#56564f" stroke-width="0.3"/><polygon points="121.92,89.14 121.92,91.54 122.10,89.07" fill="#63625a" stroke="#63625a" stroke-width="0.3"/><polygon points="117.10,94.42 123.59,91.95 123.59,66.69" fill="#ccc9c0" stroke="#ccc9c0" stroke-width="0.3"/><polygon points="121.40,88.85 121.22,88.92 121.35,88.99" fill="#696860" stroke="#696860" stroke-width="0.3"/><polygon points="121.53,88.92 121.40,88.85 121.35,88.99" fill="#696860" stroke="#696860" stroke-width="0.3"/><polygon points="121.71,88.85 121.53,88.92 121.66,88.99" fill="#696860" stroke="#696860" stroke-width="0.3"/><polygon points="121.84,88.92 121.71,88.85 121.66,88.99" fill="#696860" stroke="#696860" stroke-width="0.3"/><polygon points="120.99,89.13 120.99,91.54 121.12,89.20" fill="#56564f" stroke="#56564f" stroke-width="0.3"/><polygon points="121.74,89.20 121.74,91.61 121.92,89.14" fill="#63625a" stroke="#63625a" stroke-width="0.3"/><polygon points="121.22,88.92 121.04,88.99 121.17,89.06" fill="#696860" stroke="#696860" stroke-width="0.3"/><polygon points="121.35,88.99 121.22,88.92 121.17,89.06" fill="#696860" stroke="#696860" stroke-width="0.3"/><polygon points="121.53,88.92 121.35,88.99 121.48,89.06" fill="#696860" stroke="#696860" stroke-width="0.3"/><polygon points="121.66,88.99 121.53,88.92 121.48,89.06" fill="#696860" stroke="#696860" stroke-width="0.3"/><polygon points="121.84,88.92 121.66,88.99 121.79,89.06" fill="#696860" stroke="#696860" stroke-width="0.3"/><polygon points="121.97,89.00 121.84,88.92 121.79,89.06" fill="#696860" stroke="#696860" stroke-width="0.3"/><polygon points="121.12,89.20 121.12,91.61 121.25,89.27" fill="#56564f" stroke="#56564f" stroke-width="0.3"/><polygon points="121.56,89.27 121.56,91.68 121.74,89.20" fill="#63625a" stroke="#63625a" stroke-width="0.3"/><polygon points="121.04,88.99 120.86,89.06 120.99,89.13" fill="#696860" stroke="#696860" stroke-width="0.3"/><polygon points="121.17,89.06 121.04,88.99 120.99,89.13" fill="#696860" stroke="#696860" stroke-width="0.3"/><polygon points="121.35,88.99 121.17,89.06 121.30,89.13" fill="#696860" stroke="#696860" stroke-width="0.3"/><polygon points="121.48,89.06 121.35,88.99 121.30,89.13" fill="#696860" stroke="#696860" stroke-width="0.3"/><polygon points="121.66,88.99 121.48,89.06 121.61,89.13" fill="#696860" stroke="#696860" stroke-width="0.3"/><polygon points="121.79,89.06 121.66,88.99 121.61,89.13" fill="#696860" stroke="#696860" stroke-width="0.3"/><polygon points="121.97,89.00 121.79,89.06 121.92,89.14" fill="#696860" stroke="#696860" stroke-width="0.3"/><polygon points="122.10,89.07 121.97,89.00 121.92,89.14" fill="#696860" stroke="#696860" stroke-width="0.3"/><polygon points="121.25,89.27 121.25,91.68 121.38,89.34" fill="#56564f" stroke="#56564f" stroke-width="0.3"/><polygon points="121.38,89.34 121.38,91.75 121.56,89.27" fill="#63625a" stroke="#63625a" stroke-width="0.3"/><polygon points="119.09,94.54 125.06,92.27 125.06,67.49" fill="#e7e5df" stroke="#e7e5df" stroke-width="0.3"/><polygon points="121.17,89.06 120.99,89.13 121.12,89.20" fill="#696860" stroke="#696860" stroke-width="0.3"/><polygon points="121.30,89.13 121.17,89.06 121.12,89.20" fill="#696860" stroke="#696860" stroke-width="0.3"/><polygon points="121.48,89.06 121.30,89.13 121.43,89.20" fill="#696860" stroke="#696860" stroke-width="0.3"/><polygon points="121.61,89.13 121.48,89.06 121.43,89.20" fill="#696860" stroke="#696860" stroke-width="0.3"/><polygon points="121.79,89.06 121.61,89.13 121.74,89.20" fill="#696860" stroke="#696860" stroke-width="0.3"/><polygon points="121.92,89.14 121.79,89.06 121.74,89.20" fill="#696860" stroke="#696860" stroke-width="0.3"/><polygon points="121.30,89.13 121.12,89.20 121.25,89.27" fill="#696860" stroke="#696860" stroke-width="0.3"/><polygon points="121.43,89.20 121.30,89.13 121.25,89.27" fill="#696860" stroke="#696860" stroke-width="0.3"/><polygon points="121.61,89.13 121.43,89.20 121.56,89.27" fill="#696860" stroke="#696860" stroke-width="0.3"/><polygon points="121.74,89.20 121.61,89.13 121.56,89.27" fill="#696860" stroke="#696860" stroke-width="0.3"/><polygon points="121.43,89.20 121.25,89.27 121.38,89.34" fill="#696860" stroke="#696860" stroke-width="0.3"/><polygon points="121.56,89.27 121.43,89.20 121.38,89.34" fill="#696860" stroke="#696860" stroke-width="0.3"/><polygon points="96.94,32.86 96.94,58.12 101.98,35.62" fill="#b5b2aa" stroke="#b5b2aa" stroke-width="0.3"/><polygon points="123.59,66.69 123.59,91.95 130.08,64.22" fill="#ccc9c0" stroke="#ccc9c0" stroke-width="0.3"/><polygon points="112.06,91.66 117.10,94.42 117.10,69.15" fill="#b5b2aa" stroke="#b5b2aa" stroke-width="0.3"/><polygon points="125.06,67.49 125.06,92.27 131.03,65.22" fill="#e7e5df" stroke="#e7e5df" stroke-width="0.3"/><polygon points="118.23,94.07 118.44,94.19 118.44,69.40" fill="#cdcbc6" stroke="#cdcbc6" stroke-width="0.3"/><polygon points="118.44,94.19 118.66,94.30 118.66,69.52" fill="#cdcbc6" stroke="#cdcbc6" stroke-width="0.3"/><polygon points="118.66,94.30 118.88,94.42 118.88,69.64" fill="#cdcbc6" stroke="#cdcbc6" stroke-width="0.3"/><polygon points="118.88,94.42 119.09,94.54 119.09,69.76" fill="#cdcbc6" stroke="#cdcbc6" stroke-width="0.3"/><polygon points="130.08,64.22 136.57,61.76 136.57,36.49" fill="#ccc9c0" stroke="#ccc9c0" stroke-width="0.3"/><polygon points="103.43,30.40 96.94,32.86 101.98,35.62" fill="#d9d5cc" stroke="#d9d5cc" stroke-width="0.3"/><polygon points="101.98,60.88 107.02,63.64 107.02,38.37" fill="#b5b2aa" stroke="#b5b2aa" stroke-width="0.3"/><polygon points="108.47,33.15 103.43,30.40 101.98,35.62" fill="#d9d5cc" stroke="#d9d5cc" stroke-width="0.3"/><polygon points="112.06,66.39 112.06,91.66 117.10,69.15" fill="#b5b2aa" stroke="#b5b2aa" stroke-width="0.3"/><polygon points="114.96,30.69 108.47,33.15 113.51,35.91" fill="#d9d5cc" stroke="#d9d5cc" stroke-width="0.3"/><polygon points="120.00,33.44 114.96,30.69 113.51,35.91" fill="#d9d5cc" stroke="#d9d5cc" stroke-width="0.3"/><polygon points="131.03,65.22 137.00,62.96 137.00,38.17" fill="#e7e5df" stroke="#e7e5df" stroke-width="0.3"/><polygon points="136.57,36.49 136.57,61.76 143.06,34.03" fill="#ccc9c0" stroke="#ccc9c0" stroke-width="0.3"/><polygon points="126.49,30.98 120.00,33.44 125.04,36.20" fill="#d9d5cc" stroke="#d9d5cc" stroke-width="0.3"/><polygon points="131.53,33.74 126.49,30.98 125.04,36.20" fill="#d9d5cc" stroke="#d9d5cc" stroke-width="0.3"/><polygon points="138.02,31.27 131.53,33.74 136.57,36.49" fill="#d9d5cc" stroke="#d9d5cc" stroke-width="0.3"/><polygon points="143.06,34.03 138.02,31.27 136.57,36.49" fill="#d9d5cc" stroke="#d9d5cc" stroke-width="0.3"/><polygon points="137.00,38.17 137.00,62.96 142.97,35.91" fill="#e7e5df" stroke="#e7e5df" stroke-width="0.3"/><polygon points="117.10,69.15 117.10,94.42 123.59,66.69" fill="#ccc9c0" stroke="#ccc9c0" stroke-width="0.3"/><polygon points="101.98,35.62 101.98,60.88 107.02,38.37" fill="#b5b2aa" stroke="#b5b2aa" stroke-width="0.3"/><polygon points="119.09,69.76 119.09,94.54 125.06,67.49" fill="#e7e5df" stroke="#e7e5df" stroke-width="0.3"/><polygon points="118.23,69.29 118.23,94.07 118.44,69.40" fill="#cdcbc6" stroke="#cdcbc6" stroke-width="0.3"/><polygon points="118.44,69.40 118.44,94.19 118.66,69.52" fill="#cdcbc6" stroke="#cdcbc6" stroke-width="0.3"/><polygon points="118.66,69.52 118.66,94.30 118.88,69.64" fill="#cdcbc6" stroke="#cdcbc6" stroke-width="0.3"/><polygon points="118.88,69.64 118.88,94.42 119.09,69.76" fill="#cdcbc6" stroke="#cdcbc6" stroke-width="0.3"/><polygon points="142.32,35.55 142.11,35.43 136.35,37.82" fill="#f5f3ed" stroke="#f5f3ed" stroke-width="0.3"/><polygon points="142.54,35.67 142.32,35.55 136.57,37.94" fill="#f5f3ed" stroke="#f5f3ed" stroke-width="0.3"/><polygon points="142.76,35.79 142.54,35.67 136.79,38.06" fill="#f5f3ed" stroke="#f5f3ed" stroke-width="0.3"/><polygon points="123.59,66.69 130.08,64.22 130.08,38.96" fill="#ccc9c0" stroke="#ccc9c0" stroke-width="0.3"/><polygon points="142.97,35.91 142.76,35.79 137.00,38.17" fill="#f5f3ed" stroke="#f5f3ed" stroke-width="0.3"/><polygon points="125.06,67.49 131.03,65.22 131.03,40.44" fill="#e7e5df" stroke="#e7e5df" stroke-width="0.3"/><polygon points="108.47,33.15 101.98,35.62 107.02,38.37" fill="#d9d5cc" stroke="#d9d5cc" stroke-width="0.3"/><polygon points="142.11,35.43 136.14,37.70 136.35,37.82" fill="#f5f3ed" stroke="#f5f3ed" stroke-width="0.3"/><polygon points="107.02,63.64 112.06,66.39 112.06,41.13" fill="#b5b2aa" stroke="#b5b2aa" stroke-width="0.3"/><polygon points="113.51,35.91 108.47,33.15 107.02,38.37" fill="#d9d5cc" stroke="#d9d5cc" stroke-width="0.3"/><polygon points="142.32,35.55 136.35,37.82 136.57,37.94" fill="#f5f3ed" stroke="#f5f3ed" stroke-width="0.3"/><polygon points="130.08,38.96 130.08,64.22 136.57,36.49" fill="#ccc9c0" stroke="#ccc9c0" stroke-width="0.3"/><polygon points="142.54,35.67 136.57,37.94 136.79,38.06" fill="#f5f3ed" stroke="#f5f3ed" stroke-width="0.3"/><polygon points="120.00,33.44 113.51,35.91 118.55,38.67" fill="#d9d5cc" stroke="#d9d5cc" stroke-width="0.3"/><polygon points="125.04,36.20 120.00,33.44 118.55,38.67" fill="#d9d5cc" stroke="#d9d5cc" stroke-width="0.3"/><polygon points="142.76,35.79 136.79,38.06 137.00,38.17" fill="#f5f3ed" stroke="#f5f3ed" stroke-width="0.3"/><polygon points="131.53,33.74 125.04,36.20 130.08,38.96" fill="#d9d5cc" stroke="#d9d5cc" stroke-width="0.3"/><polygon points="131.03,40.44 131.03,65.22 137.00,38.17" fill="#e7e5df" stroke="#e7e5df" stroke-width="0.3"/><polygon points="136.57,36.49 131.53,33.74 130.08,38.96" fill="#d9d5cc" stroke="#d9d5cc" stroke-width="0.3"/><polygon points="107.02,38.37 107.02,63.64 112.06,41.13" fill="#b5b2aa" stroke="#b5b2aa" stroke-width="0.3"/><polygon points="136.35,37.82 136.14,37.70 130.38,40.09" fill="#f5f3ed" stroke="#f5f3ed" stroke-width="0.3"/><polygon points="136.57,37.94 136.35,37.82 130.60,40.20" fill="#f5f3ed" stroke="#f5f3ed" stroke-width="0.3"/><polygon points="136.79,38.06 136.57,37.94 130.82,40.32" fill="#f5f3ed" stroke="#f5f3ed" stroke-width="0.3"/><polygon points="137.00,38.17 136.79,38.06 131.03,40.44" fill="#f5f3ed" stroke="#f5f3ed" stroke-width="0.3"/><polygon points="117.10,69.15 123.59,66.69 123.59,41.42" fill="#ccc9c0" stroke="#ccc9c0" stroke-width="0.3"/><polygon points="119.09,69.76 125.06,67.49 125.06,42.71" fill="#e7e5df" stroke="#e7e5df" stroke-width="0.3"/><polygon points="136.14,37.70 130.17,39.97 130.38,40.09" fill="#f5f3ed" stroke="#f5f3ed" stroke-width="0.3"/><polygon points="136.35,37.82 130.38,40.09 130.60,40.20" fill="#f5f3ed" stroke="#f5f3ed" stroke-width="0.3"/><polygon points="136.57,37.94 130.60,40.20 130.82,40.32" fill="#f5f3ed" stroke="#f5f3ed" stroke-width="0.3"/><polygon points="136.79,38.06 130.82,40.32 131.03,40.44" fill="#f5f3ed" stroke="#f5f3ed" stroke-width="0.3"/><polygon points="123.59,41.42 123.59,66.69 130.08,38.96" fill="#ccc9c0" stroke="#ccc9c0" stroke-width="0.3"/><polygon points="113.51,35.91 107.02,38.37 112.06,41.13" fill="#d9d5cc" stroke="#d9d5cc" stroke-width="0.3"/><polygon points="112.06,66.39 117.10,69.15 117.10,43.89" fill="#b5b2aa" stroke="#b5b2aa" stroke-width="0.3"/><polygon points="118.55,38.67 113.51,35.91 112.06,41.13" fill="#d9d5cc" stroke="#d9d5cc" stroke-width="0.3"/><polygon points="125.06,42.71 125.06,67.49 131.03,40.44" fill="#e7e5df" stroke="#e7e5df" stroke-width="0.3"/><polygon points="125.04,36.20 118.55,38.67 123.59,41.42" fill="#d9d5cc" stroke="#d9d5cc" stroke-width="0.3"/><polygon points="130.08,38.96 125.04,36.20 123.59,41.42" fill="#d9d5cc" stroke="#d9d5cc" stroke-width="0.3"/><polygon points="118.23,69.29 118.44,69.40 118.44,44.62" fill="#cdcbc6" stroke="#cdcbc6" stroke-width="0.3"/><polygon points="118.44,69.40 118.66,69.52 118.66,44.74" fill="#cdcbc6" stroke="#cdcbc6" stroke-width="0.3"/><polygon points="118.66,69.52 118.88,69.64 118.88,44.86" fill="#cdcbc6" stroke="#cdcbc6" stroke-width="0.3"/><polygon points="118.88,69.64 119.09,69.76 119.09,44.98" fill="#cdcbc6" stroke="#cdcbc6" stroke-width="0.3"/><polygon points="130.38,40.09 130.17,39.97 124.41,42.35" fill="#f5f3ed" stroke="#f5f3ed" stroke-width="0.3"/><polygon points="130.60,40.20 130.38,40.09 124.63,42.47" fill="#f5f3ed" stroke="#f5f3ed" stroke-width="0.3"/><polygon points="130.82,40.32 130.60,40.20 124.85,42.59" fill="#f5f3ed" stroke="#f5f3ed" stroke-width="0.3"/><polygon points="112.06,41.13 112.06,66.39 117.10,43.89" fill="#b5b2aa" stroke="#b5b2aa" stroke-width="0.3"/><polygon points="131.03,40.44 130.82,40.32 125.06,42.71" fill="#f5f3ed" stroke="#f5f3ed" stroke-width="0.3"/><polygon points="130.17,39.97 124.20,42.24 124.41,42.35" fill="#f5f3ed" stroke="#f5f3ed" stroke-width="0.3"/><polygon points="130.38,40.09 124.41,42.35 124.63,42.47" fill="#f5f3ed" stroke="#f5f3ed" stroke-width="0.3"/><polygon points="130.60,40.20 124.63,42.47 124.85,42.59" fill="#f5f3ed" stroke="#f5f3ed" stroke-width="0.3"/><polygon points="130.82,40.32 124.85,42.59 125.06,42.71" fill="#f5f3ed" stroke="#f5f3ed" stroke-width="0.3"/><polygon points="119.09,44.98 119.09,69.76 125.06,42.71" fill="#e7e5df" stroke="#e7e5df" stroke-width="0.3"/><polygon points="117.10,43.89 117.10,69.15 123.59,41.42" fill="#ccc9c0" stroke="#ccc9c0" stroke-width="0.3"/><polygon points="118.23,44.50 118.23,69.29 118.44,44.62" fill="#cdcbc6" stroke="#cdcbc6" stroke-width="0.3"/><polygon points="118.55,38.67 112.06,41.13 117.10,43.89" fill="#d9d5cc" stroke="#d9d5cc" stroke-width="0.3"/><polygon points="118.44,44.62 118.44,69.40 118.66,44.74" fill="#cdcbc6" stroke="#cdcbc6" stroke-width="0.3"/><polygon points="123.59,41.42 118.55,38.67 117.10,43.89" fill="#d9d5cc" stroke="#d9d5cc" stroke-width="0.3"/><polygon points="118.66,44.74 118.66,69.52 118.88,44.86" fill="#cdcbc6" stroke="#cdcbc6" stroke-width="0.3"/><polygon points="118.88,44.86 118.88,69.64 119.09,44.98" fill="#cdcbc6" stroke="#cdcbc6" stroke-width="0.3"/><polygon points="124.41,42.35 124.20,42.24 118.44,44.62" fill="#f5f3ed" stroke="#f5f3ed" stroke-width="0.3"/><polygon points="124.63,42.47 124.41,42.35 118.66,44.74" fill="#f5f3ed" stroke="#f5f3ed" stroke-width="0.3"/><polygon points="124.85,42.59 124.63,42.47 118.88,44.86" fill="#f5f3ed" stroke="#f5f3ed" stroke-width="0.3"/><polygon points="125.06,42.71 124.85,42.59 119.09,44.98" fill="#f5f3ed" stroke="#f5f3ed" stroke-width="0.3"/><polygon points="124.20,42.24 118.23,44.50 118.44,44.62" fill="#f5f3ed" stroke="#f5f3ed" stroke-width="0.3"/><polygon points="124.41,42.35 118.44,44.62 118.66,44.74" fill="#f5f3ed" stroke="#f5f3ed" stroke-width="0.3"/><polygon points="124.63,42.47 118.66,44.74 118.88,44.86" fill="#f5f3ed" stroke="#f5f3ed" stroke-width="0.3"/><polygon points="124.85,42.59 118.88,44.86 119.09,44.98" fill="#f5f3ed" stroke="#f5f3ed" stroke-width="0.3"/></svg>
